<svg width="14" height="14" viewBox="0 0 14 14" fill="none" xmlns="http://www.w3.org/2000/svg">
<g clip-path="url(#clip0_26_59)">
<path d="M12.6875 1.31253H10.8281V0.875031C10.8281 0.758998 10.782 0.647718 10.7 0.565671C10.6179 0.483624 10.5067 0.437531 10.3906 0.437531C10.2746 0.437531 10.1633 0.483624 10.0813 0.565671C9.99922 0.647718 9.95312 0.758998 9.95312 0.875031V1.31253H4.04688V0.875031C4.04688 0.758998 4.00078 0.647718 3.91873 0.565671C3.83669 0.483624 3.72541 0.437531 3.60938 0.437531C3.49334 0.437531 3.38206 0.483624 3.30002 0.565671C3.21797 0.647718 3.17188 0.758998 3.17188 0.875031V1.31253H1.3125C0.964403 1.31253 0.630564 1.45081 0.384422 1.69695C0.138281 1.94309 0 2.27693 0 2.62503L0 12.25C0 12.5981 0.138281 12.932 0.384422 13.1781C0.630564 13.4242 0.964403 13.5625 1.3125 13.5625H12.6875C13.0356 13.5625 13.3694 13.4242 13.6156 13.1781C13.8617 12.932 14 12.5981 14 12.25V2.62503C14 2.27693 13.8617 1.94309 13.6156 1.69695C13.3694 1.45081 13.0356 1.31253 12.6875 1.31253ZM1.3125 2.18753H3.17188V2.62503C3.17188 2.74106 3.21797 2.85234 3.30002 2.93439C3.38206 3.01644 3.49334 3.06253 3.60938 3.06253C3.72541 3.06253 3.83669 3.01644 3.91873 2.93439C4.00078 2.85234 4.04688 2.74106 4.04688 2.62503V2.18753H9.95312V2.62503C9.95312 2.74106 9.99922 2.85234 10.0813 2.93439C10.1633 3.01644 10.2746 3.06253 10.3906 3.06253C10.5067 3.06253 10.6179 3.01644 10.7 2.93439C10.782 2.85234 10.8281 2.74106 10.8281 2.62503V2.18753H12.6875C12.8035 2.18753 12.9148 2.23362 12.9969 2.31567C13.0789 2.39772 13.125 2.509 13.125 2.62503V3.71878H0.875V2.62503C0.875 2.509 0.921094 2.39772 1.00314 2.31567C1.08519 2.23362 1.19647 2.18753 1.3125 2.18753V2.18753ZM12.6875 12.6875H1.3125C1.19647 12.6875 1.08519 12.6414 1.00314 12.5594C0.921094 12.4773 0.875 12.3661 0.875 12.25V4.59378H13.125V12.25C13.125 12.3661 13.0789 12.4773 12.9969 12.5594C12.9148 12.6414 12.8035 12.6875 12.6875 12.6875Z" fill="black"/>
<path d="M9.84373 5.99598C9.75144 5.92589 9.63512 5.89528 9.52028 5.91087C9.40545 5.92645 9.30149 5.98696 9.23123 6.07911L6.03529 10.2616L4.74904 8.88786C4.70968 8.84592 4.66245 8.81214 4.61004 8.78845C4.55763 8.76476 4.50107 8.75163 4.44358 8.7498C4.3861 8.74797 4.32882 8.75749 4.27501 8.7778C4.2212 8.7981 4.17192 8.82881 4.12998 8.86817C4.08804 8.90753 4.05426 8.95476 4.03057 9.00717C4.00688 9.05958 3.99375 9.11614 3.99192 9.17362C3.99009 9.23111 3.9996 9.28839 4.01991 9.3422C4.04022 9.39601 4.07093 9.44529 4.11029 9.48723L5.75091 11.2372C5.7919 11.2808 5.84138 11.3155 5.89632 11.3392C5.95125 11.3629 6.01046 11.3751 6.07029 11.375H6.09216C6.1558 11.3717 6.21794 11.3545 6.27424 11.3247C6.33054 11.2948 6.37964 11.253 6.4181 11.2022L9.9181 6.60848C9.98915 6.51728 10.0212 6.40166 10.0073 6.28689C9.99333 6.17212 9.93454 6.06753 9.84373 5.99598Z" fill="black"/>
</g>
<defs>
<clipPath id="clip0_26_59">
<rect width="14" height="14" fill="white"/>
</clipPath>
</defs>
</svg>
