<svg width="14" height="14" viewBox="0 0 14 14" fill="none" xmlns="http://www.w3.org/2000/svg">
<g clip-path="url(#clip0_26_60)">
<path d="M9.4942 8.23627L7.54222 6.77229V3.79012C7.54222 3.49027 7.29984 3.24789 6.99999 3.24789C6.70014 3.24789 6.45776 3.49027 6.45776 3.79012V7.04343C6.45776 7.21422 6.53802 7.37527 6.67465 7.47721L8.84351 9.10386C8.9411 9.17706 9.05498 9.21231 9.16829 9.21231C9.33367 9.21231 9.49634 9.13801 9.60262 8.99487C9.78268 8.75572 9.73387 8.41575 9.4942 8.23627Z" fill="black"/>
<path d="M7 3.05176e-05C3.13996 3.05176e-05 0 3.14 0 7.00003C0 10.8601 3.13996 14 7 14C10.86 14 14 10.8601 14 7.00003C14 3.14 10.86 3.05176e-05 7 3.05176e-05ZM7 12.9156C3.73857 12.9156 1.08443 10.2615 1.08443 7.00003C1.08443 3.7386 3.73857 1.08446 7 1.08446C10.262 1.08446 12.9156 3.7386 12.9156 7.00003C12.9156 10.2615 10.2614 12.9156 7 12.9156Z" fill="black"/>
</g>
<defs>
<clipPath id="clip0_26_60">
<rect width="14" height="14" fill="white"/>
</clipPath>
</defs>
</svg>
