<svg width="40" height="40" viewBox="0 0 40 40" fill="none" xmlns="http://www.w3.org/2000/svg">
<g clip-path="url(#clip0_1317_880)">
<path d="M38.6275 23.5294C38.6275 28.7192 34.4055 32.9412 29.2157 32.9412V4.86746L36.549 16.3906C37.9082 18.5279 38.6275 20.9961 38.6275 23.5294Z" fill="#D64E61"/>
<path d="M29.2157 4.86746V32.9412C24.0259 32.9412 19.804 28.7192 19.804 23.5294C19.804 20.9961 20.5232 18.5279 21.8824 16.3906L29.2157 4.86746Z" fill="#F06E80"/>
<path d="M15.4902 5.88235V12.9412L9.6314 14.4769L9.60787 14.4706L8.4314 5.88235H15.4902Z" fill="#D64E61"/>
<path d="M9.60782 5.88235V14.4706L3.72546 12.9412V5.88235H9.60782Z" fill="#F06E80"/>
<path d="M15.4902 27.0588V34.1176C15.4902 37.3616 12.851 40 9.60787 40L8.4314 25.9263L9.83689 25.8824L15.4902 27.0588Z" fill="#D64E61"/>
<path d="M9.60782 25.9263V40C6.36468 40 3.72546 37.3616 3.72546 34.1176V27.0588L9.60782 25.9263Z" fill="#F06E80"/>
<path d="M9.63158 27.0588H3.72546V12.9412H9.63158L10.7843 20.0784L9.63158 27.0588Z" fill="#F7F9FA"/>
<path d="M9.63159 12.9412H15.5377V27.0588H9.63159V12.9412Z" fill="#DCEAEC"/>
<path d="M9.63158 18.8235H3.72546V16.4706H9.63158L9.96374 17.6471L9.63158 18.8235Z" fill="#00EECF"/>
<path d="M3.72546 21.1765H8.43135V23.5294H3.72546V21.1765Z" fill="#00EECF"/>
<path d="M32.7451 21.9608V24.3137H30.3922V26.6667H29.2157V19.6078H30.3922V21.9608H32.7451Z" fill="#DCEAEC"/>
<path d="M29.2157 19.6078V26.6667H28.0392V24.3137H25.6863V21.9608H28.0392V19.6078H29.2157Z" fill="#F7F9FA"/>
<path d="M1.37256 0H6.86275V7.05882H1.37256V0Z" fill="#787878"/>
<path d="M6.86279 0H9.63166V7.05882H6.86279V0Z" fill="#5F5F5F"/>
<path d="M9.60791 0H12.3768V7.05882H9.60791V0Z" fill="#494949"/>
<path d="M12.3529 0H17.8431V7.05882H12.3529V0Z" fill="#2E2E2E"/>
<path d="M9.63159 16.4706H10.7843V18.8235H9.63159V16.4706Z" fill="#00B5BC"/>
</g>
<defs>
<clipPath id="clip0_1317_880">
<rect width="40" height="40" fill="white"/>
</clipPath>
</defs>
</svg>
