<svg width="16" height="18" viewBox="0 0 16 18" fill="none" xmlns="http://www.w3.org/2000/svg">
<path d="M8.00088 12.5389C7.4689 12.9438 6.37054 13.9451 6.37054 15.3094C6.37054 16.21 7.10151 16.9428 8.00004 16.9428C8.89856 16.9428 9.62953 16.21 9.62953 15.3094C9.62953 14.0173 8.53054 12.969 8.00088 12.5389Z" fill="black"/>
<path d="M11.8191 3.13288C11.6215 2.90939 11.2804 2.89586 11.0652 3.09674L8.58373 5.4128V0.562464C8.58373 0.156445 8.09417 -0.146918 7.72757 0.0748473C7.65817 0.116824 6.00906 1.12384 4.34276 2.95256C2.31674 5.17612 0.93689 7.88347 0.93689 10.9197C0.93689 14.8238 4.10542 18 8.00003 18C6.51995 18 5.31585 16.7929 5.31585 15.3093C5.31585 12.9119 7.64347 11.4924 7.74254 11.4331C7.91621 11.3293 8.13366 11.3341 8.30255 11.4454C8.39979 11.5095 10.6842 13.0417 10.6842 15.3093C10.6842 16.7929 9.4801 18 8.00003 18C11.8946 18 15.0632 14.8238 15.0632 10.9197C15.0632 7.97171 13.7623 5.32941 11.8191 3.13288Z" fill="black"/>
</svg>
