<svg width="18" height="18" viewBox="0 0 18 18" fill="none" xmlns="http://www.w3.org/2000/svg">
<g clip-path="url(#clip0_35_63)">
<path d="M17.4727 7.39761H0.527344C0.235863 7.39761 0 7.63348 0 7.92496C0 11.1735 1.77258 14.1789 4.62663 15.7687C4.70493 15.8119 4.79348 15.8351 4.8831 15.8351H13.1169C13.2066 15.8351 13.2951 15.8119 13.3734 15.7687C16.2274 14.1789 18 11.1735 18 7.92496C18 7.63348 17.7641 7.39761 17.4727 7.39761Z" fill="black"/>
<path d="M4.31586 16.8898C4.53428 17.5023 5.11415 17.9445 5.80075 17.9445H12.1992C12.8858 17.9445 13.4657 17.5023 13.6841 16.8898H4.31586Z" fill="black"/>
<path d="M15.8834 3.96987C15.5219 3.34363 14.9219 2.89974 14.2298 2.73029C14.0604 2.03814 13.6165 1.43819 12.9897 1.07668C12.3589 0.713096 11.6158 0.629178 10.9339 0.831045C9.95335 -0.203041 8.04662 -0.203041 7.06607 0.831045C6.38218 0.628159 5.64059 0.714151 5.00975 1.07668C4.38351 1.43819 3.93963 2.03817 3.77018 2.73029C3.07802 2.89971 2.47808 3.34363 2.11657 3.97036C1.69634 4.69932 1.65198 5.57942 1.98923 6.34288H16.0079V6.34291C16.3454 5.57925 16.3038 4.6996 15.8834 3.96987ZM4.74608 4.23354C4.45484 4.23354 4.21874 3.99743 4.21874 3.70619C4.21874 3.41496 4.45484 3.17885 4.74608 3.17885C5.03731 3.17885 5.27342 3.41496 5.27342 3.70619C5.27342 3.99743 5.03731 4.23354 4.74608 4.23354ZM11.1445 4.23354C10.8533 4.23354 10.6172 3.99743 10.6172 3.70619C10.6172 3.41496 10.8533 3.17885 11.1445 3.17885C11.4358 3.17885 11.6719 3.41496 11.6719 3.70619C11.6719 3.99743 11.4358 4.23354 11.1445 4.23354ZM13.2539 5.28823C12.9627 5.28823 12.7265 5.05212 12.7265 4.76088C12.7265 4.46965 12.9627 4.23354 13.2539 4.23354C13.5451 4.23354 13.7812 4.46965 13.7812 4.76088C13.7812 5.05212 13.5451 5.28823 13.2539 5.28823Z" fill="black"/>
</g>
<defs>
<clipPath id="clip0_35_63">
<rect width="18" height="18" fill="white"/>
</clipPath>
</defs>
</svg>
