<svg width="196" height="196" viewBox="0 0 196 196" fill="none" xmlns="http://www.w3.org/2000/svg">
<mask id="path-1-inside-1_35_42" fill="white">
<path d="M182.23 61.2895C185.129 60.0388 188.511 61.3706 189.59 64.3382C193.608 75.3888 195.604 87.0893 195.467 98.8782C195.307 112.576 192.269 126.086 186.551 138.534C180.833 150.982 172.562 162.089 162.275 171.134C151.988 180.18 139.915 186.962 126.838 191.04C113.761 195.119 99.9726 196.403 86.3673 194.81C72.7621 193.216 59.6437 188.781 47.8631 181.791C36.0825 174.801 25.9028 165.412 17.9844 154.235C11.1692 144.614 6.15998 133.854 3.18342 122.478C2.38406 119.423 4.40872 116.405 7.50512 115.786V115.786C10.6015 115.167 13.595 117.181 14.418 120.23C17.0652 130.036 21.4268 139.312 27.3154 147.624C34.3074 157.494 43.296 165.784 53.6983 171.956C64.1006 178.128 75.6841 182.045 87.6975 183.452C99.711 184.859 111.886 183.725 123.433 180.124C134.98 176.522 145.641 170.534 154.724 162.547C163.808 154.559 171.111 144.752 176.16 133.761C181.209 122.769 183.891 110.839 184.032 98.7446C184.151 88.5586 182.466 78.4473 179.069 68.8753C178.013 65.8994 179.33 62.5403 182.23 61.2895V61.2895Z"/>
</mask>
<path d="M182.23 61.2895C185.129 60.0388 188.511 61.3706 189.59 64.3382C193.608 75.3888 195.604 87.0893 195.467 98.8782C195.307 112.576 192.269 126.086 186.551 138.534C180.833 150.982 172.562 162.089 162.275 171.134C151.988 180.18 139.915 186.962 126.838 191.04C113.761 195.119 99.9726 196.403 86.3673 194.81C72.7621 193.216 59.6437 188.781 47.8631 181.791C36.0825 174.801 25.9028 165.412 17.9844 154.235C11.1692 144.614 6.15998 133.854 3.18342 122.478C2.38406 119.423 4.40872 116.405 7.50512 115.786V115.786C10.6015 115.167 13.595 117.181 14.418 120.23C17.0652 130.036 21.4268 139.312 27.3154 147.624C34.3074 157.494 43.296 165.784 53.6983 171.956C64.1006 178.128 75.6841 182.045 87.6975 183.452C99.711 184.859 111.886 183.725 123.433 180.124C134.98 176.522 145.641 170.534 154.724 162.547C163.808 154.559 171.111 144.752 176.16 133.761C181.209 122.769 183.891 110.839 184.032 98.7446C184.151 88.5586 182.466 78.4473 179.069 68.8753C178.013 65.8994 179.33 62.5403 182.23 61.2895V61.2895Z" stroke="#F2F5FC" stroke-width="22.7294" mask="url(#path-1-inside-1_35_42)"/>
<path d="M85.2783 6.47607C84.8578 3.39548 82.0146 1.2227 78.9633 1.81979C55.4991 6.41135 34.4567 19.4679 19.9137 38.6092C5.37076 57.7506 -1.56805 81.5226 0.297528 105.359C0.540128 108.459 3.39548 110.615 6.47607 110.195V110.195C9.55666 109.774 11.6937 106.935 11.4743 103.834C9.99809 82.9608 16.1429 62.1838 28.8789 45.4207C41.615 28.6576 59.9848 17.1688 80.4899 12.9964C83.5367 12.3764 85.6989 9.55666 85.2783 6.47607V6.47607Z" fill="#0F46B3"/>
<path d="M179.885 56.2723C182.704 54.8497 183.85 51.4016 182.265 48.671C173.845 34.1659 161.816 22.0416 147.306 13.5029C132.796 4.96433 116.356 0.335002 99.5876 0.0174947C96.431 -0.0422752 93.9731 2.63386 94.0979 5.78861V5.78861C94.2228 8.94335 96.8836 11.3797 100.04 11.464C114.615 11.853 128.888 15.9304 141.507 23.3566C154.127 30.7829 164.622 41.2808 172.039 53.8337C173.645 56.5518 177.067 57.695 179.885 56.2723V56.2723Z" fill="#F06E80"/>
</svg>
