<svg width="18" height="18" viewBox="0 0 18 18" fill="none" xmlns="http://www.w3.org/2000/svg">
<g clip-path="url(#clip0_35_76)">
<path d="M14.5424 6.70354C14.9236 6.81456 15.2731 7.01987 15.5616 7.30846C15.8753 7.62208 16.0908 8.0075 16.1935 8.42757C16.3322 8.39878 16.4685 8.35712 16.6014 8.30206C17.7547 7.82437 18.3043 6.49746 17.8266 5.34418C17.3489 4.19089 16.022 3.64127 14.8688 4.11897C14.7356 4.17413 14.6096 4.2412 14.4909 4.31907C14.9309 5.04732 14.948 5.96081 14.5424 6.70354Z" fill="black"/>
<path d="M11.2955 3.45808C12.0386 3.05196 12.9528 3.06898 13.6813 3.50941C13.7592 3.39076 13.8263 3.26469 13.8815 3.13152C14.3592 1.97824 13.8096 0.651324 12.6563 0.173594C12.0976 -0.0578354 11.4822 -0.0578706 10.9235 0.173524C10.3649 0.404918 9.92983 0.840039 9.6984 1.3988C9.64324 1.53194 9.60155 1.66852 9.57275 1.80749C10.3991 2.01132 11.0573 2.64563 11.2955 3.45808Z" fill="black"/>
<path d="M11.4549 7.98279C11.6229 8.38793 12.0884 8.58066 12.493 8.41307C12.8977 8.24544 13.0906 7.7798 12.9229 7.37508C12.7553 6.97036 12.2897 6.77749 11.885 6.94512C11.4803 7.11271 11.2875 7.57814 11.4549 7.98279Z" fill="black"/>
<path d="M13.3894 13.3895C13.6421 13.1369 13.7812 12.801 13.7812 12.4437C13.7812 12.143 13.6823 11.8576 13.5004 11.6241C13.1493 11.9765 12.6672 12.1744 12.1694 12.1697C12.174 12.6673 11.9762 13.1493 11.6241 13.5004C12.1484 13.9075 12.9081 13.8708 13.3894 13.3895Z" fill="black"/>
<path d="M13.5003 6.3759C13.9075 5.85166 13.8708 5.09188 13.3895 4.61053C12.9081 4.12921 12.1484 4.09255 11.6241 4.49965C11.9764 4.85075 12.1743 5.33284 12.1696 5.83057C12.6672 5.826 13.1492 6.02375 13.5003 6.3759Z" fill="black"/>
<path d="M11.885 11.0549C12.2896 11.2225 12.7553 11.0297 12.923 10.625C13.0906 10.2203 12.8977 9.75462 12.493 9.587C12.0883 9.41937 11.6227 9.61221 11.455 10.017C11.2874 10.4217 11.4802 10.8873 11.885 11.0549Z" fill="black"/>
<path d="M4.31865 3.50835C4.6882 3.28409 5.11299 3.1641 5.55634 3.16407C5.96442 3.16407 6.35672 3.26602 6.7048 3.45706C6.94333 2.64496 7.60158 2.01104 8.42781 1.80734C8.39902 1.66834 8.35729 1.53176 8.30213 1.39855C7.82437 0.245308 6.49745 -0.304315 5.34421 0.17338C4.19093 0.65111 3.6413 1.97799 4.119 3.13127C4.17402 3.26412 4.24095 3.38994 4.31865 3.50835Z" fill="black"/>
<path d="M17.8265 10.9236C17.5951 10.365 17.1599 9.92987 16.6012 9.69844C16.4683 9.64342 16.332 9.60176 16.1934 9.57297C16.0907 9.99283 15.8751 10.3781 15.5617 10.6915C15.3357 10.9174 15.0725 11.0926 14.7861 11.2113C14.7069 11.2441 14.6258 11.2721 14.5434 11.2962C14.7341 11.644 14.8359 12.0359 14.8358 12.4436C14.8358 12.8872 14.7157 13.3121 14.4913 13.6818C14.6097 13.7595 14.7355 13.8264 14.8684 13.8815C15.445 14.1203 16.0652 14.1022 16.6007 13.8805C17.1364 13.6586 17.5875 13.233 17.8263 12.6563C18.0578 12.0976 18.0578 11.4822 17.8265 10.9236Z" fill="black"/>
<path d="M13.681 14.4911C13.578 14.5533 13.4714 14.6073 13.3621 14.6527C12.6978 14.9278 11.9341 14.8909 11.2964 14.5427C11.1853 14.9238 10.9801 15.2732 10.6915 15.5617C10.4657 15.7876 10.2024 15.9628 9.91593 16.0815C9.8047 16.1275 9.68984 16.1648 9.57239 16.1936C9.60118 16.3323 9.64284 16.4686 9.69786 16.6014C10.1756 17.7547 11.5025 18.3044 12.6557 17.8267C13.809 17.349 14.3587 16.022 13.881 14.8688C13.8259 14.7357 13.7588 14.6097 13.681 14.4911Z" fill="black"/>
<path d="M6.70446 14.5421C6.6294 14.5831 6.5528 14.6202 6.47465 14.6526C5.77871 14.9409 4.97354 14.8867 4.31855 14.4907C4.24068 14.6093 4.17361 14.7353 4.11845 14.8685C3.64075 16.0218 4.19038 17.3487 5.34366 17.8264C5.90242 18.0578 6.51775 18.0579 7.07637 17.8265C7.635 17.5951 8.07012 17.1599 8.30151 16.6012C8.35667 16.4681 8.39836 16.3315 8.42716 16.1925C7.60086 15.9887 6.94268 15.3544 6.70446 14.5421Z" fill="black"/>
<path d="M1.39874 8.30159C1.53188 8.35675 1.66846 8.39844 1.80743 8.42727C2.01129 7.60094 2.64564 6.94275 3.45805 6.70454C3.0519 5.96145 3.06888 5.04727 3.50935 4.3187C3.3907 4.2408 3.26463 4.17368 3.13146 4.11852C1.97821 3.64087 0.651298 4.19045 0.173533 5.34373C-0.0578965 5.9025 -0.0579316 6.51783 0.173463 7.07645C0.404892 7.63504 0.840013 8.07016 1.39874 8.30159Z" fill="black"/>
<path d="M3.45649 11.2962C3.07568 11.1851 2.72659 10.9799 2.43827 10.6916C2.12465 10.3779 1.90911 9.99252 1.80642 9.57245C1.66773 9.60124 1.53144 9.6429 1.39855 9.69792C0.245231 10.1756 -0.304392 11.5025 0.173338 12.6558C0.651033 13.8091 1.97795 14.3587 3.13123 13.881C3.26408 13.826 3.3899 13.759 3.50831 13.6813C3.28405 13.3118 3.16403 12.887 3.16406 12.4436C3.16403 12.0359 3.26577 11.644 3.45649 11.2962Z" fill="black"/>
<path d="M10.6249 12.923C11.0296 12.7553 11.2225 12.2897 11.0548 11.885C10.8872 11.4802 10.4216 11.2874 10.0168 11.455C9.61213 11.6226 9.41926 12.0883 9.58692 12.493C9.75455 12.8977 10.2202 13.0906 10.6249 12.923Z" fill="black"/>
<path d="M2.7923 8.99998C2.7923 9.35726 2.93144 9.69314 3.18404 9.9458C3.39669 10.1584 3.66841 10.2903 3.96214 10.3268C3.96126 9.82937 4.16224 9.34848 4.51752 8.99984C4.16242 8.6512 3.96143 8.17055 3.96221 7.67331C3.3036 7.7561 2.79226 8.31929 2.7923 8.99998Z" fill="black"/>
<path d="M6.37583 13.5004C6.02353 13.1493 5.82564 12.6671 5.83035 12.1694C5.33269 12.174 4.85064 11.9762 4.49957 11.624C4.31768 11.8575 4.21875 12.1429 4.21875 12.4436C4.21875 12.8009 4.3579 13.1368 4.61052 13.3894C5.09184 13.8708 5.85155 13.9075 6.37583 13.5004Z" fill="black"/>
<path d="M4.61048 4.61052C4.12913 5.09184 4.09243 5.85155 4.4996 6.37583C4.8507 6.02353 5.33282 5.82564 5.83052 5.83035C5.82595 5.33269 6.02373 4.85064 6.37596 4.49957C6.14242 4.31768 5.85703 4.21875 5.55631 4.21875C5.19902 4.21879 4.86314 4.3579 4.61048 4.61052Z" fill="black"/>
<path d="M5.07702 7.37505C4.90939 7.77977 5.10226 8.24538 5.50694 8.41304C5.91159 8.58066 6.37713 8.38787 6.54482 7.98329C6.71248 7.57822 6.51962 7.11271 6.11497 6.94509C5.71028 6.77746 5.24464 6.97033 5.07702 7.37505Z" fill="black"/>
<path d="M6.54501 10.0169C6.37739 9.61219 5.91174 9.41932 5.50702 9.58698C5.1023 9.75461 4.90944 10.2203 5.0771 10.625C5.24472 11.0297 5.71037 11.2226 6.11508 11.0549C6.51977 10.8873 6.71264 10.4216 6.54501 10.0169Z" fill="black"/>
<path d="M10.3268 14.0378C9.82934 14.0387 9.34844 13.8377 8.99981 13.4824C8.65117 13.8375 8.17052 14.0385 7.67328 14.0377C7.75607 14.6964 8.31923 15.2076 8.99995 15.2076C9.3572 15.2077 9.69311 15.0685 9.94577 14.8159C10.1584 14.6033 10.2902 14.3315 10.3268 14.0378Z" fill="black"/>
<path d="M14.8159 9.94582C15.0685 9.69319 15.2076 9.35731 15.2076 9.00003C15.2076 8.64274 15.0685 8.30683 14.8159 8.0542C14.6033 7.84158 14.3315 7.70974 14.0378 7.67322C14.0387 8.17063 13.8377 8.65153 13.4824 9.00017C13.8376 9.34884 14.0385 9.82956 14.0378 10.3268C14.3315 10.2903 14.6033 10.1585 14.8159 9.94582Z" fill="black"/>
<path d="M10.4806 9.61329C10.6444 9.21779 10.6444 8.78218 10.4806 8.38668C10.3168 7.99118 10.0087 7.68318 9.61322 7.51935C8.79684 7.18115 7.85748 7.57029 7.51928 8.38668C7.18112 9.2031 7.57019 10.1424 8.38661 10.4806C9.2031 10.8188 10.1424 10.4297 10.4806 9.61329Z" fill="black"/>
<path d="M7.98308 6.54501C8.3878 6.37738 8.58067 5.91174 8.41301 5.50702C8.24538 5.10233 7.77974 4.90943 7.37502 5.07709C6.9703 5.24475 6.77743 5.71036 6.94506 6.11508C7.11272 6.51976 7.57836 6.71263 7.98308 6.54501Z" fill="black"/>
<path d="M7.37502 12.9229C7.77974 13.0906 8.24538 12.8977 8.41301 12.493C8.58063 12.0884 8.38783 11.6228 7.98283 11.455C7.57815 11.2875 7.11268 11.4803 6.94506 11.885C6.77743 12.2897 6.9703 12.7553 7.37502 12.9229Z" fill="black"/>
<path d="M10.0168 6.54496C10.4216 6.71262 10.8872 6.51972 11.0549 6.11503C11.2225 5.71032 11.0296 5.24471 10.6249 5.07705C10.2202 4.90942 9.75457 5.10229 9.58691 5.50697C9.41928 5.91169 9.61212 6.3773 10.0168 6.54496Z" fill="black"/>
<path d="M7.67328 3.96224C8.17059 3.96146 8.65131 4.16252 8.99998 4.51773C9.34862 4.16252 9.82937 3.9615 10.3267 3.96224C10.2439 3.3036 9.6807 2.79233 8.99998 2.79233C8.31912 2.79226 7.75604 3.3036 7.67328 3.96224Z" fill="black"/>
</g>
<defs>
<clipPath id="clip0_35_76">
<rect width="18" height="18" fill="white"/>
</clipPath>
</defs>
</svg>
