<svg width="25" height="25" viewBox="0 0 25 25" fill="none" xmlns="http://www.w3.org/2000/svg">
<g clip-path="url(#clip0_37_116)">
<path d="M24.0997 21.0586L14.3973 11.3562L3.06176 0.0205994H2.17587L1.99498 0.480238C1.51756 1.69344 1.31357 2.93428 1.40515 4.06847C1.50954 5.36132 2.00069 6.48062 2.82558 7.30551L11.6747 16.1547L12.8419 14.9875L21.023 24.1355C21.8368 24.9493 23.2376 24.9976 24.0997 24.1355C24.948 23.2871 24.948 21.9069 24.0997 21.0586Z" fill="#FECA1F"/>
<path d="M7.57419 14.105L0.643562 21.0357C-0.204674 21.8839 -0.204674 23.2642 0.643562 24.1124C1.44937 24.9182 2.84336 24.9894 3.7203 24.1124L10.651 17.1817L7.57419 14.105Z" fill="#FECA1F"/>
<path d="M23.6924 4.1405L19.761 8.07191L18.7353 7.04631L22.6668 3.11486L21.6412 2.08926L17.7098 6.02067L16.6842 4.99507L20.6156 1.06367L19.5901 0.0381165L14.4621 5.1661C13.8348 5.79344 13.4602 6.6264 13.4072 7.51166C13.3938 7.73594 13.343 7.95655 13.2587 8.16639L16.5898 11.4975C16.7996 11.4131 17.0203 11.3623 17.2445 11.3489C18.1298 11.2961 18.9628 10.9214 19.5901 10.2941L24.7181 5.16615L23.6924 4.1405Z" fill="#FECA1F"/>
</g>
<defs>
<clipPath id="clip0_37_116">
<rect width="24.7434" height="24.7434" fill="white" transform="translate(0 0.0205383)"/>
</clipPath>
</defs>
</svg>
