<svg width="40" height="40" viewBox="0 0 40 40" fill="none" xmlns="http://www.w3.org/2000/svg">
<g clip-path="url(#clip0_1868_3223)">
<path d="M21.2507 3.3425H27.3738C28.239 3.3425 28.9404 4.0439 28.9404 4.90906V38.4175C28.9404 39.2827 28.239 39.9841 27.3738 39.9841H2.40653C1.54129 39.9841 0.839966 39.2827 0.839966 38.4175V4.90914C0.839966 4.04391 1.54137 3.34258 2.40653 3.34258H8.52958" fill="#FFC600"/>
<path d="M27.3738 3.3425H25.9221C26.7873 3.3425 27.4887 4.0439 27.4887 4.90906V38.4175C27.4887 39.2827 26.7873 39.9841 25.9221 39.9841H27.3738C28.239 39.9841 28.9403 39.2827 28.9403 38.4175V4.90914C28.9403 4.04391 28.2389 3.3425 27.3738 3.3425Z" fill="#D3A505"/>
<path d="M26.073 6.64664V36.68C26.073 36.9027 25.8925 37.0832 25.6698 37.0832H4.11036C3.88762 37.0832 3.70715 36.9027 3.70715 36.68V6.64664C3.70715 6.42391 3.8877 6.24344 4.11036 6.24344H25.6697C25.8925 6.24344 26.073 6.42399 26.073 6.64664Z" fill="white"/>
<path d="M24.6215 6.24344V37.0833H25.6698C25.8925 37.0833 26.073 36.9027 26.073 36.6801V6.64664C26.073 6.42391 25.8925 6.24344 25.6698 6.24344H24.6215Z" fill="#E8E8E8"/>
<path d="M20.6892 2.31344H18.0826V0.818984C18.0826 0.366641 17.7159 0 17.2636 0H13.4575C13.0052 0 12.6386 0.366641 12.6386 0.818984V2.31344H10.032C9.46203 2.31344 9 2.77547 9 3.34539V6.18563C9 6.75555 9.46203 7.21758 10.032 7.21758H13.4576H17.2637H20.6892C21.2591 7.21758 21.7212 6.75555 21.7212 6.18563V3.34531C21.7212 2.77539 21.2591 2.31344 20.6892 2.31344Z" fill="#F06E80"/>
<path d="M16.1604 0.818984V2.31344H17.6121V0.818984C17.6121 0.366641 17.2454 0 16.7931 0H15.3414C15.7938 0 16.1604 0.366641 16.1604 0.818984Z" fill="#F9425C"/>
<path d="M20.2187 2.31345H18.7671C19.337 2.31345 19.799 2.77548 19.799 3.3454V6.18563C19.799 6.75556 19.337 7.21759 18.7671 7.21759H20.2187C20.7887 7.21759 21.2507 6.75556 21.2507 6.18563V3.34532C21.2507 2.7754 20.7887 2.31345 20.2187 2.31345Z" fill="#F9425C"/>
<path d="M23.0158 11.5491H12.8307C12.496 11.5491 12.2247 11.8204 12.2247 12.1551C12.2247 12.4898 12.496 12.7611 12.8307 12.7611H23.0158C23.3505 12.7611 23.6218 12.4898 23.6218 12.1551C23.6218 11.8204 23.3505 11.5491 23.0158 11.5491Z" fill="#0F46B3"/>
<path d="M12.8307 14.9357H18.5553C18.89 14.9357 19.1613 14.6644 19.1613 14.3297C19.1613 13.995 18.89 13.7237 18.5553 13.7237H12.8307C12.496 13.7237 12.2247 13.995 12.2247 14.3297C12.2247 14.6644 12.496 14.9357 12.8307 14.9357Z" fill="#0F46B3"/>
<path d="M9.78061 11.3017L7.5499 13.5891L6.5849 12.6506C6.34506 12.4172 5.96131 12.4227 5.72795 12.6626C5.49459 12.9025 5.49998 13.2863 5.73998 13.5195L7.13881 14.8799C7.37529 15.1099 7.7649 15.1045 7.99514 14.8685L10.6483 12.1479C10.882 11.9083 10.8772 11.5246 10.6376 11.2909C10.3977 11.0572 10.0142 11.0622 9.78061 11.3017Z" fill="#40D4AF"/>
<path d="M23.0159 17.7212H12.8309C12.4961 17.7212 12.2249 17.9925 12.2249 18.3272C12.2249 18.6619 12.4961 18.9332 12.8309 18.9332H23.0159C23.3506 18.9332 23.622 18.6619 23.622 18.3272C23.622 17.9925 23.3506 17.7212 23.0159 17.7212Z" fill="#0F46B3"/>
<path d="M20.0725 25.0953H12.8447C12.5106 25.0953 12.2399 24.8245 12.2399 24.4905C12.2399 24.1564 12.5106 23.8856 12.8447 23.8856H20.0725C20.4066 23.8856 20.6774 24.1564 20.6774 24.4905C20.6774 24.8245 20.4067 25.0953 20.0725 25.0953Z" fill="#0F46B3"/>
<path d="M19.4797 27.2656H12.8448C12.5108 27.2656 12.24 26.9948 12.24 26.6608C12.24 26.3267 12.5108 26.0559 12.8448 26.0559H19.4797C19.8137 26.0559 20.0845 26.3267 20.0845 26.6608C20.0845 26.9948 19.8137 27.2656 19.4797 27.2656Z" fill="#0F46B3"/>
<path d="M19.8282 31.2554H12.8447C12.5106 31.2554 12.2399 30.9846 12.2399 30.6505C12.2399 30.3165 12.5106 30.0457 12.8447 30.0457H19.8282C20.1623 30.0457 20.4331 30.3165 20.4331 30.6505C20.4331 30.9846 20.1624 31.2554 19.8282 31.2554Z" fill="#0F46B3"/>
<path d="M20.4119 33.4257H12.8447C12.5106 33.4257 12.2399 33.1549 12.2399 32.8208C12.2399 32.4868 12.5106 32.216 12.8447 32.216H20.4119C20.746 32.216 21.0167 32.4868 21.0167 32.8208C21.0167 33.1549 20.746 33.4257 20.4119 33.4257Z" fill="#0F46B3"/>
<path d="M18.5553 19.8957H12.8307C12.496 19.8957 12.2247 20.167 12.2247 20.5017C12.2247 20.8364 12.496 21.1077 12.8307 21.1077H18.5553C18.89 21.1077 19.1613 20.8364 19.1613 20.5017C19.1614 20.167 18.89 19.8957 18.5553 19.8957Z" fill="#0F46B3"/>
<path d="M9.78061 17.4738L7.5499 19.7611L6.5849 18.8227C6.3449 18.5893 5.96131 18.5949 5.72795 18.8348C5.49459 19.0747 5.49998 19.4584 5.73998 19.6917L7.13881 21.052C7.37529 21.2821 7.7649 21.2767 7.99514 21.0406L10.6483 18.3201C10.882 18.0805 10.8772 17.6968 10.6376 17.4631C10.3979 17.2292 10.0142 17.2342 9.78061 17.4738Z" fill="#40D4AF"/>
<path d="M9.78061 23.6459L7.5499 25.9332L6.5849 24.9948C6.34506 24.7615 5.96131 24.767 5.72795 25.0069C5.49459 25.2468 5.49998 25.6305 5.73998 25.8638L7.13881 27.2241C7.37529 27.4541 7.7649 27.4488 7.99514 27.2127L10.6483 24.4922C10.882 24.2526 10.8772 23.8689 10.6376 23.6352C10.3979 23.4014 10.0142 23.4063 9.78061 23.6459Z" fill="#40D4AF"/>
<path d="M9.78061 29.8179L7.5499 32.1052L6.5849 31.1668C6.34506 30.9334 5.96131 30.9389 5.72795 31.1787C5.49459 31.4187 5.49998 31.8024 5.73998 32.0358L7.13881 33.3961C7.37529 33.6262 7.7649 33.6208 7.99514 33.3848L10.6483 30.6642C10.882 30.4246 10.8772 30.0409 10.6376 29.8073C10.3979 29.5733 10.0142 29.5783 9.78061 29.8179Z" fill="#40D4AF"/>
<path d="M28.9403 20.0646C34.3261 20.0646 39.4897 22.3377 39.1436 27.8987C38.6018 36.6031 32.5521 42.6092 28.9403 38.8663C25.3285 42.6092 19.2789 36.6031 18.7371 27.8987C18.391 22.3378 23.5546 20.0646 28.9403 20.0646Z" fill="#F06E80"/>
<path d="M28.9403 20.0646C28.6977 20.0646 28.4556 20.0694 28.2145 20.0787C33.3283 20.2762 38.0224 22.5882 37.692 27.8986C37.2937 34.2982 33.9181 39.2389 30.7231 39.9194C34.2596 40.7251 38.6839 35.2837 39.1436 27.8986C39.4896 22.3378 34.326 20.0646 28.9403 20.0646Z" fill="#D64E61"/>
<path d="M33.7838 20.728C32.0631 22.4488 28.9069 22.0827 28.9069 22.0827C28.9069 22.0827 28.5408 18.9266 30.2616 17.2057C31.6287 15.8386 33.9017 15.7887 34.7784 15.8259C34.9876 15.8348 35.1547 16.0019 35.1636 16.2111C35.2009 17.0878 35.151 19.3609 33.7838 20.728Z" fill="#9AFFE6"/>
<path d="M34.7766 15.8259C34.6433 15.8202 34.4779 15.8167 34.2886 15.8194C34.2811 16.8674 34.0844 18.7285 32.9014 19.9115C31.7426 21.0703 29.933 21.2827 28.8745 21.2978C28.8711 21.7743 28.9069 22.0827 28.9069 22.0827C28.9069 22.0827 32.063 22.4488 33.7839 20.728C35.151 19.3609 35.2009 17.0878 35.1637 16.2112C35.1548 16.0013 34.9864 15.8347 34.7766 15.8259Z" fill="#40D4AF"/>
<path d="M28.9412 24.3263C28.9139 24.3263 28.8863 24.3244 28.8587 24.3206C28.5281 24.2756 28.2966 23.9714 28.3409 23.641C28.3434 23.6211 28.4768 22.5388 28.1229 21.1983C27.6562 19.4305 26.5983 18.0568 24.9783 17.1155C24.6894 16.9477 24.5914 16.5774 24.7593 16.2886C24.927 15.9997 25.2971 15.9016 25.5862 16.0695C27.9833 17.4624 28.9322 19.4875 29.3061 20.9411C29.7092 22.5085 29.5469 23.7509 29.5398 23.8031C29.4983 24.1063 29.2388 24.3263 28.9412 24.3263Z" fill="#40D4AF"/>
<path d="M28.9402 24.3262C27.0654 24.3262 25.8093 23.3504 25.7568 23.3088C25.4947 23.1017 25.4502 22.7213 25.6573 22.4593C25.8644 22.1972 26.2448 22.1528 26.5069 22.3598C26.5144 22.3656 27.5008 23.1165 28.9402 23.1165C30.3798 23.1165 31.3662 22.3656 31.3759 22.358C31.6392 22.1541 32.019 22.2005 32.2238 22.4626C32.429 22.7247 32.3848 23.1024 32.1237 23.3088C32.0712 23.3505 30.8151 24.3262 28.9402 24.3262Z" fill="#D64E61"/>
</g>
<defs>
<clipPath id="clip0_1868_3223">
<rect width="40" height="40" fill="white"/>
</clipPath>
</defs>
</svg>
