<svg width="18" height="18" viewBox="0 0 18 18" fill="none" xmlns="http://www.w3.org/2000/svg">
<path d="M16.0425 7.59938C15.5161 6.66701 14.7707 5.87682 13.8705 5.29712C12.9703 4.71741 11.9425 4.36561 10.876 4.27213C9.60017 4.11034 8.42617 3.49189 7.57123 2.53123C5.87905 0.701853 3.02954 0.527601 1.91529 2.86599C0.1856 6.43501 1.78591 10.44 1.85623 10.6088C4.44279 16.5785 8.58551 17.058 11.2302 16.7908C16.4313 15.8006 18.0604 11.3925 16.0425 7.59938ZM15.6431 11.52C15.5489 12.0961 15.3363 12.6465 15.0187 13.1364C14.7012 13.6263 14.2856 14.045 13.7981 14.3663C13.765 14.3872 13.7278 14.4008 13.689 14.4061C13.6501 14.4114 13.6106 14.4084 13.5731 14.3972C13.5355 14.3862 13.5006 14.3676 13.4706 14.3424C13.4405 14.3172 13.4161 14.2861 13.3987 14.251L12.3412 12.06C12.3182 12.0117 12.3091 11.9579 12.3151 11.9047C12.321 11.8515 12.3418 11.8011 12.375 11.7591C12.5411 11.5534 12.6531 11.3095 12.7007 11.0494C12.7483 10.7894 12.73 10.5216 12.6475 10.2705C12.565 10.0193 12.4209 9.79284 12.2283 9.61169C12.0358 9.43055 11.801 9.30051 11.5453 9.23345C11.4946 9.22311 11.4478 9.19874 11.4103 9.16313C11.3557 9.10861 11.3244 9.03498 11.3231 8.95782L11.2275 5.98219C11.2265 5.94064 11.2347 5.89937 11.2515 5.86136C11.2683 5.82335 11.2934 5.78954 11.3249 5.76238C11.3563 5.73521 11.3934 5.71536 11.4335 5.70425C11.4735 5.69314 11.5156 5.69105 11.5565 5.69813C12.3151 5.8743 13.0276 6.20928 13.6472 6.68099C14.2667 7.1527 14.7793 7.75041 15.1509 8.43469C15.6712 9.37375 15.8454 10.4657 15.6431 11.52ZM3.96841 12.2203C1.56556 8.88406 1.90387 3.85489 3.36365 2.66059C4.65466 1.63688 6.21279 2.79563 6.86529 3.56063C7.71784 4.38225 8.75592 4.98619 9.89154 5.32126C10.1806 5.40222 10.436 5.57378 10.6203 5.81071C10.8046 6.04764 10.908 6.33744 10.9153 6.63751C10.9146 6.65131 10.9898 8.94295 10.9884 8.95497C10.9869 9.01719 10.9649 9.07715 10.9257 9.1255C10.8865 9.17385 10.8324 9.20785 10.7719 9.22219C10.425 9.30514 10.1164 9.50274 9.89588 9.78297C9.67537 10.0632 9.55591 10.4097 9.55685 10.7663C9.5125 11.0604 9.80444 11.4011 9.55688 11.6044C8.23779 12.6338 6.62341 12.8419 5.54622 12.8419C4.93156 12.87 4.3274 12.7578 3.96841 12.2203ZM11.1403 9.44438C12.8875 9.49862 12.8871 12.0342 11.1403 12.0881C9.39699 12.0331 9.39738 9.49917 11.1403 9.44438ZM6.28591 13.8825C6.30964 13.6971 6.38857 13.5232 6.51246 13.3832C6.63635 13.2433 6.79946 13.1438 6.9806 13.0978C8.54065 12.6972 9.27438 12.1374 9.5906 11.8378C9.61812 11.8123 9.65045 11.7926 9.68569 11.7798C9.72094 11.767 9.75838 11.7613 9.79584 11.7631C9.8333 11.765 9.87001 11.7743 9.90383 11.7905C9.93766 11.8067 9.9679 11.8295 9.9928 11.8575C10.1407 12.0133 10.3186 12.1375 10.5158 12.2226C10.7131 12.3077 10.9255 12.3519 11.1403 12.3525C11.4104 12.3471 11.6757 12.2808 11.9166 12.1584C11.98 12.1435 12.0466 12.1511 12.105 12.1798C12.1635 12.2085 12.2102 12.2566 12.2372 12.3159L13.0078 14.0344C13.0574 14.1462 13.0844 14.2668 13.0873 14.3891C13.0901 14.5114 13.0686 14.6331 13.0242 14.7471C12.9797 14.8611 12.9131 14.9652 12.8283 15.0533C12.7434 15.1414 12.6419 15.2119 12.5297 15.2606C10.6487 16.125 8.24164 15.7095 6.74998 14.8021C6.58808 14.7144 6.45687 14.5794 6.37393 14.415C6.29098 14.2506 6.26027 14.0648 6.28591 13.8825Z" fill="black"/>
<path d="M12.4987 14.5519C12.5173 14.5057 12.5264 14.4562 12.5254 14.4065C12.5244 14.3567 12.5134 14.3076 12.4931 14.2622L11.8378 12.7969C11.6137 12.8756 11.3778 12.9156 11.1403 12.915C10.6433 12.9132 10.1623 12.7392 9.77901 12.4228C8.99175 13.0171 8.08497 13.4335 7.1212 13.6434C7.04945 13.6593 6.98424 13.6967 6.93428 13.7505C6.88432 13.8044 6.85198 13.8723 6.84158 13.945C6.83119 14.0178 6.84323 14.0919 6.8761 14.1577C6.90897 14.2234 6.96111 14.2775 7.02555 14.3128C8.25182 14.9991 10.1671 15.6319 12.3159 14.7403C12.3578 14.7233 12.3956 14.6978 12.4271 14.6653C12.4586 14.6329 12.4829 14.5942 12.4987 14.5519Z" fill="black"/>
<path d="M11.8012 6.345L11.88 8.74969C12.1862 8.86193 12.4628 9.04242 12.6889 9.27746C12.915 9.51251 13.0846 9.79594 13.1849 10.1063C13.2852 10.4166 13.3135 10.7457 13.2677 11.0686C13.2219 11.3915 13.1032 11.6998 12.9206 11.97L13.7615 13.7109C14.4687 13.1303 14.9414 12.3129 15.0918 11.4103C15.6236 8.92592 13.4462 6.79399 11.8012 6.345Z" fill="black"/>
<path d="M9.05622 11.2725C8.93086 10.757 9.00088 10.2133 9.25278 9.74639C9.50468 9.27946 9.92061 8.92239 10.4203 8.74408L10.3528 6.65439C10.3484 6.47372 10.2861 6.29923 10.1753 6.15649C10.0645 6.01376 9.91079 5.91029 9.73685 5.86126C8.50951 5.49976 7.38747 4.84757 6.46591 3.96001C6.46006 3.95192 6.45347 3.94438 6.44622 3.93751C6.42935 3.91783 4.9106 2.15158 3.71247 3.1022C3.42783 3.33838 3.22668 3.65982 3.13872 4.01908C2.78154 5.31845 2.19091 8.69064 4.42966 11.8969C4.50279 12.0037 4.59933 12.0924 4.71191 12.1562C4.8245 12.2201 4.95016 12.2574 5.07935 12.2653C5.98779 12.3188 7.68654 12.2597 9.05622 11.2725Z" fill="black"/>
<path d="M11.1403 11.5256C11.3402 11.5233 11.5311 11.4423 11.6716 11.3001C11.8122 11.158 11.891 10.9661 11.891 10.7662C11.891 10.5664 11.8121 10.3745 11.6716 10.2324C11.5311 10.0902 11.3402 10.0092 11.1403 10.0069C10.9404 10.0092 10.7495 10.0902 10.609 10.2324C10.4685 10.3745 10.3896 10.5664 10.3896 10.7663C10.3897 10.9662 10.4685 11.158 10.609 11.3002C10.7495 11.4423 10.9404 11.5233 11.1403 11.5256Z" fill="black"/>
</svg>
