<svg width="40" height="40" viewBox="0 0 40 40" fill="none" xmlns="http://www.w3.org/2000/svg">
<g clip-path="url(#clip0_1317_926)">
<path d="M35.3694 39.0186H4.63054C2.07312 39.0186 0 36.9454 0 34.3881V5.61201C0 3.05467 2.07312 0.981476 4.63054 0.981476H35.3695C37.9268 0.981476 40 3.0546 40 5.61201V34.3881C39.9999 36.9454 37.9268 39.0186 35.3694 39.0186Z" fill="#FFC500"/>
<path d="M0 22.3812V34.388C0 36.9454 2.07312 39.0186 4.63054 39.0186H35.3695C37.9268 39.0186 40 36.9455 40 34.388V22.3812H0Z" fill="#EBB500"/>
<path d="M25.634 11.0929H14.3659C13.723 11.0929 13.2018 10.5717 13.2018 9.92873V5.49593C13.2018 4.85304 13.723 4.33179 14.3659 4.33179H25.6339C26.2768 4.33179 26.7981 4.85296 26.7981 5.49593V9.92873C26.7981 10.5717 26.2769 11.0929 25.634 11.0929Z" fill="white"/>
<path d="M24.3468 11.0929C24.3468 8.69226 22.4007 6.74609 20 6.74609C17.5993 6.74609 15.6532 8.69218 15.6532 11.0929H24.3468Z" fill="#7FDBD5"/>
<path d="M19.9994 11.6789C19.8975 11.6789 19.7942 11.6523 19.7003 11.5964C19.4222 11.4309 19.331 11.0713 19.4964 10.7933L21.9784 6.62242C22.1439 6.34422 22.5033 6.25297 22.7816 6.41852C23.0597 6.58399 23.151 6.94359 22.9855 7.22164L20.5035 11.3925C20.3939 11.5767 20.1992 11.6789 19.9994 11.6789Z" fill="#F06E80"/>
<path d="M25.6341 11.6788H14.366C13.401 11.6788 12.616 10.8937 12.616 9.9288V5.49608C12.616 4.531 13.401 3.746 14.366 3.746H25.634C26.599 3.746 27.384 4.53108 27.384 5.49608V9.9288C27.3841 10.8936 26.599 11.6788 25.6341 11.6788ZM14.366 4.9178C14.0471 4.9178 13.7878 5.17717 13.7878 5.496V9.92872C13.7878 10.2476 14.0472 10.5068 14.366 10.5068H25.634C25.9528 10.5068 26.2121 10.2476 26.2121 9.92872V5.49608C26.2121 5.17725 25.9527 4.91787 25.634 4.91787L14.366 4.9178Z" fill="#0F46B3"/>
<path d="M10.219 34.1835C7.54459 31.4356 4.80287 26.6309 5.76311 19.4375C6.09271 16.9685 7.88966 14.6877 10.5129 14.6877C13.1362 14.6877 14.9218 16.6121 15.2628 19.4375C15.5329 21.6761 14.9622 23.1766 14.5007 25.1161C13.8631 27.795 15.5004 29.5997 15.5004 31.9958C15.5004 33.7045 14.1153 35.0895 12.4067 35.0895C11.5523 35.0896 10.7789 34.7433 10.219 34.1835Z" fill="#F0F0F0"/>
<path opacity="0.1" d="M12.4066 33.9178C11.8956 33.9178 11.4151 33.7197 11.0527 33.3599C9.58061 31.8456 8.46186 30.0667 7.7278 28.0727C6.78546 25.513 6.51523 22.6599 6.92476 19.5926C7.17233 17.7376 8.48444 15.8596 10.513 15.8596C12.4777 15.8596 13.8184 17.2496 14.0994 19.5779C14.2951 21.2 13.9957 22.3588 13.6167 23.8259C13.5323 24.1524 13.4451 24.4899 13.3607 24.8448C12.9137 26.7231 13.3916 28.228 13.8133 29.5558C14.0783 30.3903 14.3286 31.1785 14.3286 31.9959C14.3285 33.0556 13.4664 33.9178 12.4066 33.9178Z" fill="#0F46B3"/>
<path d="M29.7808 34.1835C32.4553 31.4356 35.197 26.6309 34.2367 19.4375C33.9071 16.9685 32.1101 14.6877 29.4868 14.6877C26.8636 14.6877 25.078 16.6121 24.7371 19.4375C24.4669 21.6761 25.0376 23.1766 25.4992 25.1161C26.1368 27.795 24.4995 29.5997 24.4995 31.9958C24.4995 33.7045 25.8846 35.0895 27.5933 35.0895C28.4476 35.0896 29.221 34.7433 29.7808 34.1835Z" fill="#F0F0F0"/>
<path opacity="0.1" d="M27.5933 33.9178C26.5336 33.9178 25.6714 33.0556 25.6714 31.9959C25.6714 31.1785 25.9217 30.3903 26.1867 29.5558C26.6084 28.228 27.0863 26.7231 26.6393 24.8449C26.5547 24.4899 26.4676 24.1524 26.3833 23.8259C26.0042 22.3588 25.7048 21.2 25.9006 19.5779C26.1815 17.2496 27.5222 15.8596 29.487 15.8596C31.5155 15.8596 32.8276 17.7376 33.0752 19.5926C33.4847 22.6599 33.2145 25.513 32.2722 28.0727C31.5381 30.0666 30.4193 31.8456 28.9472 33.3599C28.5847 33.7196 28.1042 33.9178 27.5933 33.9178Z" fill="#0F46B3"/>
<path d="M0 32.416V34.388C0 36.9454 2.07312 39.0186 4.63054 39.0186H6.60257C6.60249 35.3721 3.64648 32.416 0 32.416Z" fill="#0F46B3"/>
<path d="M39.9999 32.416V34.388C39.9999 36.9454 37.9268 39.0186 35.3694 39.0186H33.3973C33.3974 35.3721 36.3534 32.416 39.9999 32.416Z" fill="#0F46B3"/>
<path d="M8.93034 6.88125C9.59476 6.88125 10.1334 6.34263 10.1334 5.6782C10.1334 5.01378 9.59476 4.47516 8.93034 4.47516C8.26592 4.47516 7.72729 5.01378 7.72729 5.6782C7.72729 6.34263 8.26592 6.88125 8.93034 6.88125Z" fill="#0F46B3"/>
<path d="M4.44181 6.88125C5.10624 6.88125 5.64486 6.34263 5.64486 5.6782C5.64486 5.01378 5.10624 4.47516 4.44181 4.47516C3.77739 4.47516 3.23877 5.01378 3.23877 5.6782C3.23877 6.34263 3.77739 6.88125 4.44181 6.88125Z" fill="#0F46B3"/>
<path d="M8.93034 10.9945C9.59476 10.9945 10.1334 10.4559 10.1334 9.79148C10.1334 9.12706 9.59476 8.58844 8.93034 8.58844C8.26592 8.58844 7.72729 9.12706 7.72729 9.79148C7.72729 10.4559 8.26592 10.9945 8.93034 10.9945Z" fill="#0F46B3"/>
<path d="M4.44181 10.9945C5.10624 10.9945 5.64486 10.4559 5.64486 9.79148C5.64486 9.12706 5.10624 8.58844 4.44181 8.58844C3.77739 8.58844 3.23877 9.12706 3.23877 9.79148C3.23877 10.4559 3.77739 10.9945 4.44181 10.9945Z" fill="#0F46B3"/>
<path d="M31.0694 6.88125C31.7338 6.88125 32.2724 6.34263 32.2724 5.6782C32.2724 5.01378 31.7338 4.47516 31.0694 4.47516C30.405 4.47516 29.8663 5.01378 29.8663 5.6782C29.8663 6.34263 30.405 6.88125 31.0694 6.88125Z" fill="#0F46B3"/>
<path d="M35.5577 6.88125C36.2221 6.88125 36.7607 6.34263 36.7607 5.6782C36.7607 5.01378 36.2221 4.47516 35.5577 4.47516C34.8932 4.47516 34.3546 5.01378 34.3546 5.6782C34.3546 6.34263 34.8932 6.88125 35.5577 6.88125Z" fill="#0F46B3"/>
<path d="M31.0694 10.9945C31.7338 10.9945 32.2724 10.4559 32.2724 9.79148C32.2724 9.12706 31.7338 8.58844 31.0694 8.58844C30.405 8.58844 29.8663 9.12706 29.8663 9.79148C29.8663 10.4559 30.405 10.9945 31.0694 10.9945Z" fill="#0F46B3"/>
<path d="M35.5577 10.9945C36.2221 10.9945 36.7607 10.4559 36.7607 9.79148C36.7607 9.12706 36.2221 8.58844 35.5577 8.58844C34.8932 8.58844 34.3546 9.12706 34.3546 9.79148C34.3546 10.4559 34.8932 10.9945 35.5577 10.9945Z" fill="#0F46B3"/>
</g>
<defs>
<clipPath id="clip0_1317_926">
<rect width="40" height="40" fill="white"/>
</clipPath>
</defs>
</svg>
