<svg width="40" height="40" viewBox="0 0 40 40" fill="none" xmlns="http://www.w3.org/2000/svg">
<g clip-path="url(#clip0_2579_8697)">
<path d="M39.1472 21.6552H38.2943H37.2704H36.3322H34.4157H33.4775H31.788C31.3171 21.6552 30.9352 22.0369 30.9352 22.508V25.4837H30.0968C29.7137 25.4837 29.3777 25.739 29.2751 26.108L29.2247 26.2891C29.1712 26.4825 29.1215 26.6554 29.0736 26.8153L29.0476 26.9008C28.9875 27.0991 28.9323 27.2751 28.8803 27.4345L28.8539 27.5144C28.7988 27.6812 28.7424 27.8472 28.6855 28.0102L27.7227 30.0798H29.1472H33.1384H39.1473C39.6184 30.0798 40.0002 29.698 40.0002 29.2269V22.5084C40.0001 22.037 39.6183 21.6552 39.1472 21.6552Z" fill="#FECA1F"/>
<path opacity="0.19" d="M31.788 21.6552C31.3171 21.6552 30.9352 22.0369 30.9352 22.508V25.4837H30.0968C29.7137 25.4837 29.3777 25.739 29.2751 26.108L29.2247 26.2891C29.1712 26.4825 29.1215 26.6554 29.0736 26.8153L29.0476 26.9008C28.9875 27.0991 28.9323 27.2751 28.8803 27.4345L28.8539 27.5144C28.7988 27.6812 28.7424 27.8472 28.6855 28.0102L27.7227 30.0798H29.1472H29.8326C30.0878 29.4155 30.325 28.7241 30.534 28.014H32.2146C32.6856 28.014 33.0675 27.6322 33.0675 27.1611V21.6553H31.7882V21.6552H31.788Z" fill="#202121"/>
<path d="M27.9511 14.1535C27.8529 14.0081 25.8969 11.1759 22.7413 11.1759C22.0675 11.1759 21.3811 11.3067 20.701 11.5644C17.7745 12.6742 16.5654 12.7941 16.1815 12.7941C16.1208 12.7941 16.0813 12.7912 16.0558 12.7884L15.9603 12.7782L15.8617 12.7887C15.6981 12.8066 14.6107 12.8505 11.2197 11.5644C10.5397 11.3068 9.85323 11.1759 9.17932 11.1759C6.02706 11.1759 4.10541 13.9511 3.96979 14.1532C1.36768 17.7158 1.66065 22.1716 2.36518 25.2829C3.20823 29.0055 4.95581 32.3988 6.31034 34.3332C7.66627 36.269 9.18026 37.2506 10.8107 37.2506C11.7616 37.2506 12.5099 36.895 12.8713 36.683C13.5397 36.291 14.885 36.0523 15.5224 35.978H16.3985C17.0349 36.0521 18.3814 36.291 19.0497 36.6833C19.4112 36.8951 20.1595 37.2506 21.1102 37.2506C22.7405 37.2506 24.2547 36.269 25.6104 34.3332C26.9649 32.3989 28.7124 29.0057 29.5556 25.2829C30.2599 22.1719 30.5532 17.7173 27.9511 14.1535Z" fill="#F06E80"/>
<g opacity="0.19">
<path d="M9.06174 34.3333C7.70729 32.3987 5.95963 29.0056 5.11659 25.283C4.41206 22.1716 4.11916 17.7158 6.72127 14.1533C6.83596 13.9825 8.22674 11.9734 10.5582 11.3558C10.0967 11.2371 9.63526 11.1761 9.17932 11.1761C6.02706 11.1761 4.10541 13.9512 3.96979 14.1534C1.36768 17.7159 1.66065 22.1718 2.36518 25.283C3.20823 29.0057 4.95581 32.399 6.31034 34.3334C7.66627 36.2691 9.18026 37.2508 10.8107 37.2508C11.341 37.2508 11.808 37.1402 12.1804 37.0055C11.0708 36.6039 10.0262 35.7104 9.06174 34.3333Z" fill="#202121"/>
</g>
<path d="M26.6631 3.60874C26.6603 3.25593 26.4101 2.95358 26.0641 2.88483L25.9385 2.85983C25.5705 2.78639 25.1879 2.74921 24.8014 2.74921C23.2687 2.74921 21.7311 3.3228 20.4715 4.36436C18.8892 5.67303 17.9533 7.57483 17.9679 9.45194L17.969 9.58053C17.9718 9.93319 18.2218 10.2354 18.5676 10.3043L18.694 10.3294C19.0619 10.4027 19.4443 10.4399 19.8306 10.4401H19.8308C21.3636 10.4401 22.9013 9.86632 24.1604 8.8246C25.7429 7.51608 26.6789 5.61428 26.6643 3.73733L26.6631 3.60874Z" fill="#6CCFAE"/>
<path opacity="0.19" d="M19.3575 10.0233L19.3565 9.90858C19.3435 8.23304 20.179 6.53554 21.5913 5.36733C22.7155 4.43772 24.088 3.92561 25.4559 3.92561C25.8009 3.92561 26.1424 3.95897 26.4708 4.02436L26.583 4.04671C26.6083 4.05171 26.6326 4.05874 26.6567 4.06632C26.6622 3.95655 26.665 3.84694 26.6641 3.73733L26.6631 3.60874C26.6603 3.25593 26.4101 2.95358 26.0641 2.88483L25.9385 2.85983C25.5705 2.78639 25.1879 2.74921 24.8014 2.74921C23.2687 2.74921 21.7311 3.3228 20.4715 4.36436C18.8892 5.67303 17.9533 7.57483 17.9679 9.45194L17.969 9.58053C17.9718 9.93319 18.2218 10.2354 18.5676 10.3043L18.694 10.3294C18.9568 10.3817 19.2276 10.4151 19.5014 10.4301C19.4121 10.3174 19.3588 10.1758 19.3575 10.0233Z" fill="#202121"/>
<path d="M15.7257 11.1955C15.4449 11.1955 15.2032 10.9842 15.1717 10.6988C14.8996 8.24008 13.6974 5.3093 9.51557 5.3093C9.20744 5.3093 8.95752 5.05938 8.95752 4.75126C8.95752 4.44298 9.20744 4.19305 9.51557 4.19305C11.8269 4.19305 13.6019 4.9818 14.7912 6.53743C15.7992 7.85571 16.1578 9.46118 16.2811 10.5759C16.315 10.8823 16.0942 11.1581 15.7878 11.192C15.7668 11.1943 15.7462 11.1955 15.7257 11.1955Z" fill="white"/>
<path d="M30.8499 17.8268H29.0584H28.1202H26.2037H25.2655H23.3492H22.411H20.4945H19.5563H17.6398H16.7016H14.7853H13.8471H11.9306H10.9924H9.07617H8.13797H6.22164H5.28352H3.36719H2.42898H0.852891C0.381953 17.8268 0 18.2086 0 18.6797V25.9101C0 26.381 0.381953 26.763 0.852891 26.763H2.42898H3.36719H5.28352H6.22172H8.1382H9.07641H10.9927H11.9309H13.8474H14.7856H16.702H17.6402H19.5566H20.4948H22.4113H23.3495H25.2659H26.2041H28.1205H29.0588H30.8503C31.3213 26.763 31.7032 26.381 31.7032 25.9101V18.6797C31.7027 18.2085 31.3209 17.8268 30.8499 17.8268Z" fill="#FECA1F"/>
<path opacity="0.19" d="M1.64898 20.3286C1.64898 19.8576 2.03078 19.4757 2.50187 19.4757H4.07789H5.01609H6.9325H7.8707H9.78711H10.7253H12.6417H13.5799H15.4964H16.4346H18.3509H19.2891H21.2056H22.1438H24.0603H24.9985H26.9148H27.853H29.7695H30.7077H31.7032V18.6797C31.7032 18.2087 31.3214 17.8268 30.8503 17.8268H29.0588H28.1203H26.2038H25.2656H23.3492H22.411H20.4945H19.5563H17.6398H16.7016H14.7853H13.8471H11.9306H10.9924H9.07617H8.13797H6.22164H5.28352H3.36719H2.42898H0.852891C0.381953 17.8268 0 18.2086 0 18.6797V25.9101C0 26.381 0.381953 26.763 0.852891 26.763H1.64898V20.3286Z" fill="#202121"/>
<path d="M2.92729 21.3778C2.574 21.3778 2.2876 21.0915 2.2876 20.7381V17.8787C2.2876 17.5253 2.574 17.239 2.92729 17.239C3.28057 17.239 3.56697 17.5253 3.56697 17.8787V20.7381C3.56689 21.0915 3.28057 21.3778 2.92729 21.3778Z" fill="#0F46B3"/>
<path d="M5.78178 20.2334C5.42842 20.2334 5.14209 19.9471 5.14209 19.5937V17.8787C5.14209 17.5253 5.42842 17.239 5.78178 17.239C6.13506 17.239 6.42146 17.5253 6.42146 17.8787V19.5937C6.42146 19.9471 6.13506 20.2334 5.78178 20.2334Z" fill="#0F46B3"/>
<path d="M8.63627 21.3778C8.28299 21.3778 7.99658 21.0915 7.99658 20.7381V17.8787C7.99658 17.5253 8.28299 17.239 8.63627 17.239C8.98963 17.239 9.27596 17.5253 9.27596 17.8787V20.7381C9.27596 21.0915 8.98955 21.3778 8.63627 21.3778Z" fill="#0F46B3"/>
<path d="M11.4912 20.2334C11.1379 20.2334 10.8516 19.9471 10.8516 19.5937V17.8787C10.8516 17.5253 11.1379 17.239 11.4912 17.239C11.8445 17.239 12.1309 17.5253 12.1309 17.8787V19.5937C12.1309 19.9471 11.8445 20.2334 11.4912 20.2334Z" fill="#0F46B3"/>
<path d="M14.3457 21.3778C13.9924 21.3778 13.7061 21.0915 13.7061 20.7381V17.8787C13.7061 17.5253 13.9924 17.239 14.3457 17.239C14.699 17.239 14.9854 17.5253 14.9854 17.8787V20.7381C14.9854 21.0915 14.699 21.3778 14.3457 21.3778Z" fill="#0F46B3"/>
<path d="M17.2002 20.2334C16.8469 20.2334 16.5605 19.9471 16.5605 19.5937V17.8787C16.5605 17.5253 16.8469 17.239 17.2002 17.239C17.5535 17.239 17.8399 17.5253 17.8399 17.8787V19.5937C17.8399 19.9471 17.5535 20.2334 17.2002 20.2334Z" fill="#0F46B3"/>
<path d="M20.0547 21.3778C19.7014 21.3778 19.415 21.0915 19.415 20.7381V17.8787C19.415 17.5253 19.7014 17.239 20.0547 17.239C20.408 17.239 20.6944 17.5253 20.6944 17.8787V20.7381C20.6943 21.0915 20.4079 21.3778 20.0547 21.3778Z" fill="#0F46B3"/>
<path d="M22.9092 20.2334C22.5559 20.2334 22.2695 19.9471 22.2695 19.5937V17.8787C22.2695 17.5253 22.5559 17.239 22.9092 17.239C23.2625 17.239 23.5489 17.5253 23.5489 17.8787V19.5937C23.5489 19.9471 23.2625 20.2334 22.9092 20.2334Z" fill="#0F46B3"/>
<path d="M25.7637 21.3778C25.4104 21.3778 25.124 21.0915 25.124 20.7381V17.8787C25.124 17.5253 25.4104 17.239 25.7637 17.239C26.1171 17.239 26.4034 17.5253 26.4034 17.8787V20.7381C26.4033 21.0915 26.1171 21.3778 25.7637 21.3778Z" fill="#0F46B3"/>
<path d="M28.6187 20.2334C28.2654 20.2334 27.979 19.9471 27.979 19.5937V17.8787C27.979 17.5253 28.2654 17.239 28.6187 17.239C28.972 17.239 29.2584 17.5253 29.2584 17.8787V19.5937C29.2583 19.9471 28.9719 20.2334 28.6187 20.2334Z" fill="#0F46B3"/>
<path d="M34.1597 25.2646C33.8064 25.2646 33.52 24.9783 33.52 24.6249V21.7653C33.52 21.4119 33.8064 21.1256 34.1597 21.1256C34.5131 21.1256 34.7994 21.4119 34.7994 21.7653V24.625C34.7993 24.9783 34.5131 25.2646 34.1597 25.2646Z" fill="#0F46B3"/>
<path d="M37.0142 24.1202C36.6609 24.1202 36.3745 23.8339 36.3745 23.4805V21.7653C36.3745 21.4119 36.6609 21.1256 37.0142 21.1256C37.3676 21.1256 37.6539 21.4119 37.6539 21.7653V23.4805C37.6539 23.8338 37.3676 24.1202 37.0142 24.1202Z" fill="#0F46B3"/>
</g>
<defs>
<clipPath id="clip0_2579_8697">
<rect width="40" height="40" fill="white"/>
</clipPath>
</defs>
</svg>
