<svg width="40" height="40" viewBox="0 0 40 40" fill="none" xmlns="http://www.w3.org/2000/svg">
<g clip-path="url(#clip0_2579_8858)">
<path d="M20.0002 35.1724C24.9517 35.1724 28.9657 31.1584 28.9657 26.2069C28.9657 21.2554 24.9517 17.2414 20.0002 17.2414C15.0487 17.2414 11.0347 21.2554 11.0347 26.2069C11.0404 31.1561 15.051 35.1667 20.0002 35.1724ZM13.3057 27.0986C13.575 26.8294 14.0116 26.8294 14.2809 27.0986L16.5912 29.4083L25.074 22.2359C25.2612 22.07 25.5235 22.0184 25.7595 22.1011C25.9956 22.1839 26.1683 22.3879 26.211 22.6343C26.2536 22.8808 26.1595 23.131 25.965 23.2883L16.9995 30.8745C16.7257 31.1062 16.3201 31.0894 16.0664 30.8359L13.3078 28.0773C13.1771 27.9481 13.1035 27.7721 13.1031 27.5884C13.1027 27.4047 13.1756 27.2284 13.3057 27.0986Z" fill="#8A8A8A"/>
<path d="M11.7438 20C13.6893 17.3957 16.7496 15.862 20.0003 15.862C23.2511 15.862 26.3113 17.3957 28.2569 20H32.7548L28.2762 11.0345H11.7245L7.2417 20H11.7438Z" fill="#8A8A8A"/>
<path d="M10.5253 30.3449C9.25826 27.4629 9.381 24.1593 10.8584 21.3793H6.55698L2.07422 30.3449H10.5253Z" fill="#8A8A8A"/>
<path d="M27.5865 9.65517L23.9906 2.4669C23.2353 0.954962 21.6904 -0.000176293 20.0003 2.44067e-08C18.3104 8.50313e-05 16.7658 0.955185 16.0106 2.4669L12.4141 9.65517H27.5865Z" fill="#8A8A8A"/>
<path d="M37.9248 30.3449L33.4421 21.3793H29.1421C30.6194 24.1593 30.7422 27.4629 29.4752 30.3449H37.9248Z" fill="#8A8A8A"/>
<path d="M38.6147 31.7241H28.7354C26.8476 34.7284 23.5484 36.5518 20.0002 36.5518C16.452 36.5518 13.1528 34.7284 11.265 31.7241H1.38574L0.476775 33.5427C-0.214559 34.9257 -0.140705 36.568 0.671971 37.8833C1.48465 39.1986 2.92031 39.9995 4.46643 40H35.534C37.0801 39.9995 38.5158 39.1986 39.3285 37.8833C40.1412 36.568 40.215 34.9257 39.5237 33.5427L38.6147 31.7241ZM4.46712 37.931C3.63791 37.9307 2.86794 37.5012 2.43195 36.7958C1.98985 36.0922 1.9503 35.2079 2.32781 34.4676C2.43807 34.2472 2.65753 34.1023 2.90353 34.0876C3.14953 34.0729 3.38469 34.1906 3.52043 34.3963C3.65617 34.6019 3.67186 34.8644 3.5616 35.0848C3.4047 35.3989 3.42144 35.7717 3.60584 36.0704C3.79024 36.3692 4.11606 36.5512 4.46712 36.5517C4.84801 36.5517 5.15677 36.8605 5.15677 37.2414C5.15677 37.6222 4.84801 37.931 4.46712 37.931Z" fill="#8A8A8A"/>
</g>
<defs>
<clipPath id="clip0_2579_8858">
<rect width="40" height="40" fill="white"/>
</clipPath>
</defs>
</svg>
