<svg width="40" height="40" viewBox="0 0 40 40" fill="none" xmlns="http://www.w3.org/2000/svg">
<g clip-path="url(#clip0_2579_8728)">
<path d="M25.3904 19.1527L14.6099 15.5882H4.73895C2.55949 15.5882 0.776367 17.3714 0.776367 19.5507V30.7782C0.776367 32.9576 2.55957 34.7408 4.73895 34.7408C5.11434 34.7408 5.47191 34.9068 5.70965 35.1974C7.51816 37.4075 9.66559 38.9709 11.175 39.905C11.6971 40.2281 12.3117 39.6677 12.0414 39.1164C11.4399 37.889 11.0329 36.6917 10.767 35.5594C10.6686 35.1409 10.9896 34.7408 11.4196 34.7408H21.4481C23.6275 34.7408 25.4107 32.9576 25.4107 30.7782V19.5507C25.4106 19.4164 25.4036 19.2836 25.3904 19.1527Z" fill="#0F46B3"/>
<path d="M11.3096 37.387C10.5965 36.745 9.88035 36.0158 9.21059 35.1973C8.97285 34.9068 8.61535 34.7407 8.23988 34.7407C6.06043 34.7407 4.2773 32.9575 4.2773 30.7781V19.5507C4.2773 17.3713 6.06051 15.5882 8.23988 15.5882H4.73895C2.55949 15.5882 0.776367 17.3714 0.776367 19.5507V30.7782C0.776367 32.9576 2.55957 34.7408 4.73895 34.7408C5.11434 34.7408 5.47191 34.9068 5.70965 35.1974C7.51816 37.4075 9.66559 38.9709 11.175 39.905C11.6971 40.2281 12.3117 39.6677 12.0414 39.1164C11.7548 38.5318 11.5136 37.9543 11.3096 37.387Z" fill="#0C368A"/>
<path d="M35.2614 0H18.5524C16.373 0 14.5898 1.7832 14.5898 3.96258V15.19C14.5898 17.3695 16.373 19.1526 18.5524 19.1526H28.5809C29.0109 19.1526 29.3318 19.5527 29.2335 19.9712C28.9676 21.1034 28.5606 22.3008 27.9591 23.5282C27.6889 24.0795 28.3034 24.6398 28.8255 24.3168C30.3348 23.3827 32.4823 21.8193 34.2908 19.6091C34.5285 19.3186 34.886 19.1526 35.2615 19.1526C37.4409 19.1526 39.2241 17.3694 39.2241 15.19V3.96258C39.2241 1.7832 37.4409 0 35.2614 0V0Z" fill="#F06E80"/>
<path d="M18.0908 15.19V3.96258C18.0908 1.7832 19.874 0 22.0534 0H18.5524C16.373 0 14.5898 1.7832 14.5898 3.96258V15.19C14.5898 17.3695 16.373 19.1526 18.5524 19.1526H22.0534C19.874 19.1527 18.0908 17.3695 18.0908 15.19Z" fill="#F54961"/>
<path d="M32.7344 19.9713C32.8327 19.5528 32.5118 19.1527 32.0818 19.1527H28.5808C29.0107 19.1527 29.3317 19.5528 29.2334 19.9713C28.9675 21.1036 28.5605 22.3009 27.959 23.5283C27.6888 24.0796 28.3033 24.64 28.8254 24.3169C29.7757 23.7287 30.9792 22.8905 32.1917 21.799C32.416 21.1754 32.5952 20.5642 32.7344 19.9713Z" fill="#F54961"/>
<path d="M35.6996 7.69431H27.023C26.6897 7.69431 26.4194 7.42407 26.4194 7.09072C26.4194 6.75736 26.6897 6.48712 27.023 6.48712H35.6995C36.0329 6.48712 36.3031 6.75736 36.3031 7.09072C36.3032 7.424 36.0329 7.69431 35.6996 7.69431Z" fill="white"/>
<path d="M35.6996 10.2048H27.023C26.6897 10.2048 26.4194 9.93454 26.4194 9.60118C26.4194 9.26782 26.6897 8.99759 27.023 8.99759H35.6995C36.0329 8.99759 36.3031 9.26782 36.3031 9.60118C36.3031 9.93454 36.0329 10.2048 35.6996 10.2048Z" fill="white"/>
<path d="M35.6996 5.18375H27.023C26.6897 5.18375 26.4194 4.91352 26.4194 4.58016C26.4194 4.2468 26.6897 3.97656 27.023 3.97656H35.6995C36.0329 3.97656 36.3031 4.2468 36.3031 4.58016C36.3031 4.91352 36.0329 5.18375 35.6996 5.18375Z" fill="white"/>
<path d="M35.6996 12.7153H27.023C26.6897 12.7153 26.4194 12.4451 26.4194 12.1117C26.4194 11.7784 26.6897 11.5081 27.023 11.5081H35.6995C36.0329 11.5081 36.3031 11.7784 36.3031 12.1117C36.3031 12.4451 36.0329 12.7153 35.6996 12.7153Z" fill="white"/>
<path d="M31.3613 15.2259H27.023C26.6897 15.2259 26.4194 14.9556 26.4194 14.6223C26.4194 14.2889 26.6897 14.0187 27.023 14.0187H31.3613C31.6947 14.0187 31.9649 14.2889 31.9649 14.6223C31.9649 14.9556 31.6947 15.2259 31.3613 15.2259Z" fill="white"/>
<path d="M21.0678 23.6187H12.3912C12.0578 23.6187 11.7876 23.3485 11.7876 23.0151C11.7876 22.6817 12.0578 22.4115 12.3912 22.4115H21.0678C21.4011 22.4115 21.6713 22.6818 21.6713 23.0151C21.6713 23.3485 21.4011 23.6187 21.0678 23.6187Z" fill="white"/>
<path d="M21.0678 26.1293H12.3912C12.0578 26.1293 11.7876 25.859 11.7876 25.5257C11.7876 25.1922 12.0578 24.9221 12.3912 24.9221H21.0678C21.4011 24.9221 21.6713 25.1923 21.6713 25.5257C21.6713 25.859 21.4011 26.1293 21.0678 26.1293Z" fill="white"/>
<path d="M14.801 21.1082H12.3912C12.0578 21.1082 11.7876 20.8379 11.7876 20.5046C11.7876 20.1711 12.0578 19.901 12.3912 19.901H14.801C15.1344 19.901 15.4046 20.1712 15.4046 20.5046C15.4046 20.8379 15.1344 21.1082 14.801 21.1082Z" fill="white"/>
<path d="M21.0678 28.6397H12.3912C12.0578 28.6397 11.7876 28.3695 11.7876 28.0362C11.7876 27.7027 12.0578 27.4326 12.3912 27.4326H21.0678C21.4011 27.4326 21.6713 27.7028 21.6713 28.0362C21.6713 28.3696 21.4011 28.6397 21.0678 28.6397Z" fill="white"/>
<path d="M16.7295 31.1502H12.3912C12.0578 31.1502 11.7876 30.88 11.7876 30.5466C11.7876 30.2132 12.0578 29.943 12.3912 29.943H16.7295C17.0628 29.943 17.3331 30.2133 17.3331 30.5466C17.3331 30.88 17.0628 31.1502 16.7295 31.1502Z" fill="white"/>
<path d="M24.1069 8.89002C24.3199 8.68237 24.2024 8.32049 23.9079 8.27768L22.1602 8.02369C22.0432 8.00674 21.9421 7.9333 21.8899 7.82729L21.1082 6.24362C20.9765 5.97682 20.596 5.97682 20.4644 6.24362L19.6828 7.82729C19.6305 7.93323 19.5294 8.00666 19.4124 8.02369L17.6647 8.27768C17.3703 8.32049 17.2527 8.68237 17.4657 8.89002L18.7304 10.1228C18.815 10.2053 18.8536 10.3241 18.8337 10.4405L18.5351 12.1812C18.4848 12.4745 18.7926 12.6981 19.056 12.5596L20.6192 11.7378C20.7238 11.6828 20.8487 11.6828 20.9532 11.7378L22.5164 12.5596C22.7798 12.6981 23.0876 12.4745 23.0373 12.1812L22.7387 10.4405C22.7187 10.324 22.7574 10.2052 22.842 10.1228L24.1069 8.89002Z" fill="#DFEBFA"/>
<path d="M8.67088 23.5343C8.09987 22.9514 7.15963 22.9515 6.5694 23.515L6.46424 23.6154C6.3962 23.6804 6.28909 23.6804 6.22096 23.6154L6.11581 23.515C5.52557 22.9515 4.58534 22.9514 4.01432 23.5343C3.43409 24.1265 3.45151 25.0769 4.0494 25.6476C4.09198 25.6883 5.74713 27.2683 6.22112 27.7207C6.28917 27.7857 6.39612 27.7857 6.46416 27.7207C6.93807 27.2683 8.59331 25.6883 8.63588 25.6476C9.2337 25.0769 9.25112 24.1265 8.67088 23.5343Z" fill="#F06E80"/>
<path d="M24.1069 8.89002C24.3199 8.68237 24.2024 8.32049 23.9079 8.27768L22.1602 8.02369C22.0432 8.00674 21.9421 7.9333 21.8899 7.82729L21.1082 6.24362C20.9765 5.97682 20.596 5.97682 20.4644 6.24362L19.6828 7.82729C19.6305 7.93323 19.5294 8.00666 19.4124 8.02369L17.6647 8.27768C17.3703 8.32049 17.2527 8.68237 17.4657 8.89002L18.7304 10.1228C18.815 10.2053 18.8536 10.3241 18.8337 10.4405L18.5351 12.1812C18.4848 12.4745 18.7926 12.6981 19.056 12.5596L20.6192 11.7378C20.7238 11.6828 20.8487 11.6828 20.9532 11.7378L22.5164 12.5596C22.7798 12.6981 23.0876 12.4745 23.0373 12.1812L22.7387 10.4405C22.7187 10.324 22.7574 10.2052 22.842 10.1228L24.1069 8.89002Z" fill="#0F46B3"/>
<path d="M20.663 11.7187L20.7787 11.0442C20.7987 10.9277 20.76 10.8089 20.6754 10.7264L19.4107 9.49369C19.1977 9.28604 19.3153 8.92416 19.6097 8.88135L21.3574 8.62737C21.4744 8.61041 21.5755 8.53698 21.6278 8.43096L21.9091 7.86096C21.9021 7.8501 21.8956 7.83901 21.8899 7.82729L21.1082 6.24362C20.9765 5.97682 20.596 5.97682 20.4644 6.24362L19.6828 7.82729C19.6305 7.93323 19.5294 8.00666 19.4124 8.02369L17.6647 8.27768C17.3703 8.32049 17.2527 8.68237 17.4657 8.89002L18.7304 10.1228C18.815 10.2053 18.8536 10.3241 18.8337 10.4405L18.5352 12.1812C18.4849 12.4745 18.7927 12.6981 19.056 12.5596L20.6193 11.7378C20.6335 11.7303 20.6481 11.7241 20.663 11.7187Z" fill="#0F46B3"/>
<path d="M5.2969 25.1375C4.7237 24.5904 4.68557 23.6952 5.19448 23.1003C4.76948 23.0646 4.33409 23.2079 4.01432 23.5343C3.43409 24.1265 3.45151 25.0769 4.0494 25.6476C4.09198 25.6882 5.74713 27.2682 6.22112 27.7207C6.28916 27.7857 6.39612 27.7857 6.46416 27.7207C6.62299 27.569 6.91456 27.2907 7.23354 26.9862C6.59627 26.3779 5.33401 25.173 5.2969 25.1375Z" fill="#F06E80"/>
</g>
<defs>
<clipPath id="clip0_2579_8728">
<rect width="40" height="40" fill="white"/>
</clipPath>
</defs>
</svg>
