<svg width="40" height="40" viewBox="0 0 40 40" fill="none" xmlns="http://www.w3.org/2000/svg">
<g clip-path="url(#clip0_2579_8754)">
<path d="M30.8731 13.4659V29.2095C30.8731 31.3392 29.1403 33.072 27.0107 33.072H19.8943L15.4366 36.1814L9.97178 39.9938V33.072H3.86246C1.7328 33.072 0 31.3392 0 29.2095V13.4659C0 11.3355 1.7328 9.60349 3.86246 9.60349H27.0107C29.1403 9.60349 30.8731 11.3355 30.8731 13.4659Z" fill="#FECA1F"/>
<path d="M30.8731 13.4659V29.2095C30.8731 31.3392 29.1403 33.072 27.0106 33.072H19.8943L15.4365 36.1814V9.60349H27.0106C29.1403 9.60349 30.8731 11.3355 30.8731 13.4659Z" fill="#D4AA1F"/>
<path d="M39.1228 5.11838L23.6959 20.5453L19.2793 20.7271L19.461 16.3105L34.888 0.88358C36.0574 -0.285861 37.9539 -0.286408 39.1234 0.883034C39.7078 1.46748 40.0007 2.23427 40.0001 3.00043C40 3.76722 39.7073 4.53394 39.1228 5.11838Z" fill="#1D61E9"/>
<path d="M5.37646 15.6112H15.4365V17.955H5.37646V15.6112Z" fill="white"/>
<path d="M5.37646 20.1604H15.4365V22.5041H5.37646V20.1604Z" fill="white"/>
<path d="M5.37646 24.7096H25.4427V27.0533H5.37646V24.7096Z" fill="white"/>
<path d="M39.1228 5.11838L23.6959 20.5453L19.2793 20.7271L39.1233 0.883026C39.7078 1.46747 40.0006 2.23426 40 3.00043C40 3.76722 39.7073 4.53393 39.1228 5.11838Z" fill="#0F46B3"/>
<path d="M24.7218 19.5195L23.6959 20.5454L19.2793 20.7272L19.461 16.3105L20.4869 15.2846L24.7218 19.5195Z" fill="#7BEAC5"/>
<path d="M24.7218 19.5195L23.6959 20.5454L19.2793 20.7272L22.6043 17.4021L24.7218 19.5195Z" fill="#6CCFAE"/>
<path d="M15.4365 24.7096H25.4427V27.0533H15.4365V24.7096Z" fill="#E1E1E1"/>
</g>
<defs>
<clipPath id="clip0_2579_8754">
<rect width="40" height="40" fill="white"/>
</clipPath>
</defs>
</svg>
