<svg width="40" height="40" viewBox="0 0 40 40" fill="none" xmlns="http://www.w3.org/2000/svg">
<g clip-path="url(#clip0_2579_8772)">
<path d="M34.4345 31.7469L34.4298 31.7219C34.2548 30.7305 33.4759 27.6508 32.8923 25.5602C32.3087 23.4695 31.0775 19.3453 30.7032 18.3539L30.6931 18.3289C30.3553 17.479 29.797 16.7344 29.0759 16.1719C28.3462 15.5945 27.49 15.2297 26.6657 15.1453C25.454 15.0211 14.5478 14.9578 12.7267 14.9578C12.7267 14.9578 11.3329 15.0016 10.4314 14.0438C10.1478 13.7422 9.90169 13.3906 9.67512 13.1172C8.95637 12.2508 7.91184 11.6375 6.86262 11.5008L6.7595 11.4883C5.54778 11.3641 6.19309 11.4102 4.372 11.4102C2.55091 11.4102 3.44309 11.3664 2.30091 11.4883C1.52434 11.5727 0.871218 11.9375 0.463405 12.5148C0.0555929 13.0922 -0.0897196 13.8602 0.0540304 14.6719L0.0579366 14.6969C0.232937 15.6883 0.417312 16.6359 1.00091 18.7258C1.31341 19.8391 1.55403 20.6273 1.77044 21.2711C2.14856 22.7555 2.59778 24.4477 2.90794 25.5602C3.49153 27.6508 4.43137 30.7305 4.8095 31.7219L4.81887 31.7469C5.15637 32.5953 5.7131 33.3388 6.43216 33.9016C7.16262 34.4789 8.01887 34.8438 8.84309 34.9281C10.0548 35.0523 18.7017 35.1156 20.522 35.1156C22.3423 35.1156 31.0439 35.0523 32.1861 34.9281C32.9634 34.8438 33.6157 34.4789 34.0236 33.9016C34.4314 33.3242 34.5775 32.5594 34.4345 31.7469Z" fill="#0F46B3"/>
<path d="M39.5056 11.2031C39.086 10.4758 38.4259 10.0172 37.6478 9.91094C36.5032 9.75469 25.6306 9.67656 23.8095 9.67656C23.8095 9.67656 22.3931 9.73125 22.0063 8.52578C21.8853 8.14609 21.829 7.70391 21.7493 7.35938C21.4978 6.26562 20.7845 5.49609 19.8087 5.32422C19.7767 5.31797 19.7446 5.31328 19.7126 5.30859C18.5673 5.15234 18.8204 5.07422 17.0001 5.07422C15.1798 5.07422 15.3978 5.15234 14.1876 5.30859C13.3649 5.41484 12.5157 5.87422 11.797 6.60078C11.0584 7.36173 10.519 8.29316 10.2267 9.3125L10.2173 9.34375C10.1267 9.65625 9.61885 11.4734 9.27979 12.7031C9.41995 12.8353 9.55221 12.9757 9.67588 13.1234C9.90244 13.3969 10.1446 13.7484 10.4321 14.05C11.3337 15.0078 12.7274 14.9641 12.7274 14.9641C14.5485 14.9641 25.4548 15.0273 26.6665 15.1516C27.4907 15.2359 28.347 15.6008 29.0767 16.1781C29.796 16.7405 30.3528 17.4842 30.6899 18.3328L30.7001 18.3578C31.0782 19.3492 32.3103 23.4742 32.8931 25.5641C33.4759 27.6539 34.2548 30.7305 34.4298 31.7188L34.4345 31.7437C34.5774 32.5562 34.4345 33.3211 34.0235 33.8984C33.7589 34.2713 33.3929 34.5603 32.9688 34.7312C35.5423 33.8719 36.3063 31.3063 36.3063 31.3063C36.3681 31.1422 36.4243 30.9766 36.4728 30.8086L36.4821 30.7773C36.8407 29.5273 37.7212 25.6516 38.2642 23.0203C38.8071 20.3891 39.7978 15.1953 39.9532 13.9477L39.9571 13.9156C40.0853 12.8906 39.922 11.9297 39.5056 11.2031Z" fill="#0A2C70"/>
<path d="M29.8868 16.9688C29.6456 16.6751 29.3738 16.4079 29.0759 16.1719C28.3462 15.5945 27.49 15.2297 26.6657 15.1453C25.454 15.0211 14.5478 14.9578 12.7267 14.9578C12.7267 14.9578 11.3329 15.0016 10.4314 14.0438C10.1478 13.7422 9.90169 13.3906 9.67512 13.1172C8.95637 12.2508 7.91184 11.6375 6.86262 11.5008L6.7595 11.4883C5.54778 11.3641 6.19309 11.4102 4.372 11.4102C2.5509 11.4102 3.44309 11.3664 2.30091 11.4883C1.52434 11.5734 0.871218 11.9375 0.463405 12.5148C0.0555929 13.0922 -0.0897196 13.8602 0.0540304 14.6719L0.0579366 14.6969C0.232937 15.6883 0.417312 16.6359 1.00091 18.7258C1.31341 19.8391 1.55403 20.6273 1.77044 21.2711C2.14856 22.7555 2.59778 24.4477 2.90794 25.5602C3.36887 27.2133 4.05325 29.4836 4.50637 30.8516C6.1147 31.2218 7.7599 31.4079 9.41028 31.4062C18.854 31.4062 26.8892 25.3836 29.8868 16.9688Z" fill="#0F46B3"/>
<path d="M22.7688 27.1742C22.6623 27.3138 22.5277 27.4294 22.3738 27.5138C22.2199 27.5982 22.05 27.6494 21.875 27.6641C21.6118 27.6922 20.7727 27.7133 19.868 27.7281C20.0899 28.6125 20.2946 29.4586 20.3414 29.7438C20.3761 29.9208 20.3749 30.103 20.338 30.2796C20.3011 30.4561 20.2293 30.6235 20.1266 30.7719C20.0201 30.9121 19.8851 31.0282 19.7305 31.1126C19.576 31.1971 19.4053 31.2479 19.2297 31.2617H19.2188C18.9797 31.2902 18.7392 31.3043 18.4985 31.3039C18.2016 31.3056 17.9048 31.2915 17.6094 31.2617H17.5977C17.173 31.2104 16.7712 31.0406 16.4383 30.7719C16.095 30.5046 15.8304 30.1493 15.6727 29.7438C15.5672 29.4594 15.318 28.6141 15.0664 27.7305C14.1789 27.7156 13.3282 27.693 13.0352 27.6641C12.6103 27.6125 12.2084 27.4428 11.875 27.1742C11.5318 26.9069 11.2675 26.5516 11.1102 26.1461L11.1055 26.1344C11.0133 25.895 10.9338 25.6509 10.8672 25.4031C10.7879 25.1139 10.7235 24.8208 10.6743 24.525V24.5133C10.6395 24.3363 10.6405 24.1541 10.6773 23.9776C10.714 23.801 10.7858 23.6336 10.8883 23.4852C10.9949 23.3449 11.1299 23.2288 11.2844 23.1444C11.439 23.06 11.6096 23.0092 11.7852 22.9953C12.0625 22.9656 12.9024 22.943 13.7829 22.9281C13.5547 22.0203 13.3493 21.1742 13.3055 20.9047C13.2701 20.728 13.2705 20.546 13.3066 20.3694C13.3427 20.1928 13.4138 20.0252 13.5157 19.8766C13.6222 19.7363 13.7572 19.6202 13.9118 19.5358C14.0663 19.4514 14.237 19.4006 14.4125 19.3867H14.4243C14.7133 19.357 15.0042 19.3479 15.2946 19.3594C15.541 19.3478 15.788 19.357 16.0329 19.3867H16.0454C16.4698 19.4383 16.8712 19.608 17.2039 19.8766C17.5475 20.1437 17.8121 20.499 17.9696 20.9047C18.0704 21.175 18.3188 22.0219 18.5774 22.9305C19.4907 22.9461 20.343 22.9672 20.6204 22.9953C21.0451 23.0467 21.4468 23.2164 21.7797 23.4852C22.1229 23.7526 22.3874 24.1079 22.5454 24.5133L22.55 24.525C22.6564 24.8117 22.7441 25.1051 22.8125 25.4031C22.8877 25.6418 22.9439 25.8861 22.9805 26.1336V26.1461C23.0154 26.3229 23.0146 26.505 22.9783 26.6815C22.9419 26.858 22.8707 27.0256 22.7688 27.1742Z" fill="#F06E80"/>
</g>
<defs>
<clipPath id="clip0_2579_8772">
<rect width="40" height="40" fill="white"/>
</clipPath>
</defs>
</svg>
