<svg width="40" height="40" viewBox="0 0 40 40" fill="none" xmlns="http://www.w3.org/2000/svg">
<path d="M31.2969 40H8.70318C7.67076 40 6.67967 39.563 5.98404 38.8012C5.28826 38.039 4.94264 37.0124 5.036 35.9845L7.29756 11.1074C7.35248 10.5037 7.85857 10.0416 8.46459 10.0416H31.5354C32.1415 10.0416 32.6476 10.5038 32.7025 11.1074L34.964 35.9844C35.0574 37.0123 34.7119 38.039 34.016 38.8011C33.3204 39.563 32.3292 40 31.2969 40Z" fill="#8A8A8A"/>
<path d="M32.7025 11.1074C32.6477 10.5037 32.1415 10.0416 31.5355 10.0416H20V40H31.2969C32.3292 40 33.3203 39.563 34.0161 38.8012C34.712 38.039 35.0575 37.0124 34.9641 35.9844L32.7025 11.1074Z" fill="#8A8A8A"/>
<path d="M25.0207 17.4062C24.3735 17.4062 23.8488 16.8816 23.8488 16.2344V6.19273C23.8488 4.07039 22.1222 2.34375 19.9999 2.34375C17.8775 2.34375 16.1509 4.07039 16.1509 6.19273V16.2344C16.1509 16.8816 15.6262 17.4062 14.979 17.4062C14.3318 17.4062 13.8071 16.8816 13.8071 16.2344V6.19273C13.8071 2.77805 16.5852 0 19.9999 0C23.4146 0 26.1926 2.77805 26.1926 6.19273V16.2344C26.1926 16.8816 25.6679 17.4062 25.0207 17.4062Z" fill="#8A8A8A"/>
<path d="M20 0C23.4147 0 26.1927 2.77805 26.1927 6.19273V16.2344C26.1927 16.8816 25.668 17.4062 25.0209 17.4062C24.3737 17.4062 23.849 16.8816 23.849 16.2344V6.19273C23.849 4.07039 22.1223 2.34375 20 2.34375V0Z" fill="#8A8A8A"/>
</svg>
