<svg width="40" height="40" viewBox="0 0 40 40" fill="none" xmlns="http://www.w3.org/2000/svg">
<path d="M20 33.125C27.2487 33.125 33.125 27.2487 33.125 20C33.125 12.7513 27.2487 6.875 20 6.875C12.7513 6.875 6.875 12.7513 6.875 20C6.875 27.2487 12.7513 33.125 20 33.125Z" fill="#8A8A8A"/>
<path d="M20 6.875C19.6835 6.875 19.3734 6.90029 19.0625 6.92234C22.3716 7.1558 25.4692 8.63503 27.7308 11.0619C29.9925 13.4887 31.25 16.6827 31.25 20C31.25 23.3173 29.9925 26.5113 27.7308 28.9381C25.4692 31.365 22.3716 32.8442 19.0625 33.0777C19.3734 33.0997 19.6835 33.125 20 33.125C23.481 33.125 26.8194 31.7422 29.2808 29.2808C31.7422 26.8194 33.125 23.481 33.125 20C33.125 16.519 31.7422 13.1806 29.2808 10.7192C26.8194 8.25781 23.481 6.875 20 6.875Z" fill="#8A8A8A"/>
<path d="M29.375 20C29.3741 22.4861 28.3861 24.8702 26.6281 26.6281C24.8702 28.3861 22.4861 29.3741 20 29.375V25.625C21.4918 25.6249 22.9225 25.0322 23.9773 23.9773C25.0322 22.9225 25.6249 21.4918 25.625 20C25.6269 19.012 25.3659 18.0413 24.8688 17.1875L28.1188 15.3125C28.9449 16.7363 29.3784 18.3539 29.375 20Z" fill="#E2E2E2"/>
<path d="M28.1188 15.3125L24.8688 17.1875C24.3757 16.3325 23.6661 15.6224 22.8115 15.1286C21.9568 14.6349 20.9871 14.375 20.0001 14.375C19.0131 14.375 18.0434 14.6349 17.1887 15.1286C16.3341 15.6224 15.6245 16.3325 15.1313 17.1875L11.8813 15.3125C12.7041 13.8873 13.8876 12.7039 15.3127 11.881C16.7378 11.0582 18.3545 10.625 20.0001 10.625C21.6457 10.625 23.2624 11.0582 24.6875 11.881C26.1126 12.7039 27.2961 13.8873 28.1188 15.3125Z" fill="#E2E2E2"/>
<path d="M20 25.625V29.375C18.3543 29.3751 16.7376 28.9419 15.3124 28.1191C13.8872 27.2963 12.7037 26.1128 11.8809 24.6876C11.0581 23.2624 10.6249 21.6457 10.625 20C10.6251 18.3543 11.0583 16.7376 11.8813 15.3125L15.1313 17.1875C14.6341 18.0413 14.3731 19.012 14.375 20C14.3751 21.4918 14.9678 22.9225 16.0227 23.9773C17.0775 25.0322 18.5082 25.6249 20 25.625Z" fill="#E2E2E2"/>
<path d="M18.1249 22.5C18.0013 22.5 17.8805 22.4633 17.7777 22.3947C17.6749 22.326 17.5949 22.2284 17.5476 22.1142C17.5003 22 17.4879 21.8744 17.512 21.7531C17.5361 21.6319 17.5956 21.5206 17.683 21.4332L21.433 17.6832C21.4908 17.6243 21.5598 17.5774 21.6358 17.5453C21.7118 17.5132 21.7935 17.4965 21.876 17.4961C21.9586 17.4957 22.0404 17.5117 22.1167 17.5431C22.193 17.5745 22.2624 17.6208 22.3208 17.6791C22.3791 17.7375 22.4254 17.8069 22.4568 17.8832C22.4882 17.9595 22.5042 18.0413 22.5038 18.1239C22.5034 18.2064 22.4867 18.288 22.4546 18.3641C22.4225 18.4401 22.3756 18.5091 22.3167 18.5669L18.5667 22.3169C18.5088 22.375 18.4399 22.4211 18.3641 22.4526C18.2882 22.484 18.207 22.5001 18.1249 22.5Z" fill="#E2E2E2"/>
<path d="M18.125 18.75C18.4702 18.75 18.75 18.4702 18.75 18.125C18.75 17.7798 18.4702 17.5 18.125 17.5C17.7798 17.5 17.5 17.7798 17.5 18.125C17.5 18.4702 17.7798 18.75 18.125 18.75Z" fill="#E2E2E2"/>
<path d="M21.875 22.5C22.2202 22.5 22.5 22.2202 22.5 21.875C22.5 21.5298 22.2202 21.25 21.875 21.25C21.5298 21.25 21.25 21.5298 21.25 21.875C21.25 22.2202 21.5298 22.5 21.875 22.5Z" fill="#E2E2E2"/>
<path d="M4.58301 13.125C4.50093 13.125 4.41964 13.1089 4.3438 13.0775C4.26797 13.0461 4.19906 13 4.14102 12.942C4.08298 12.884 4.03694 12.815 4.00554 12.7392C3.97414 12.6634 3.95799 12.5821 3.95801 12.5V6.875C3.95801 6.70924 4.02386 6.55027 4.14107 6.43306C4.25828 6.31585 4.41725 6.25 4.58301 6.25C4.74877 6.25 4.90774 6.31585 5.02495 6.43306C5.14216 6.55027 5.20801 6.70924 5.20801 6.875V12.5C5.20803 12.5821 5.19188 12.6634 5.16048 12.7392C5.12907 12.815 5.08304 12.8839 5.025 12.942C4.96696 13 4.89805 13.0461 4.82221 13.0775C4.74637 13.1089 4.66509 13.125 4.58301 13.125Z" fill="#8A8A8A"/>
<path d="M2.5 13.125C2.41792 13.125 2.33664 13.1089 2.2608 13.0775C2.18496 13.0461 2.11605 13 2.05801 12.942C1.99997 12.8839 1.95393 12.815 1.92253 12.7392C1.89113 12.6634 1.87498 12.5821 1.875 12.5V6.875C1.875 6.70924 1.94085 6.55027 2.05806 6.43306C2.17527 6.31585 2.33424 6.25 2.5 6.25C2.66576 6.25 2.82473 6.31585 2.94194 6.43306C3.05915 6.55027 3.125 6.70924 3.125 6.875V12.5C3.12502 12.5821 3.10887 12.6634 3.07747 12.7392C3.04607 12.815 3.00003 12.8839 2.94199 12.942C2.88395 13 2.81504 13.0461 2.7392 13.0775C2.66336 13.1089 2.58208 13.125 2.5 13.125Z" fill="#8A8A8A"/>
<path d="M6.66699 13.125C6.58491 13.125 6.50363 13.1089 6.42779 13.0775C6.35195 13.0461 6.28304 13 6.225 12.942C6.16696 12.8839 6.12093 12.815 6.08952 12.7392C6.05812 12.6634 6.04197 12.5821 6.04199 12.5V6.875C6.04199 6.70924 6.10784 6.55027 6.22505 6.43306C6.34226 6.31585 6.50123 6.25 6.66699 6.25C6.83275 6.25 6.99172 6.31585 7.10893 6.43306C7.22614 6.55027 7.29199 6.70924 7.29199 6.875V12.5C7.29201 12.5821 7.27586 12.6634 7.24446 12.7392C7.21306 12.815 7.16702 12.884 7.10898 12.942C7.05094 13 6.98203 13.0461 6.9062 13.0775C6.83036 13.1089 6.74907 13.125 6.66699 13.125Z" fill="#8A8A8A"/>
<path d="M8.75 13.125C8.66792 13.125 8.58664 13.1089 8.5108 13.0775C8.43496 13.0461 8.36605 13 8.30801 12.942C8.24997 12.8839 8.20393 12.815 8.17253 12.7392C8.14113 12.6634 8.12498 12.5821 8.125 12.5V6.875C8.125 6.70924 8.19085 6.55027 8.30806 6.43306C8.42527 6.31585 8.58424 6.25 8.75 6.25C8.91576 6.25 9.07473 6.31585 9.19194 6.43306C9.30915 6.55027 9.375 6.70924 9.375 6.875V12.5C9.37502 12.5821 9.35887 12.6634 9.32747 12.7392C9.29607 12.815 9.25003 12.8839 9.19199 12.942C9.13395 13 9.06504 13.0461 8.9892 13.0775C8.91336 13.1089 8.83208 13.125 8.75 13.125Z" fill="#8A8A8A"/>
<path d="M5.62516 33.125C5.38441 33.125 5.14621 33.0757 4.9252 32.9803C4.7042 32.8848 4.50507 32.7451 4.34006 32.5698C4.17506 32.3945 4.04766 32.1872 3.96572 31.9609C3.88378 31.7345 3.84902 31.4937 3.86358 31.2534L5.00016 12.5H6.25016L7.38673 31.2534C7.4013 31.4937 7.36654 31.7345 7.2846 31.9609C7.20265 32.1872 7.07526 32.3945 6.91026 32.5698C6.74525 32.7451 6.54612 32.8848 6.32512 32.9803C6.10411 33.0757 5.86591 33.125 5.62516 33.125Z" fill="#8A8A8A"/>
<path d="M34.3752 33.125C34.1344 33.125 33.8962 33.0757 33.6752 32.9803C33.4542 32.8848 33.2551 32.7451 33.0901 32.5698C32.9251 32.3945 32.7977 32.1872 32.7157 31.9609C32.6338 31.7345 32.599 31.4937 32.6136 31.2534L33.7502 12.5H35.0002L36.1367 31.2534C36.1513 31.4937 36.1165 31.7345 36.0346 31.9609C35.9527 32.1872 35.8253 32.3945 35.6603 32.5698C35.4952 32.7451 35.2961 32.8848 35.0751 32.9803C34.8541 33.0757 34.6159 33.125 34.3752 33.125Z" fill="#8A8A8A"/>
<path d="M35.0001 12.5H33.8602L34.9968 31.2534C35.0192 31.638 34.9148 32.0192 34.6995 32.3386C34.4842 32.6581 34.17 32.898 33.8052 33.0215C33.9881 33.0875 34.1807 33.1225 34.3751 33.125C34.6158 33.125 34.854 33.0757 35.0751 32.9803C35.2961 32.8848 35.4952 32.7451 35.6602 32.5698C35.8252 32.3945 35.9526 32.1872 36.0345 31.9609C36.1165 31.7345 36.1512 31.4937 36.1367 31.2534L35.0001 12.5Z" fill="#8A8A8A"/>
<path d="M6.2501 12.5H5.11023L6.24681 31.2534C6.26923 31.638 6.16478 32.0192 5.9495 32.3386C5.73422 32.6581 5.42002 32.898 5.05518 33.0215C5.23806 33.0875 5.43069 33.1225 5.6251 33.125C5.86585 33.125 6.10405 33.0757 6.32506 32.9803C6.54606 32.8848 6.74519 32.7451 6.9102 32.5698C7.07521 32.3945 7.2026 32.1872 7.28454 31.9609C7.36649 31.7345 7.40125 31.4937 7.38669 31.2534L6.2501 12.5Z" fill="#8A8A8A"/>
<path d="M34.375 16.875C36.4461 16.875 38.125 14.6364 38.125 11.875C38.125 9.11358 36.4461 6.875 34.375 6.875C32.3039 6.875 30.625 9.11358 30.625 11.875C30.625 14.6364 32.3039 16.875 34.375 16.875Z" fill="#8A8A8A"/>
<path d="M34.375 6.875C33.8216 6.87958 33.2805 7.03854 32.8125 7.33399C34.1025 8.12454 35 9.85812 35 11.875C35 13.8919 34.1025 15.6255 32.8125 16.416C33.2805 16.7115 33.8216 16.8704 34.375 16.875C36.4461 16.875 38.125 14.6364 38.125 11.875C38.125 9.11358 36.4461 6.875 34.375 6.875Z" fill="#8A8A8A"/>
<path d="M1.875 11.875V13.125C1.875 14.1196 2.27009 15.0734 2.97335 15.7767C3.67661 16.4799 4.63044 16.875 5.625 16.875C6.61956 16.875 7.57339 16.4799 8.27665 15.7767C8.97991 15.0734 9.375 14.1196 9.375 13.125V11.875H1.875Z" fill="#8A8A8A"/>
<path d="M9.375 11.875V13.125C9.37421 14.1193 8.97887 15.0727 8.27578 15.7758C7.57269 16.4789 6.61932 16.8742 5.625 16.875C5.08512 16.8777 4.5514 16.7603 4.0625 16.5313C4.71506 16.2326 5.26811 15.7529 5.6559 15.149C6.0437 14.5452 6.2499 13.8426 6.25 13.125V11.875H9.375Z" fill="#8A8A8A"/>
<path d="M19.063 29.3276C19.3712 29.3583 19.6836 29.375 19.9999 29.375V29.1868C19.6902 29.2495 19.3775 29.2965 19.063 29.3276Z" fill="#8A8A8A"/>
<path d="M28.1188 15.3125L26.6667 16.1502C27.2469 17.4319 27.5308 18.8278 27.4974 20.2343C27.4639 21.6408 27.1139 23.0216 26.4733 24.2742C25.8328 25.5268 24.9181 26.619 23.7974 27.4694C22.6767 28.3199 21.3788 28.9069 20 29.1867V29.375C21.6457 29.3751 23.2624 28.9419 24.6876 28.1191C26.1128 27.2963 27.2963 26.1128 28.1191 24.6876C28.9419 23.2624 29.3751 21.6457 29.375 20C29.3749 18.3543 28.9417 16.7376 28.1188 15.3125Z" fill="#E2E2E2"/>
<path d="M26.6667 16.1502L28.1188 15.3125C27.2957 13.8876 26.1122 12.7044 24.6871 11.8816C23.262 11.0588 21.6456 10.6255 20.0001 10.625C19.6919 10.625 19.3888 10.645 19.0884 10.6741C20.7203 10.844 22.279 11.4391 23.6089 12.4001C24.9387 13.361 25.9931 14.6542 26.6667 16.1502Z" fill="#E2E2E2"/>
</svg>
