<svg width="19" height="20" viewBox="0 0 19 20" fill="none" xmlns="http://www.w3.org/2000/svg">
<path d="M6.65918 18.3344C7.09355 19.3112 8.05676 20 9.19355 20C10.3304 20 11.2936 19.3112 11.728 18.3344C10.9264 18.3736 10.0928 18.4 9.19355 18.4C8.29437 18.4 7.46078 18.3736 6.65918 18.3344Z" fill="#FFC600"/>
<path d="M18.0166 14.1C16.9622 12.7704 15.1927 10.1568 15.1927 7.6C15.1927 5.0648 13.5639 2.78398 11.1927 1.94559C11.1639 0.867187 10.2775 0 9.19344 0C8.10864 0 7.22305 0.867187 7.19422 1.94559C4.82223 2.78398 3.19344 5.0648 3.19344 7.6C3.19344 10.1576 1.42465 12.7704 0.369457 14.1C0.0174649 14.544 -0.0913632 15.1304 0.0790665 15.6688C0.245473 16.1944 0.659848 16.6016 1.18786 16.7568C2.11266 17.0296 3.62864 17.3368 5.94067 17.4936C6.94145 17.5608 8.01747 17.6 9.19348 17.6C10.3687 17.6 11.4447 17.5608 12.4455 17.4936C14.7583 17.3368 16.2735 17.0296 17.1991 16.7568C17.7271 16.6016 18.1407 16.1944 18.3071 15.6688C18.4775 15.1304 18.3679 14.544 18.0166 14.1Z" fill="#FFC600"/>
</svg>
