<svg width="76" height="76" viewBox="0 0 76 76" fill="none" xmlns="http://www.w3.org/2000/svg">
<g clip-path="url(#clip0_1154_2204)">
<path d="M61.2142 55.689L4.6309 74.5965C4.18132 74.7471 3.69866 74.7693 3.23715 74.6607C2.77564 74.5521 2.35356 74.3169 2.0183 73.9817C1.68305 73.6464 1.44791 73.2243 1.3393 72.7628C1.23068 72.3013 1.25289 71.8187 1.40343 71.3691L20.311 14.7858L61.2142 55.689Z" fill="#FDC70E"/>
<path d="M61.2142 55.6915C61.2142 55.6915 52.8808 53.8042 37.5478 38.456C22.6214 23.5435 20.4174 15.2253 20.3123 14.7909V14.7757C20.3123 14.7757 28.6609 16.6643 43.9989 32.0023C59.337 47.3404 61.2142 55.6915 61.2142 55.6915Z" fill="#D39518"/>
<path d="M24.6493 67.906L16.264 70.7053C14.5033 69.1347 12.6287 67.374 10.6273 65.3727C8.62601 63.3713 6.86534 61.4967 5.29468 59.736L8.09401 51.3507C10.222 53.922 12.8187 56.7973 16.0107 59.9893C19.2027 63.1813 22.078 65.778 24.6493 67.906Z" fill="#2167D8"/>
<path d="M47.4746 60.2807L38.4686 63.2827C33.5155 59.7249 28.883 55.7408 24.624 51.376C20.2591 47.117 16.2751 42.4844 12.7173 37.5313L15.7193 28.5253C19.7651 34.899 24.5622 40.7635 30.0073 45.9927C35.2364 51.4378 41.1009 56.2348 47.4746 60.2807Z" fill="#D3374E"/>
<path d="M32.3418 25.8476C32.0914 25.8476 31.8465 25.7732 31.6383 25.6341C31.43 25.4949 31.2677 25.2971 31.1718 25.0656C31.076 24.8342 31.0509 24.5796 31.0998 24.3339C31.1486 24.0882 31.2692 23.8626 31.4463 23.6854C33.9226 21.349 35.558 18.2603 36.0985 14.899C36.6391 11.5377 36.0545 8.09202 34.4356 5.09708C34.3386 4.95435 34.2718 4.79331 34.2393 4.62384C34.2068 4.45437 34.2092 4.28003 34.2465 4.11154C34.2837 3.94304 34.355 3.78394 34.456 3.64399C34.557 3.50404 34.6855 3.38619 34.8336 3.29769C34.9818 3.20918 35.1464 3.15188 35.3175 3.1293C35.4886 3.10672 35.6625 3.11933 35.8285 3.16637C35.9945 3.21341 36.1492 3.29388 36.283 3.40284C36.4169 3.5118 36.527 3.64696 36.6067 3.80001C38.506 7.28212 39.2052 11.293 38.5962 15.2123C37.9871 19.1317 36.1038 22.7413 33.2374 25.4828C33.1195 25.5997 32.9798 25.6921 32.8261 25.7547C32.6724 25.8173 32.5078 25.8489 32.3418 25.8476Z" fill="#2167D8"/>
<path d="M30.2226 13.1303C29.8867 13.1302 29.5646 12.9967 29.3271 12.7591L27.2067 10.64C27.0891 10.5223 26.9958 10.3826 26.9322 10.2289C26.8686 10.0751 26.8359 9.91039 26.8359 9.74401C26.836 9.57764 26.8688 9.41291 26.9325 9.25922C26.9963 9.10553 27.0896 8.9659 27.2073 8.8483C27.445 8.61079 27.7673 8.47742 28.1033 8.47754C28.2697 8.4776 28.4344 8.51043 28.5881 8.57415C28.7418 8.63787 28.8814 8.73124 28.999 8.84893L31.1182 10.9681C31.2953 11.1452 31.4158 11.3709 31.4647 11.6166C31.5136 11.8622 31.4885 12.1169 31.3926 12.3483C31.2968 12.5797 31.1345 12.7775 30.9262 12.9167C30.718 13.0559 30.4731 13.1302 30.2226 13.1303Z" fill="#23AF6F"/>
<path d="M45.0591 11.0111C44.7232 11.0111 44.401 10.8777 44.1635 10.6401C43.9259 10.4026 43.7925 10.0804 43.7925 9.74447V7.62534C43.7925 7.2894 43.9259 6.96722 44.1635 6.72967C44.401 6.49213 44.7232 6.35867 45.0591 6.35867C45.3951 6.35867 45.7173 6.49213 45.9548 6.72967C46.1924 6.96722 46.3258 7.2894 46.3258 7.62534V9.74447C46.3258 10.0804 46.1924 10.4026 45.9548 10.6401C45.7173 10.8777 45.3951 11.0111 45.0591 11.0111Z" fill="#D3374E"/>
<path d="M47.1795 19.4902H45.0591C44.7232 19.4902 44.401 19.3568 44.1635 19.1192C43.9259 18.8817 43.7925 18.5595 43.7925 18.2235C43.7925 17.8876 43.9259 17.5654 44.1635 17.3279C44.401 17.0903 44.7232 16.9569 45.0591 16.9569H47.1795C47.5155 16.9569 47.8377 17.0903 48.0752 17.3279C48.3128 17.5654 48.4462 17.8876 48.4462 18.2235C48.4462 18.5595 48.3128 18.8817 48.0752 19.1192C47.8377 19.3568 47.5155 19.4902 47.1795 19.4902Z" fill="#23AF6F"/>
<path d="M51.4178 44.9249C51.1673 44.9248 50.9224 44.8505 50.7142 44.7113C50.5059 44.5721 50.3436 44.3743 50.2478 44.1429C50.1519 43.9115 50.1268 43.6568 50.1757 43.4112C50.2245 43.1655 50.3451 42.9398 50.5222 42.7627C53.264 39.8961 56.8738 38.0128 60.7933 37.4037C64.7129 36.7947 68.724 37.4939 72.2063 39.3933C72.483 39.5712 72.6797 39.8498 72.7546 40.1701C72.8296 40.4904 72.777 40.8273 72.608 41.1096C72.439 41.3918 72.1668 41.5972 71.8491 41.6823C71.5313 41.7674 71.1929 41.7256 70.9054 41.5657C67.9176 39.9167 64.464 39.3151 61.0946 39.8566C57.7252 40.3981 54.634 42.0516 52.3133 44.5537C52.0758 44.7913 51.7537 44.9248 51.4178 44.9249Z" fill="#2167D8"/>
<path d="M66.2555 49.1631C65.9198 49.1634 65.5977 49.0304 65.36 48.7933L63.2396 46.6729C63.0089 46.434 62.8812 46.114 62.8841 45.7819C62.887 45.4498 63.0202 45.1321 63.255 44.8972C63.4899 44.6624 63.8076 44.5292 64.1397 44.5263C64.4718 44.5234 64.7918 44.6511 65.0307 44.8818L67.1511 47.0009C67.3282 47.1781 67.4488 47.4038 67.4976 47.6494C67.5465 47.8951 67.5214 48.1498 67.4255 48.3812C67.3297 48.6126 67.1674 48.8104 66.9591 48.9496C66.7509 49.0888 66.506 49.1631 66.2555 49.1631Z" fill="#23AF6F"/>
<path d="M68.3733 32.2075H66.2554C65.9195 32.2075 65.5973 32.0741 65.3598 31.8365C65.1222 31.599 64.9888 31.2768 64.9888 30.9409C64.9888 30.6049 65.1222 30.2827 65.3598 30.0452C65.5973 29.8076 65.9195 29.6742 66.2554 29.6742H68.3733C68.7092 29.6742 69.0314 29.8076 69.269 30.0452C69.5065 30.2827 69.64 30.6049 69.64 30.9409C69.64 31.2768 69.5065 31.599 69.269 31.8365C69.0314 32.0741 68.7092 32.2075 68.3733 32.2075Z" fill="#D3374E"/>
<path d="M57.7764 32.2075C57.4405 32.2075 57.1183 32.0741 56.8808 31.8365C56.6432 31.599 56.5098 31.2768 56.5098 30.9409V28.8205C56.5098 28.4845 56.6432 28.1623 56.8808 27.9248C57.1183 27.6873 57.4405 27.5538 57.7764 27.5538C58.1124 27.5538 58.4346 27.6873 58.6721 27.9248C58.9096 28.1623 59.0431 28.4845 59.0431 28.8205V30.9409C59.0431 31.2768 58.9096 31.599 58.6721 31.8365C58.4346 32.0741 58.1124 32.2075 57.7764 32.2075Z" fill="#D3374E"/>
<path d="M47.1795 27.968C46.929 27.968 46.6842 27.8936 46.4759 27.7544C46.2676 27.6153 46.1053 27.4175 46.0095 27.186C45.9136 26.9546 45.8886 26.7 45.9374 26.4543C45.9863 26.2086 46.1069 25.9829 46.2839 25.8058C46.8189 25.2867 47.4602 24.8901 48.1636 24.6434C48.867 24.3967 49.6156 24.3058 50.3575 24.377H50.3854C50.7885 24.4433 51.2015 24.4158 51.5923 24.2968C51.983 24.1777 52.3411 23.9703 52.6388 23.6905C52.9209 23.3889 53.1297 23.0262 53.2487 22.6308C53.3678 22.2353 53.394 21.8177 53.3253 21.4105C53.2435 20.6675 53.3296 19.9156 53.5772 19.2103C53.8249 18.5051 54.2278 17.8645 54.7562 17.3358C55.2847 16.8071 55.9251 16.4039 56.6303 16.1559C57.3354 15.9079 58.0873 15.8215 58.8303 15.903C59.2396 15.9853 59.6629 15.9652 60.0625 15.8444C60.4622 15.7236 60.8258 15.5059 61.121 15.2107C61.4162 14.9155 61.6339 14.5519 61.7547 14.1523C61.8754 13.7526 61.8956 13.3293 61.8133 12.92C61.7427 12.1774 61.8343 11.4283 62.0816 10.7245C62.329 10.0207 62.7262 9.37905 63.2459 8.84387C63.3624 8.7205 63.5026 8.62181 63.658 8.55366C63.8134 8.48552 63.981 8.44929 64.1507 8.44715C64.3204 8.44501 64.4888 8.47699 64.6458 8.5412C64.8029 8.6054 64.9455 8.70052 65.0652 8.82091C65.1848 8.94129 65.279 9.08449 65.3422 9.24199C65.4054 9.39949 65.4363 9.56809 65.4331 9.73777C65.4299 9.90745 65.3926 10.0748 65.3234 10.2297C65.2543 10.3847 65.1547 10.5242 65.0306 10.64C64.7486 10.9417 64.5396 11.3043 64.4199 11.6996C64.3002 12.0949 64.273 12.5125 64.3403 12.92C64.422 13.6633 64.3356 14.4155 64.0877 15.121C63.8397 15.8266 63.4365 16.4674 62.9077 16.9961C62.3789 17.5249 61.7381 17.9282 61.0326 18.1761C60.3271 18.4241 59.5749 18.5104 58.8315 18.4287C58.4232 18.3466 58.0009 18.3668 57.6023 18.4875C57.2036 18.6082 56.841 18.8256 56.5468 19.1205C56.2526 19.4153 56.0359 19.7784 55.9161 20.1773C55.7962 20.5762 55.777 20.9985 55.8599 21.4067C55.9318 22.1487 55.8411 22.8974 55.5944 23.6009C55.3477 24.3044 54.9507 24.9457 54.4311 25.4803C53.8941 25.9963 53.2524 26.3909 52.5496 26.6374C51.8468 26.8839 51.0993 26.9766 50.3575 26.9091H50.3284C49.9255 26.8424 49.5126 26.8697 49.122 26.9888C48.7314 27.1078 48.3735 27.3155 48.0763 27.5956C47.9586 27.7136 47.8189 27.8073 47.665 27.8712C47.5111 27.9351 47.3461 27.968 47.1795 27.968Z" fill="#FDC70E"/>
<path d="M51.419 13.1303C51.2109 13.1303 51.0059 13.0791 50.8222 12.9812C50.6386 12.8832 50.4819 12.7414 50.3661 12.5685C50.2502 12.3956 50.1788 12.1967 50.1581 11.9896C50.1374 11.7825 50.168 11.5734 50.2474 11.381C50.9201 9.88593 51.2724 8.26657 51.2816 6.62712C51.2908 4.98768 50.9566 3.36449 50.3005 1.86199C50.142 1.56569 50.1076 1.21854 50.205 0.896902C50.3024 0.575265 50.5236 0.30549 50.8199 0.146926C51.1162 -0.0116378 51.4633 -0.0460029 51.785 0.051391C52.1066 0.148785 52.3764 0.36996 52.535 0.66626C53.3668 2.49924 53.8018 4.48737 53.8114 6.50027C53.821 8.51316 53.405 10.5054 52.5907 12.3462C52.4951 12.5783 52.3326 12.7767 52.124 12.9163C51.9154 13.0559 51.67 13.1304 51.419 13.1303Z" fill="#D3374E"/>
<path d="M64.1352 25.8476C63.8417 25.8479 63.5572 25.7463 63.3303 25.5601C63.1035 25.3739 62.9483 25.1148 62.8913 24.8269C62.8343 24.539 62.8791 24.2402 63.0179 23.9817C63.1568 23.7231 63.3811 23.5208 63.6526 23.4093C65.4934 22.594 67.4859 22.1775 69.4991 22.1871C71.5124 22.1967 73.5008 22.6322 75.3338 23.465C75.6301 23.6236 75.8512 23.8933 75.9486 24.215C76.046 24.5366 76.0117 24.8838 75.8531 25.1801C75.6945 25.4764 75.4248 25.6975 75.1031 25.7949C74.7815 25.8923 74.4343 25.858 74.138 25.6994C72.6355 25.0428 71.012 24.7083 69.3723 24.7175C67.7325 24.7266 66.1129 25.0793 64.6178 25.7526C64.4646 25.8153 64.3007 25.8476 64.1352 25.8476Z" fill="#D3374E"/>
</g>
<defs>
<clipPath id="clip0_1154_2204">
<rect width="76" height="76" fill="white"/>
</clipPath>
</defs>
</svg>
