<svg width="26" height="26" viewBox="0 0 26 26" fill="none" xmlns="http://www.w3.org/2000/svg">
<g clip-path="url(#clip0_1_351)">
<path d="M3.79854 19.9677C2.9645 19.9677 2.14967 19.7549 1.4112 19.3402C1.03125 19.1446 0.88409 18.655 1.11107 18.2868C1.86523 17.0817 2.13756 15.6086 1.79227 14.2232C1.43437 12.787 0.916525 11.5774 0.920232 10.0569C0.933082 4.72271 5.37296 0.398306 10.7017 0.501789C15.8487 0.605457 20.0905 4.93209 20.0906 10.0804C20.0906 16.8042 13.044 21.5249 6.82314 18.9284C5.96568 19.6014 4.88792 19.9677 3.79854 19.9677V19.9677ZM2.78509 18.3261C3.95694 18.6901 5.27491 18.3993 6.17858 17.5257C6.40124 17.3104 6.7343 17.2562 7.01367 17.3898C12.3396 19.9362 18.6078 15.9449 18.6078 10.0804C18.6078 5.70423 15.0477 2.07232 10.6719 1.98422C6.16239 1.89464 2.41384 5.54687 2.40297 10.0605C2.39945 11.5046 2.96289 12.6588 3.27081 14.0268C3.59522 15.4684 3.42433 16.9929 2.78509 18.3261V18.3261Z" fill="white"/>
<path d="M23.0012 25.46C21.9119 25.46 20.8341 25.0936 19.9768 24.4207C16.6684 25.8015 12.7331 25.1727 10.0205 22.8301C9.71059 22.5624 9.67636 22.0943 9.94394 21.7844C10.2116 21.4745 10.6797 21.4402 10.9896 21.7079C13.3954 23.7856 16.9189 24.2529 19.7862 22.8821C20.0655 22.7484 20.3985 22.8027 20.6213 23.018C21.5249 23.8916 22.8429 24.1825 24.0148 23.8184C23.2607 22.2455 23.1562 20.4435 23.7406 18.7753C23.7458 18.7603 23.7516 18.7455 23.7578 18.7308C24.1845 17.7247 24.3996 16.6554 24.3969 15.5528C24.3922 13.6087 23.7455 11.8103 22.5266 10.3519C22.264 10.0377 22.3058 9.57023 22.62 9.30766C22.9341 9.04503 23.4017 9.08692 23.6643 9.40107C25.0875 11.1038 25.8742 13.2872 25.8797 15.5492C25.8828 16.8448 25.6314 18.1022 25.1326 19.2869C24.6085 20.8038 24.8495 22.4279 25.6887 23.7789C25.9159 24.1472 25.7686 24.6368 25.3885 24.8326C24.6502 25.2471 23.8352 25.4599 23.0012 25.46V25.46Z" fill="white"/>
<path d="M10.5053 11.2898C11.1532 11.2898 11.6784 10.7649 11.6784 10.1173C11.6784 9.46981 11.1532 8.94487 10.5053 8.94487C9.85746 8.94487 9.33224 9.46981 9.33224 10.1173C9.33224 10.7649 9.85746 11.2898 10.5053 11.2898Z" fill="white"/>
<path d="M6.1834 11.2898C6.83128 11.2898 7.35649 10.7649 7.35649 10.1173C7.35649 9.46981 6.83128 8.94487 6.1834 8.94487C5.53552 8.94487 5.01031 9.46981 5.01031 10.1173C5.01031 10.7649 5.53552 11.2898 6.1834 11.2898Z" fill="white"/>
<path d="M14.8273 11.2898C15.4752 11.2898 16.0004 10.7649 16.0004 10.1173C16.0004 9.46981 15.4752 8.94487 14.8273 8.94487C14.1795 8.94487 13.6542 9.46981 13.6542 10.1173C13.6542 10.7649 14.1795 11.2898 14.8273 11.2898Z" fill="white"/>
</g>
<defs>
<clipPath id="clip0_1_351">
<rect width="24.96" height="24.96" fill="white" transform="translate(0.919922 0.5)"/>
</clipPath>
</defs>
</svg>
