<svg width="27" height="26" viewBox="0 0 27 26" fill="none" xmlns="http://www.w3.org/2000/svg">
<path d="M25.9726 9.8548C25.8034 9.33454 25.342 8.96621 24.7982 8.91701L17.3813 8.24366L14.4502 1.38119C14.2338 0.877008 13.7413 0.551605 13.1933 0.551605C12.6452 0.551605 12.1525 0.877008 11.9375 1.38119L9.00633 8.24366L1.58832 8.91701C1.04455 8.96719 0.584083 9.33552 0.413932 9.8548C0.244762 10.375 0.400994 10.9457 0.812257 11.3064L6.41879 16.2225L4.76571 23.5033C4.64476 24.0386 4.85255 24.5922 5.29674 24.9133C5.5355 25.0868 5.81601 25.1734 6.09751 25.1734C6.3394 25.1734 6.58149 25.1091 6.79771 24.9798L13.1933 21.1557L19.5876 24.9798C20.0567 25.2601 20.6465 25.2344 21.0898 24.9133C21.534 24.5922 21.7417 24.0386 21.6208 23.5033L19.9677 16.2225L25.5742 11.3064C25.9853 10.9457 26.1417 10.3762 25.9726 9.8548Z" fill="#F06E80"/>
</svg>
