<svg width="31" height="31" viewBox="0 0 31 31" fill="none" xmlns="http://www.w3.org/2000/svg">
<g filter="url(#filter0_d_1_367)">
<path d="M4.49514 17.4417L5.20843 17.2099L5.20843 17.2099L4.49514 17.4417ZM3.17394 10.1033L2.45263 9.89786L3.17394 10.1033ZM8.69098 4.52822L8.25014 3.92146L8.25014 3.92146L8.69098 4.52822ZM3.30872 9.68851L4.01303 9.94627L3.30872 9.68851ZM8.09251 24.4115L7.67421 25.034L7.67421 25.034L8.09251 24.4115ZM7.73965 24.1552L7.27687 24.7454L7.73965 24.1552ZM26.4649 17.4417L27.1782 17.6735L26.4649 17.4417ZM23.2203 24.1552L23.6831 24.7454L23.2203 24.1552ZM22.8675 24.4115L23.2858 25.034L23.2858 25.034L22.8675 24.4115ZM22.269 4.52822L21.8282 5.13498L22.269 4.52822ZM27.6513 9.68851L26.947 9.94627L27.6513 9.68851ZM27.7861 10.1033L28.5074 9.89786L28.5074 9.89786L27.7861 10.1033ZM15.6981 1.004L15.6706 1.75349L15.6981 1.004ZM15.2619 1.004L15.2894 1.75349L15.2619 1.004ZM5.20843 17.2099C4.59744 15.3295 4.15858 13.9755 3.92791 12.874C3.70085 11.7896 3.69242 11.0209 3.89525 10.3088L2.45263 9.89786C2.1588 10.9294 2.20503 11.9649 2.45975 13.1814C2.71087 14.3806 3.18093 15.824 3.78185 17.6735L5.20843 17.2099ZM8.25014 3.92146C6.67693 5.06446 5.44823 5.95591 4.54017 6.77852C3.61907 7.61294 2.97301 8.42352 2.6044 9.43075L4.01303 9.94627C4.26749 9.25097 4.72617 8.63399 5.54723 7.8902C6.38134 7.13458 7.53224 6.29715 9.13182 5.13498L8.25014 3.92146ZM3.89525 10.3088C3.93006 10.1865 3.96935 10.0656 4.01303 9.94627L2.6044 9.43075C2.54812 9.58455 2.49749 9.74036 2.45263 9.89786L3.89525 10.3088ZM15.48 24.6727C13.5028 24.6727 12.0795 24.6717 10.9605 24.5506C9.85909 24.4315 9.12536 24.202 8.51081 23.789L7.67421 25.034C8.56446 25.6322 9.56358 25.9083 10.7992 26.0419C12.0174 26.1737 13.5354 26.1727 15.48 26.1727V24.6727ZM3.78185 17.6735C4.38276 19.5229 4.85089 20.9669 5.35263 22.0847C5.86157 23.2186 6.43284 24.0835 7.27687 24.7454L8.20244 23.565C7.6198 23.1081 7.17476 22.4812 6.72109 21.4705C6.26022 20.4437 5.81942 19.0904 5.20843 17.2099L3.78185 17.6735ZM8.51081 23.789C8.40532 23.7181 8.30246 23.6434 8.20244 23.565L7.27687 24.7454C7.40574 24.8464 7.53828 24.9427 7.67421 25.034L8.51081 23.789ZM25.7516 17.2099C25.1406 19.0904 24.6998 20.4437 24.2389 21.4705C23.7852 22.4812 23.3402 23.1081 22.7576 23.565L23.6831 24.7454C24.5272 24.0835 25.0984 23.2186 25.6074 22.0847C26.1091 20.9669 26.5772 19.5229 27.1782 17.6735L25.7516 17.2099ZM15.48 26.1727C17.4246 26.1727 18.9426 26.1737 20.1608 26.0419C21.3964 25.9083 22.3955 25.6322 23.2858 25.034L22.4492 23.789C21.8346 24.202 21.1009 24.4315 19.9995 24.5506C18.8805 24.6717 17.4572 24.6727 15.48 24.6727V26.1727ZM22.7576 23.565C22.6575 23.6434 22.5547 23.7181 22.4492 23.789L23.2858 25.034C23.4217 24.9427 23.5543 24.8464 23.6831 24.7454L22.7576 23.565ZM21.8282 5.13498C23.4278 6.29715 24.5787 7.13458 25.4128 7.8902C26.2338 8.63399 26.6925 9.25097 26.947 9.94627L28.3556 9.43075C27.987 8.42352 27.3409 7.61294 26.4198 6.77852C25.5118 5.95591 24.2831 5.06446 22.7099 3.92146L21.8282 5.13498ZM27.1782 17.6735C27.7791 15.824 28.2491 14.3806 28.5002 13.1814C28.755 11.9649 28.8012 10.9294 28.5074 9.89786L27.0648 10.3088C27.2676 11.0209 27.2592 11.7896 27.0321 12.874C26.8014 13.9755 26.3626 15.3295 25.7516 17.2099L27.1782 17.6735ZM26.947 9.94627C26.9906 10.0656 27.0299 10.1865 27.0648 10.3088L28.5074 9.89786C28.4625 9.74036 28.4119 9.58455 28.3556 9.43075L26.947 9.94627ZM22.7099 3.92146C21.1366 2.77845 19.9091 1.88536 18.8462 1.27594C17.768 0.657773 16.7974 0.293823 15.7256 0.254503L15.6706 1.75349C16.4105 1.78064 17.139 2.02621 18.1001 2.57724C19.0765 3.13703 20.2286 3.97282 21.8282 5.13498L22.7099 3.92146ZM9.13182 5.13498C10.7314 3.97282 11.8835 3.13703 12.8599 2.57724C13.821 2.02621 14.5495 1.78064 15.2894 1.75349L15.2344 0.254503C14.1626 0.293823 13.192 0.657773 12.1138 1.27594C11.0509 1.88536 9.82336 2.77845 8.25014 3.92146L9.13182 5.13498ZM15.7256 0.254503C15.5619 0.248499 15.3981 0.248499 15.2344 0.254503L15.2894 1.75349C15.4164 1.74884 15.5436 1.74884 15.6706 1.75349L15.7256 0.254503Z" fill="white"/>
<path d="M13.1004 19.8219H17.8593" stroke="white" stroke-width="1.5" stroke-linecap="round"/>
</g>
<defs>
<filter id="filter0_d_1_367" x="0.25" y="0.25" width="30.46" height="29.9227" filterUnits="userSpaceOnUse" color-interpolation-filters="sRGB">
<feFlood flood-opacity="0" result="BackgroundImageFix"/>
<feColorMatrix in="SourceAlpha" type="matrix" values="0 0 0 0 0 0 0 0 0 0 0 0 0 0 0 0 0 0 127 0" result="hardAlpha"/>
<feOffset dy="2"/>
<feGaussianBlur stdDeviation="1"/>
<feComposite in2="hardAlpha" operator="out"/>
<feColorMatrix type="matrix" values="0 0 0 0 1 0 0 0 0 0.776471 0 0 0 0 0 0 0 0 0.15 0"/>
<feBlend mode="normal" in2="BackgroundImageFix" result="effect1_dropShadow_1_367"/>
<feBlend mode="normal" in="SourceGraphic" in2="effect1_dropShadow_1_367" result="shape"/>
</filter>
</defs>
</svg>
