<svg width="26" height="25" viewBox="0 0 26 25" fill="none" xmlns="http://www.w3.org/2000/svg">
<path d="M5.75066 24.6222C5.46916 24.6222 5.18962 24.5344 4.95106 24.3619C4.50666 24.0398 4.29907 23.4863 4.42002 22.9521L6.07292 15.671L0.467319 10.7551C0.0552692 10.3953 -0.102141 9.82569 0.0670309 9.30445C0.236203 8.78419 0.696476 8.41586 1.24143 8.36548L8.65833 7.69212L11.5907 0.829785C11.8069 0.325602 12.2993 0 12.8465 0C13.3936 0 13.886 0.325602 14.1022 0.828609L17.0346 7.69212L24.4503 8.36548C24.9965 8.41468 25.4567 8.78419 25.6259 9.30445C25.7951 9.82471 25.6386 10.3953 25.2266 10.7551L19.621 15.6701L21.2739 22.9509C21.395 23.4863 21.1872 24.0398 20.743 24.3609C20.2998 24.682 19.7088 24.7067 19.2421 24.4262L12.8465 20.6043L6.45087 24.4284C6.23465 24.5568 5.99373 24.6222 5.75066 24.6222ZM12.8465 18.9578C13.0895 18.9578 13.3303 19.0231 13.5467 19.1515L19.5826 22.7616L18.0226 15.8894C17.9112 15.4003 18.0773 14.8897 18.4552 14.5588L23.7481 9.91684L16.7455 9.28093C16.2413 9.23486 15.8077 8.91788 15.6106 8.4533L12.8465 1.97733L10.0789 8.45428C9.88409 8.91573 9.45048 9.2327 8.94747 9.27877L1.9438 9.91468L7.23654 14.5566C7.61566 14.8885 7.7815 15.3982 7.66918 15.8884L6.11037 22.7604L12.1463 19.1515C12.3625 19.0231 12.6034 18.9578 12.8465 18.9578ZM8.60168 7.82483C8.60168 7.82483 8.60168 7.82601 8.6005 7.82699L8.60168 7.82483ZM17.0891 7.8217L17.0903 7.82385C17.0903 7.82268 17.0903 7.82268 17.0891 7.8217Z" fill="#F06E80"/>
</svg>
