<svg width="25" height="25" viewBox="0 0 25 25" fill="none" xmlns="http://www.w3.org/2000/svg">
<g clip-path="url(#clip0_1_364)">
<path d="M22.62 2.34H19.305V1.56C19.305 1.35313 19.2228 1.15473 19.0765 1.00846C18.9303 0.862177 18.7319 0.779999 18.525 0.779999C18.3181 0.779999 18.1197 0.862177 17.9735 1.00846C17.8272 1.15473 17.745 1.35313 17.745 1.56V2.34H7.215V1.56C7.215 1.35313 7.13282 1.15473 6.98654 1.00846C6.84026 0.862177 6.64187 0.779999 6.435 0.779999C6.22813 0.779999 6.02974 0.862177 5.88346 1.00846C5.73718 1.15473 5.655 1.35313 5.655 1.56V2.34H2.34C1.71939 2.34 1.12421 2.58653 0.68537 3.02537C0.246535 3.4642 0 4.05939 0 4.68L0 21.84C0 22.4606 0.246535 23.0558 0.68537 23.4946C1.12421 23.9335 1.71939 24.18 2.34 24.18H22.62C23.2406 24.18 23.8358 23.9335 24.2746 23.4946C24.7135 23.0558 24.96 22.4606 24.96 21.84V4.68C24.96 4.05939 24.7135 3.4642 24.2746 3.02537C23.8358 2.58653 23.2406 2.34 22.62 2.34ZM2.34 3.9H5.655V4.68C5.655 4.88687 5.73718 5.08526 5.88346 5.23154C6.02974 5.37782 6.22813 5.46 6.435 5.46C6.64187 5.46 6.84026 5.37782 6.98654 5.23154C7.13282 5.08526 7.215 4.88687 7.215 4.68V3.9H17.745V4.68C17.745 4.88687 17.8272 5.08526 17.9735 5.23154C18.1197 5.37782 18.3181 5.46 18.525 5.46C18.7319 5.46 18.9303 5.37782 19.0765 5.23154C19.2228 5.08526 19.305 4.88687 19.305 4.68V3.9H22.62C22.8269 3.9 23.0253 3.98218 23.1715 4.12846C23.3178 4.27473 23.4 4.47313 23.4 4.68V6.63H1.56V4.68C1.56 4.47313 1.64218 4.27473 1.78846 4.12846C1.93473 3.98218 2.13313 3.9 2.34 3.9V3.9ZM22.62 22.62H2.34C2.13313 22.62 1.93473 22.5378 1.78846 22.3915C1.64218 22.2453 1.56 22.0469 1.56 21.84V8.19H23.4V21.84C23.4 22.0469 23.3178 22.2453 23.1715 22.3915C23.0253 22.5378 22.8269 22.62 22.62 22.62Z" fill="white"/>
<path d="M17.55 10.6899C17.3855 10.5649 17.1781 10.5104 16.9733 10.5382C16.7686 10.5659 16.5833 10.6738 16.458 10.8381L10.7601 18.2949L8.4669 15.8457C8.39673 15.7709 8.31253 15.7107 8.21909 15.6685C8.12565 15.6262 8.0248 15.6028 7.92232 15.5996C7.81983 15.5963 7.7177 15.6133 7.62177 15.6495C7.52583 15.6857 7.43797 15.7404 7.3632 15.8106C7.28842 15.8808 7.2282 15.965 7.18597 16.0584C7.14374 16.1519 7.12032 16.2527 7.11706 16.3552C7.1138 16.4577 7.13076 16.5598 7.16697 16.6557C7.20318 16.7517 7.25793 16.8395 7.3281 16.9143L10.2531 20.0343C10.3262 20.112 10.4144 20.1739 10.5123 20.2162C10.6103 20.2584 10.7158 20.2802 10.8225 20.28H10.8615C10.9749 20.2741 11.0857 20.2434 11.1861 20.1902C11.2865 20.137 11.374 20.0625 11.4426 19.9719L17.6826 11.7819C17.8093 11.6193 17.8664 11.4132 17.8416 11.2085C17.8167 11.0039 17.7119 10.8175 17.55 10.6899Z" fill="white"/>
</g>
<defs>
<clipPath id="clip0_1_364">
<rect width="24.96" height="24.96" fill="white"/>
</clipPath>
</defs>
</svg>
