<svg width="27" height="27" viewBox="0 0 27 27" fill="none" xmlns="http://www.w3.org/2000/svg">
<path d="M6.69098 4.52822C9.86378 2.22305 11.4502 1.07046 13.2619 1.004C13.4073 0.998667 13.5527 0.998667 13.6981 1.004C15.5098 1.07046 17.0962 2.22305 20.269 4.52822C23.4418 6.83339 25.0282 7.98598 25.6513 9.68851C25.7013 9.82509 25.7462 9.96345 25.7861 10.1033C26.2827 11.8469 25.6768 13.7119 24.4649 17.4417C23.253 21.1716 22.647 23.0365 21.2203 24.1552C21.1059 24.2449 20.9882 24.3304 20.8675 24.4115C19.3627 25.4227 17.4018 25.4227 13.48 25.4227C9.55821 25.4227 7.59731 25.4227 6.09251 24.4115C5.9718 24.3304 5.8541 24.2449 5.73965 24.1552C4.31299 23.0365 3.70704 21.1715 2.49514 17.4417C1.28324 13.7119 0.677287 11.8469 1.17394 10.1033C1.21378 9.96345 1.25873 9.82509 1.30872 9.68851C1.93179 7.98598 3.51818 6.83339 6.69098 4.52822Z" fill="#FFC600"/>
<path d="M2.49514 17.4417L3.20843 17.2099L3.20843 17.2099L2.49514 17.4417ZM1.17394 10.1033L0.452626 9.89786L1.17394 10.1033ZM6.69098 4.52822L6.25014 3.92146L6.25014 3.92146L6.69098 4.52822ZM1.30872 9.68851L2.01303 9.94627L1.30872 9.68851ZM6.09251 24.4115L5.67421 25.034L5.67421 25.034L6.09251 24.4115ZM5.73965 24.1552L5.27687 24.7454L5.73965 24.1552ZM24.4649 17.4417L25.1782 17.6735L24.4649 17.4417ZM21.2203 24.1552L21.6831 24.7454L21.2203 24.1552ZM20.8675 24.4115L21.2858 25.034L21.2858 25.034L20.8675 24.4115ZM20.269 4.52822L19.8282 5.13498L20.269 4.52822ZM25.6513 9.68851L24.947 9.94627L25.6513 9.68851ZM25.7861 10.1033L26.5074 9.89786L26.5074 9.89786L25.7861 10.1033ZM13.6981 1.004L13.6706 1.75349L13.6981 1.004ZM13.2619 1.004L13.2894 1.75349L13.2619 1.004ZM3.20843 17.2099C2.59744 15.3295 2.15858 13.9755 1.92791 12.874C1.70085 11.7896 1.69242 11.0209 1.89525 10.3088L0.452626 9.89786C0.158805 10.9294 0.205025 11.9649 0.459752 13.1814C0.710872 14.3806 1.18093 15.824 1.78185 17.6735L3.20843 17.2099ZM6.25014 3.92146C4.67693 5.06446 3.44823 5.95591 2.54017 6.77852C1.61907 7.61294 0.973013 8.42352 0.604399 9.43075L2.01303 9.94627C2.26749 9.25097 2.72617 8.63399 3.54723 7.8902C4.38134 7.13458 5.53224 6.29715 7.13182 5.13498L6.25014 3.92146ZM1.89525 10.3088C1.93006 10.1865 1.96935 10.0656 2.01303 9.94627L0.604399 9.43075C0.548115 9.58455 0.49749 9.74036 0.452626 9.89786L1.89525 10.3088ZM13.48 24.6727C11.5028 24.6727 10.0795 24.6717 8.96053 24.5506C7.85909 24.4315 7.12536 24.202 6.51081 23.789L5.67421 25.034C6.56446 25.6322 7.56358 25.9083 8.79923 26.0419C10.0174 26.1737 11.5354 26.1727 13.48 26.1727V24.6727ZM1.78185 17.6735C2.38276 19.5229 2.85089 20.9669 3.35263 22.0847C3.86157 23.2186 4.43284 24.0835 5.27687 24.7454L6.20244 23.565C5.6198 23.1081 5.17476 22.4812 4.72109 21.4705C4.26022 20.4437 3.81942 19.0904 3.20843 17.2099L1.78185 17.6735ZM6.51081 23.789C6.40532 23.7181 6.30246 23.6434 6.20244 23.565L5.27687 24.7454C5.40574 24.8464 5.53828 24.9427 5.67421 25.034L6.51081 23.789ZM23.7516 17.2099C23.1406 19.0904 22.6998 20.4437 22.2389 21.4705C21.7852 22.4812 21.3402 23.1081 20.7576 23.565L21.6831 24.7454C22.5272 24.0835 23.0984 23.2186 23.6074 22.0847C24.1091 20.9669 24.5772 19.5229 25.1782 17.6735L23.7516 17.2099ZM13.48 26.1727C15.4246 26.1727 16.9426 26.1737 18.1608 26.0419C19.3964 25.9083 20.3955 25.6322 21.2858 25.034L20.4492 23.789C19.8346 24.202 19.1009 24.4315 17.9995 24.5506C16.8805 24.6717 15.4572 24.6727 13.48 24.6727V26.1727ZM20.7576 23.565C20.6575 23.6434 20.5547 23.7181 20.4492 23.789L21.2858 25.034C21.4217 24.9427 21.5543 24.8464 21.6831 24.7454L20.7576 23.565ZM19.8282 5.13498C21.4278 6.29715 22.5787 7.13458 23.4128 7.8902C24.2338 8.63399 24.6925 9.25097 24.947 9.94627L26.3556 9.43075C25.987 8.42352 25.3409 7.61294 24.4198 6.77852C23.5118 5.95591 22.2831 5.06446 20.7099 3.92146L19.8282 5.13498ZM25.1782 17.6735C25.7791 15.824 26.2491 14.3806 26.5002 13.1814C26.755 11.9649 26.8012 10.9294 26.5074 9.89786L25.0648 10.3088C25.2676 11.0209 25.2592 11.7896 25.0321 12.874C24.8014 13.9755 24.3626 15.3295 23.7516 17.2099L25.1782 17.6735ZM24.947 9.94627C24.9906 10.0656 25.0299 10.1865 25.0648 10.3088L26.5074 9.89786C26.4625 9.74036 26.4119 9.58455 26.3556 9.43075L24.947 9.94627ZM20.7099 3.92146C19.1366 2.77845 17.9091 1.88536 16.8462 1.27594C15.768 0.657773 14.7974 0.293823 13.7256 0.254503L13.6706 1.75349C14.4105 1.78064 15.139 2.02621 16.1001 2.57724C17.0765 3.13703 18.2286 3.97282 19.8282 5.13498L20.7099 3.92146ZM7.13182 5.13498C8.73141 3.97282 9.8835 3.13703 10.8599 2.57724C11.821 2.02621 12.5495 1.78064 13.2894 1.75349L13.2344 0.254503C12.1626 0.293823 11.192 0.657773 10.1138 1.27594C9.05086 1.88536 7.82336 2.77845 6.25014 3.92146L7.13182 5.13498ZM13.7256 0.254503C13.5619 0.248499 13.3981 0.248499 13.2344 0.254503L13.2894 1.75349C13.4164 1.74884 13.5436 1.74884 13.6706 1.75349L13.7256 0.254503Z" fill="#FFC600"/>
<path d="M11.1006 19.072C10.6864 19.072 10.3506 19.4077 10.3506 19.822C10.3506 20.2362 10.6864 20.572 11.1006 20.572V19.072ZM15.8595 20.572C16.2737 20.572 16.6095 20.2362 16.6095 19.822C16.6095 19.4077 16.2737 19.072 15.8595 19.072V20.572ZM11.1006 20.572H15.8595V19.072H11.1006V20.572Z" fill="#0047BA"/>
</svg>
