<svg width="25" height="25" viewBox="0 0 25 25" fill="none" xmlns="http://www.w3.org/2000/svg">
<path d="M20.1176 23.6409C20.3316 23.6409 20.5428 23.7223 20.7034 23.8774C21.7303 24.869 23.2282 25.1992 24.5598 24.7859C23.7028 23.0006 23.584 20.9553 24.2481 19.0615C25.0723 16.7052 25.2789 14.3435 24.3409 11.9749C23.5168 9.89415 21.9266 8.16542 19.9141 7.17963C20.0379 7.83971 20.1003 8.51227 20.1003 9.19193C20.1003 12.0769 18.991 14.7902 16.9768 16.8322C14.9623 18.8745 12.2619 20.0228 9.37316 20.0658C8.83646 20.0742 8.30216 20.0426 7.77393 19.973C9.36154 22.7558 12.3558 24.5683 15.646 24.6171C17.0854 24.6393 18.4674 24.3378 19.7544 23.7232C19.8703 23.6677 19.9944 23.6409 20.1176 23.6409V23.6409Z" fill="#FFC600"/>
<path d="M9.39691 0.00183395C4.27233 -0.0999213 0.0123842 4.04579 2.77873e-05 9.16926C-0.00299954 10.421 0.241349 11.6347 0.726339 12.7767C0.733382 12.7933 0.739931 12.8101 0.745862 12.8271C1.40996 14.7209 1.29128 16.7662 0.434233 18.5516C1.76595 18.9647 3.26367 18.6347 4.29061 17.6431C4.54361 17.3986 4.92215 17.3371 5.23959 17.4888C6.52645 18.1035 7.90864 18.4059 9.34792 18.3828C14.4324 18.3073 18.4152 14.2702 18.4151 9.19187C18.4152 4.2244 14.3696 0.101798 9.39691 0.00183395V0.00183395ZM4.29617 10.5647C3.55992 10.5647 2.96304 9.96878 2.96304 9.23376C2.96304 8.49874 3.55992 7.90285 4.29617 7.90285C5.03243 7.90285 5.62931 8.49874 5.62931 9.23376C5.62925 9.96878 5.03243 10.5647 4.29617 10.5647ZM9.20761 10.5647C8.47135 10.5647 7.87447 9.96878 7.87447 9.23376C7.87447 8.49874 8.47135 7.90285 9.20761 7.90285C9.94387 7.90285 10.5407 8.49874 10.5407 9.23376C10.5407 9.96878 9.94387 10.5647 9.20761 10.5647ZM14.1191 10.5647C13.3828 10.5647 12.786 9.96878 12.786 9.23376C12.786 8.49874 13.3828 7.90285 14.1191 7.90285C14.8554 7.90285 15.4522 8.49874 15.4522 9.23376C15.4522 9.96878 14.8554 10.5647 14.1191 10.5647Z" fill="#FFC600"/>
</svg>
