<svg width="22" height="22" viewBox="0 0 22 22" fill="none" xmlns="http://www.w3.org/2000/svg">
<path d="M21.84 6.24V3.9C21.84 3.27939 21.5935 2.68421 21.1546 2.24537C20.7158 1.80654 20.1206 1.56 19.5 1.56H16.38V0.78C16.38 0.573131 16.2978 0.374735 16.1515 0.228457C16.0053 0.0821783 15.8069 0 15.6 0C15.3931 0 15.1947 0.0821783 15.0485 0.228457C14.9022 0.374735 14.82 0.573131 14.82 0.78V1.56H7.02V0.78C7.02 0.573131 6.93782 0.374735 6.79154 0.228457C6.64527 0.0821783 6.44687 0 6.24 0C6.03313 0 5.83474 0.0821783 5.68846 0.228457C5.54218 0.374735 5.46 0.573131 5.46 0.78V1.56H2.34C1.71939 1.56 1.12421 1.80654 0.68537 2.24537C0.246535 2.68421 0 3.27939 0 3.9V6.24H21.84Z" fill="#FFC600"/>
<path d="M0 7.79999V19.5C0 20.1206 0.246535 20.7158 0.68537 21.1546C1.12421 21.5935 1.71939 21.84 2.34 21.84H19.5C20.1206 21.84 20.7158 21.5935 21.1546 21.1546C21.5935 20.7158 21.84 20.1206 21.84 19.5V7.79999H0ZM15.327 12.292L9.867 16.972C9.71776 17.0996 9.52588 17.1662 9.32968 17.1586C9.13347 17.1509 8.94738 17.0695 8.80854 16.9307L6.46854 14.5907C6.32646 14.4436 6.24784 14.2465 6.24961 14.042C6.25139 13.8375 6.33342 13.6419 6.47804 13.4972C6.62266 13.3526 6.81829 13.2706 7.02281 13.2688C7.22732 13.267 7.42435 13.3457 7.57146 13.4877L9.40134 15.3176L14.3153 11.1056C14.3927 11.0359 14.4832 10.9824 14.5815 10.9482C14.6799 10.9141 14.7841 10.8999 14.888 10.9066C14.9919 10.9134 15.0934 10.9408 15.1865 10.9874C15.2796 11.034 15.3625 11.0987 15.4302 11.1778C15.4979 11.2569 15.549 11.3488 15.5807 11.448C15.6123 11.5472 15.6238 11.6517 15.6144 11.7554C15.605 11.8591 15.5749 11.9599 15.526 12.0518C15.477 12.1436 15.4102 12.2248 15.3293 12.2904L15.327 12.292Z" fill="#FFC600"/>
</svg>
