<svg width="21" height="23" viewBox="0 0 21 23" fill="none" xmlns="http://www.w3.org/2000/svg">
<path d="M7.86942 3.03236C8.64277 0.322547 12.4831 0.322547 13.2564 3.03236C13.6713 4.48598 15.1647 5.3482 16.631 4.98066C19.3644 4.29549 21.2846 7.62131 19.3245 9.64596C18.2731 10.732 18.2731 12.4565 19.3245 13.5426C21.2846 15.5672 19.3644 18.893 16.631 18.2079C15.1647 17.8403 13.6713 18.7025 13.2564 20.1562C12.4831 22.866 8.64277 22.866 7.86942 20.1562C7.45458 18.7025 5.96116 17.8403 4.49487 18.2079C1.76143 18.893 -0.158736 15.5672 1.80136 13.5426C2.85281 12.4565 2.85281 10.732 1.80136 9.64596C-0.158735 7.62131 1.76143 4.29549 4.49487 4.98066C5.96116 5.3482 7.45458 4.48598 7.86942 3.03236Z" fill="#FFC600"/>
<path d="M4.49487 4.98066L4.31251 5.70815L4.49487 4.98066ZM7.86942 3.03236L7.14822 2.82654L7.86942 3.03236ZM1.80136 9.64596L2.34021 9.12428L1.80136 9.64596ZM1.80136 13.5426L1.26251 13.0209L1.26251 13.0209L1.80136 13.5426ZM4.49487 18.2079L4.67722 18.9353L4.49487 18.2079ZM7.86942 20.1562L7.14822 20.362L7.14822 20.362L7.86942 20.1562ZM13.2564 20.1562L13.9776 20.362L13.2564 20.1562ZM16.631 18.2079L16.8134 17.4804L16.631 18.2079ZM19.3245 13.5426L18.7857 14.0642L18.7857 14.0642L19.3245 13.5426ZM19.3245 9.64596L18.7857 9.12428L18.7857 9.12428L19.3245 9.64596ZM16.631 4.98066L16.4486 4.25317L16.631 4.98066ZM13.2564 3.03236L13.9776 2.82654L13.2564 3.03236ZM4.31251 5.70815C6.17142 6.17411 8.06471 5.08102 8.59063 3.23818L7.14822 2.82654C6.84445 3.89094 5.75091 4.5223 4.67722 4.25317L4.31251 5.70815ZM2.34021 9.12428C0.904943 7.64175 2.31097 5.20644 4.31251 5.70815L4.67722 4.25317C1.21189 3.38454 -1.22241 7.60087 1.26251 10.1676L2.34021 9.12428ZM2.34021 14.0642C3.67319 12.6873 3.67319 10.5012 2.34021 9.12428L1.26251 10.1676C2.03243 10.9629 2.03242 12.2256 1.26251 13.0209L2.34021 14.0642ZM4.31251 17.4804C2.31097 17.9821 0.904942 15.5468 2.34021 14.0642L1.26251 13.0209C-1.22241 15.5876 1.21189 19.804 4.67722 18.9353L4.31251 17.4804ZM8.59063 19.9503C8.06471 18.1075 6.17142 17.0144 4.31251 17.4804L4.67722 18.9353C5.75091 18.6662 6.84445 19.2976 7.14822 20.362L8.59063 19.9503ZM12.5352 19.9503C11.969 21.9346 9.15691 21.9346 8.59063 19.9503L7.14822 20.362C8.12863 23.7974 12.9972 23.7974 13.9776 20.362L12.5352 19.9503ZM16.8134 17.4804C14.9544 17.0144 13.0612 18.1075 12.5352 19.9503L13.9776 20.362C14.2814 19.2976 15.375 18.6662 16.4486 18.9353L16.8134 17.4804ZM18.7857 14.0642C20.2209 15.5468 18.8149 17.9821 16.8134 17.4804L16.4486 18.9353C19.914 19.804 22.3483 15.5876 19.8634 13.0209L18.7857 14.0642ZM18.7857 9.12428C17.4527 10.5012 17.4527 12.6873 18.7857 14.0642L19.8634 13.0209C19.0934 12.2256 19.0934 10.9629 19.8634 10.1676L18.7857 9.12428ZM16.8134 5.70815C18.8149 5.20644 20.2209 7.64175 18.7857 9.12428L19.8634 10.1676C22.3483 7.60087 19.914 3.38454 16.4486 4.25317L16.8134 5.70815ZM12.5352 3.23818C13.0612 5.08102 14.9544 6.17411 16.8134 5.70815L16.4486 4.25317C15.375 4.5223 14.2814 3.89094 13.9776 2.82654L12.5352 3.23818ZM13.9776 2.82654C12.9972 -0.608846 8.12863 -0.608845 7.14822 2.82654L8.59063 3.23818C9.15691 1.25394 11.969 1.25394 12.5352 3.23818L13.9776 2.82654Z" fill="#FFC600"/>
<path d="M7.5625 11.5942C7.5625 13.2511 8.90565 14.5942 10.5625 14.5942C12.2194 14.5942 13.5625 13.2511 13.5625 11.5942C13.5625 9.93738 12.2194 8.59424 10.5625 8.59424C8.90565 8.59424 7.5625 9.93738 7.5625 11.5942Z" fill="#FFC600"/>
<path d="M6.8125 11.5942C6.8125 13.6653 8.49143 15.3442 10.5625 15.3442V13.8442C9.31986 13.8442 8.3125 12.8369 8.3125 11.5942H6.8125ZM10.5625 15.3442C12.6336 15.3442 14.3125 13.6653 14.3125 11.5942H12.8125C12.8125 12.8369 11.8051 13.8442 10.5625 13.8442V15.3442ZM14.3125 11.5942C14.3125 9.52317 12.6336 7.84424 10.5625 7.84424V9.34424C11.8051 9.34424 12.8125 10.3516 12.8125 11.5942H14.3125ZM10.5625 7.84424C8.49143 7.84424 6.8125 9.52317 6.8125 11.5942H8.3125C8.3125 10.3516 9.31986 9.34424 10.5625 9.34424V7.84424Z" fill="#0047BA"/>
</svg>
