<svg width="22" height="24" viewBox="0 0 22 24" fill="none" xmlns="http://www.w3.org/2000/svg">
<path d="M4.77172 5.38642L4.58937 6.11391L4.77172 5.38642ZM8.14628 3.43812L7.42507 3.2323L8.14628 3.43812ZM2.07821 10.0517L2.61706 9.53005L2.07821 10.0517ZM2.07821 13.9483L1.53936 13.4266L1.53936 13.4266L2.07821 13.9483ZM4.77172 18.6136L4.95408 19.3411L4.77172 18.6136ZM8.14628 20.5619L7.42507 20.7677L7.42507 20.7677L8.14628 20.5619ZM13.5333 20.5619L14.2545 20.7677L13.5333 20.5619ZM16.9079 18.6136L17.0902 17.8861L16.9079 18.6136ZM19.6014 13.9483L19.0625 14.47L19.0625 14.47L19.6014 13.9483ZM19.6014 10.0517L19.0625 9.53005L19.0625 9.53005L19.6014 10.0517ZM16.9079 5.38642L16.7255 4.65893L16.9079 5.38642ZM13.5333 3.43812L14.2545 3.2323L13.5333 3.43812ZM4.58937 6.11391C6.44827 6.57987 8.34156 5.48678 8.86748 3.64394L7.42507 3.2323C7.12131 4.2967 6.02776 4.92806 4.95408 4.65893L4.58937 6.11391ZM2.61706 9.53005C1.1818 8.04752 2.58783 5.6122 4.58937 6.11391L4.95408 4.65893C1.48874 3.7903 -0.945558 8.00664 1.53936 10.5734L2.61706 9.53005ZM2.61706 14.47C3.95005 13.0931 3.95005 10.9069 2.61706 9.53005L1.53936 10.5734C2.30928 11.3687 2.30928 12.6314 1.53936 13.4266L2.61706 14.47ZM4.58937 17.8861C2.58783 18.3878 1.1818 15.9525 2.61706 14.47L1.53936 13.4266C-0.945558 15.9934 1.48874 20.2097 4.95408 19.3411L4.58937 17.8861ZM8.86749 20.3561C8.34156 18.5133 6.44827 17.4202 4.58937 17.8861L4.95408 19.3411C6.02776 19.072 7.12131 19.7033 7.42507 20.7677L8.86749 20.3561ZM12.8121 20.3561C12.2458 22.3403 9.43376 22.3403 8.86749 20.3561L7.42507 20.7677C8.40549 24.2031 13.2741 24.2031 14.2545 20.7677L12.8121 20.3561ZM17.0902 17.8861C15.2313 17.4202 13.338 18.5133 12.8121 20.3561L14.2545 20.7677C14.5583 19.7033 15.6518 19.072 16.7255 19.3411L17.0902 17.8861ZM19.0625 14.47C20.4978 15.9525 19.0918 18.3878 17.0902 17.8861L16.7255 19.3411C20.1908 20.2097 22.6251 15.9934 20.1402 13.4266L19.0625 14.47ZM19.0625 9.53005C17.7295 10.9069 17.7295 13.0931 19.0625 14.47L20.1402 13.4266C19.3703 12.6314 19.3703 11.3687 20.1402 10.5734L19.0625 9.53005ZM17.0902 6.11391C19.0918 5.6122 20.4978 8.04752 19.0625 9.53005L20.1402 10.5734C22.6251 8.00664 20.1908 3.7903 16.7255 4.65893L17.0902 6.11391ZM12.8121 3.64394C13.338 5.48678 15.2313 6.57987 17.0902 6.11391L16.7255 4.65893C15.6518 4.92806 14.5583 4.2967 14.2545 3.2323L12.8121 3.64394ZM14.2545 3.2323C13.2741 -0.203084 8.40549 -0.203083 7.42507 3.2323L8.86748 3.64394C9.43376 1.6597 12.2458 1.6597 12.8121 3.64394L14.2545 3.2323Z" fill="white"/>
<path d="M7.08984 12C7.08984 14.0711 8.76878 15.75 10.8398 15.75V14.25C9.5972 14.25 8.58984 13.2426 8.58984 12H7.08984ZM10.8398 15.75C12.9109 15.75 14.5898 14.0711 14.5898 12H13.0898C13.0898 13.2426 12.0825 14.25 10.8398 14.25V15.75ZM14.5898 12C14.5898 9.92893 12.9109 8.25 10.8398 8.25V9.75C12.0825 9.75 13.0898 10.7574 13.0898 12H14.5898ZM10.8398 8.25C8.76878 8.25 7.08984 9.92893 7.08984 12H8.58984C8.58984 10.7574 9.5972 9.75 10.8398 9.75V8.25Z" fill="#F7F7F7"/>
</svg>
