<svg width="25" height="25" viewBox="0 0 25 25" fill="none" xmlns="http://www.w3.org/2000/svg">
<path d="M23.5943 8.0358L17.5646 14.1435C17.0539 14.662 17.4204 15.5412 18.1495 15.5412H19.9644C20.6155 15.5412 21.2257 15.664 21.7969 15.9077C22.3662 16.1514 22.8672 16.4887 23.298 16.9195C23.7288 17.3503 24.0661 17.8572 24.3098 18.4381C24.5535 19.0191 24.6763 19.637 24.6763 20.2882C24.6763 20.9393 24.5535 21.5514 24.3098 22.1206C24.0661 22.6918 23.7288 23.1909 23.298 23.6217C22.8672 24.0526 22.3662 24.3898 21.7969 24.6335C21.2257 24.8772 20.6155 25 19.9644 25H12.3557C10.7025 25 9.12738 24.692 7.62629 24.076C6.12521 23.4599 4.79373 22.5573 3.6299 21.3701C2.44268 20.2063 1.54203 18.8748 0.924048 17.3737C0.308019 15.8726 0 14.2975 0 12.6443C0 10.9931 0.308019 9.42186 0.924048 7.93248C1.54008 6.44309 2.44268 5.10576 3.6299 3.91854C4.79373 2.75471 6.15445 1.84821 7.71402 1.19709C8.45871 0.894924 9.39445 0.637594 10.5232 0.429002C11.6519 0.22041 12.845 0.0858977 14.1004 0.0274139C15.3559 -0.0310699 16.6133 0.00402205 17.8707 0.132686C19.1262 0.261351 20.2607 0.516728 21.2745 0.900771C22.2862 1.28481 23.107 1.81312 23.7347 2.48763C24.3624 3.16215 24.6763 4.01211 24.6763 5.03558C24.6763 6.17406 24.3137 7.17413 23.5943 8.0358Z" fill="#FF647E"/>
</svg>
