<svg width="25" height="25" viewBox="0 0 25 25" fill="none" xmlns="http://www.w3.org/2000/svg">
<g clip-path="url(#clip0_15_95)">
<path d="M12.5 0C9.50676 0 7.07239 2.43542 7.07239 5.42917C7.07239 8.42396 9.50728 10.8599 12.5 10.8599C15.4927 10.8599 17.9281 8.42396 17.9281 5.42917C17.9281 2.43542 15.4927 0 12.5 0V0Z" fill="white"/>
<path d="M16.6943 12.3922C16.8875 13.2281 17.1927 14.7479 17.0911 15.6292C17.8896 16.337 19.9844 18.4234 19.5286 20.4823C19.5255 20.5068 19.3099 21.6906 17.8411 22.1932C17.7854 22.2125 17.7281 22.2219 17.6724 22.2219C17.4557 22.2219 17.2542 22.0854 17.1802 21.8688C17.0865 21.5964 17.2323 21.3 17.5047 21.2073C18.3786 20.9083 18.5057 20.2885 18.5078 20.2828C18.8193 18.8708 17.2568 17.1568 16.388 16.3948C15.3484 16.8995 13.3828 18.1375 13.3068 19.5552C13.3036 19.599 13.2713 20.2266 14.0229 20.738C14.2609 20.9 14.3229 21.2245 14.1604 21.4625C14.0599 21.6099 13.8958 21.6906 13.7302 21.6906C13.6286 21.6906 13.5266 21.6609 13.437 21.6C12.1521 20.726 12.263 19.524 12.2677 19.4729C12.3859 17.2724 15.262 15.7729 16.0646 15.3958C16.1125 14.6146 15.788 13.001 15.549 12.0896C15.5417 12.0609 15.5469 12.0333 15.5437 12.0047C14.7859 11.7984 13.9917 11.6786 13.1682 11.6786H11.8312C10.9094 11.6786 10.0198 11.8193 9.18072 12.076C9.17187 12.113 9.16978 12.1516 9.15156 12.1875C9.1401 12.2109 8.01249 14.5516 7.47343 18.1313C8.37916 18.3813 9.04999 19.2036 9.04999 20.187C9.04999 21.3672 8.08958 22.3271 6.90989 22.3271C5.72916 22.3271 4.76874 21.3667 4.76874 20.187C4.76874 19.175 5.4776 18.3286 6.42395 18.1078C6.7901 15.5859 7.42864 13.6656 7.83697 12.6177C4.83281 14.099 2.75572 17.1859 2.75572 20.7568V24.4792C2.75572 24.7672 2.98853 25 3.27656 25H21.7255C22.0135 25 22.2463 24.7599 22.2463 24.4719V20.7568C22.2453 17.0016 19.9536 13.7714 16.6943 12.3922V12.3922Z" fill="white"/>
</g>
<defs>
<clipPath id="clip0_15_95">
<rect width="25" height="25" fill="white"/>
</clipPath>
</defs>
</svg>
