<svg width="18" height="21" viewBox="0 0 18 21" fill="none" xmlns="http://www.w3.org/2000/svg">
<path fill-rule="evenodd" clip-rule="evenodd" d="M8.79383 17.0591V18.0558C8.79383 18.8551 8.39547 19.5451 7.70324 19.9448C7.3702 20.137 6.99848 20.2443 6.61309 20.2445C6.22734 20.2447 5.85574 20.1372 5.52246 19.9448L1.09059 17.386C0.398281 16.9863 0 16.2965 0 15.4971V2.42562C0 1.22284 0.978437 0.244446 2.18117 0.244446H11.9418C13.1446 0.244446 14.1231 1.22277 14.1231 2.42562V5.18105C14.1231 5.57632 13.8021 5.89726 13.4069 5.89726C13.0115 5.89726 12.6908 5.57636 12.6908 5.18105V2.42562C12.6908 2.01261 12.3548 1.67656 11.9418 1.67656H3.38895L7.70324 4.16784C8.39523 4.56745 8.79383 5.2573 8.79383 6.0564V15.6268H11.9418C12.3547 15.6268 12.6908 15.291 12.6908 14.8779V12.4625C12.6908 12.0669 13.0113 11.7462 13.4069 11.7462C13.8023 11.7462 14.1231 12.067 14.1231 12.4625V14.8779C14.1231 16.0808 13.1446 17.0591 11.9418 17.0591H8.79383ZM15.4299 9.36781L14.6412 10.1565C14.3615 10.4362 14.3616 10.8895 14.6412 11.1692C14.7758 11.3039 14.9572 11.3787 15.1475 11.3787C15.3381 11.3787 15.5193 11.3041 15.6541 11.1692L17.665 9.15796C17.9446 8.87835 17.9446 8.42523 17.665 8.14562L15.6541 6.13468C15.3744 5.85499 14.921 5.85511 14.6412 6.13464C14.3616 6.41402 14.3617 6.86757 14.6412 7.14702L15.4299 7.93554H10.1463C9.75062 7.93554 9.43024 8.25616 9.43024 8.65179C9.43024 9.04741 9.75066 9.36784 10.1463 9.36784H15.4299V9.36781Z" fill="white"/>
</svg>
