<svg width="25" height="23" viewBox="0 0 25 23" fill="none" xmlns="http://www.w3.org/2000/svg">
<path d="M19.7916 0.922058H5.20834C4.79408 0.922459 4.39692 1.06831 4.10399 1.3276C3.81106 1.5869 3.6463 1.93846 3.64584 2.30516V20.4551C3.64583 20.573 3.67986 20.6889 3.74471 20.7919C3.80956 20.8949 3.90306 20.9815 4.01635 21.0434C4.12964 21.1054 4.25894 21.1407 4.39198 21.146C4.52503 21.1513 4.65739 21.1264 4.77651 21.0737L6.13354 20.4729C6.16971 20.4569 6.20959 20.4486 6.25002 20.4486C6.29045 20.4486 6.33033 20.4569 6.3665 20.4729L7.75097 21.0857C7.93193 21.1653 8.13127 21.2067 8.33334 21.2067C8.53542 21.2067 8.73475 21.1653 8.91572 21.0857L10.3002 20.4729C10.3364 20.4569 10.3762 20.4486 10.4167 20.4486C10.4571 20.4486 10.497 20.4569 10.5331 20.4729L11.9176 21.0857C12.0986 21.1653 12.2979 21.2067 12.5 21.2067C12.7021 21.2067 12.9014 21.1653 13.0824 21.0857L14.4668 20.4729C14.5029 20.4569 14.5428 20.4485 14.5832 20.4485C14.6236 20.4485 14.6634 20.4569 14.6996 20.4729L16.0843 21.0857C16.2652 21.1653 16.4646 21.2067 16.6666 21.2067C16.8687 21.2067 17.068 21.1653 17.249 21.0857L18.6335 20.4729C18.6697 20.4569 18.7095 20.4486 18.75 20.4486C18.7904 20.4486 18.8303 20.4569 18.8664 20.4729L20.2235 21.0737C20.3426 21.1264 20.475 21.1513 20.608 21.146C20.741 21.1407 20.8704 21.1054 20.9836 21.0434C21.0969 20.9815 21.1904 20.8949 21.2553 20.7919C21.3201 20.6889 21.3542 20.573 21.3541 20.4551V2.30516C21.3537 1.93846 21.1889 1.5869 20.896 1.3276C20.6031 1.06831 20.2059 0.922459 19.7916 0.922058V0.922058ZM11.1763 5.05265C11.4299 4.93972 11.7002 4.85894 11.9792 4.81268V4.14931C11.9785 4.08839 11.9915 4.02796 12.0174 3.97151C12.0433 3.91506 12.0815 3.8637 12.1299 3.82042C12.1784 3.77713 12.236 3.74277 12.2995 3.71932C12.3631 3.69587 12.4312 3.6838 12.5 3.6838C12.5688 3.6838 12.637 3.69587 12.7005 3.71932C12.764 3.74277 12.8217 3.77713 12.8701 3.82042C12.9185 3.8637 12.9568 3.91506 12.9827 3.97151C13.0085 4.02796 13.0215 4.08839 13.0208 4.14931V4.78938C13.6554 4.86528 14.2975 5.09954 14.8918 5.48638C14.9474 5.52207 14.9945 5.56715 15.0303 5.619C15.0661 5.67086 15.09 5.72847 15.1006 5.78853C15.1112 5.84859 15.1082 5.90991 15.0919 5.96895C15.0756 6.028 15.0463 6.08361 15.0056 6.13259C14.9649 6.18156 14.9137 6.22293 14.8549 6.25432C14.7961 6.28571 14.7309 6.30649 14.663 6.31547C14.5951 6.32445 14.5258 6.32146 14.4592 6.30666C14.3926 6.29186 14.33 6.26555 14.2749 6.22924C13.4021 5.66117 12.4199 5.52904 11.6466 5.87538C11.2227 6.06525 10.9375 6.3854 10.9375 6.67148C10.9375 7.22987 11.5799 7.49114 12.3561 7.75203C12.4891 7.79672 12.61 7.83757 12.7103 7.87686C12.8107 7.91614 12.9263 7.95466 13.0501 7.99671C13.8184 8.25647 15.1042 8.69129 15.1042 9.9257C15.1042 10.5705 14.6136 11.1909 13.8237 11.5446C13.57 11.6567 13.2997 11.7367 13.0208 11.7821V12.4479C13.0195 12.5694 12.9641 12.6855 12.8665 12.771C12.769 12.8565 12.6373 12.9045 12.5 12.9045C12.3628 12.9045 12.231 12.8565 12.1335 12.771C12.036 12.6855 11.9805 12.5694 11.9792 12.4479V11.8054C11.3444 11.7295 10.7025 11.4978 10.1082 11.1108C10.0526 11.0752 10.0056 11.0301 9.96973 10.9782C9.9339 10.9264 9.91001 10.8688 9.89944 10.8087C9.88886 10.7486 9.89181 10.6873 9.90811 10.6283C9.92441 10.5692 9.95374 10.5136 9.99441 10.4646C10.0351 10.4157 10.0863 10.3743 10.1451 10.3429C10.2039 10.3115 10.2691 10.2907 10.3371 10.2818C10.405 10.2728 10.4742 10.2758 10.5408 10.2906C10.6074 10.3054 10.6701 10.3317 10.7251 10.368C11.5979 10.9358 12.5798 11.0682 13.3535 10.7219C13.7774 10.532 14.0625 10.2119 14.0625 9.92579C14.0625 9.36918 13.4888 9.13215 12.6783 8.85821C12.5367 8.81028 12.4044 8.76537 12.2899 8.72068C12.2037 8.68701 12.1002 8.65247 11.9863 8.61418C11.2556 8.36868 9.89584 7.91161 9.89584 6.67165C9.89584 6.02665 10.3864 5.40633 11.1763 5.05265V5.05265ZM16.6666 17.0583H8.33334C8.26452 17.0589 8.19625 17.0474 8.13248 17.0245C8.06871 17.0016 8.01069 16.9677 7.96179 16.9248C7.91289 16.882 7.87407 16.8309 7.84758 16.7747C7.82109 16.7185 7.80745 16.6582 7.80745 16.5972C7.80745 16.5363 7.82109 16.476 7.84758 16.4198C7.87407 16.3636 7.91289 16.3125 7.96179 16.2697C8.01069 16.2268 8.06871 16.1929 8.13248 16.17C8.19625 16.1471 8.26452 16.1356 8.33334 16.1362H16.6666C16.8039 16.1374 16.9351 16.1865 17.0317 16.2728C17.1283 16.3591 17.1825 16.4757 17.1825 16.5972C17.1825 16.7188 17.1283 16.8353 17.0317 16.9217C16.9351 17.008 16.8039 17.0571 16.6666 17.0583V17.0583ZM16.6666 15.2141H8.33334C8.19609 15.2129 8.0649 15.1639 7.96831 15.0775C7.87172 14.9912 7.81754 14.8746 7.81754 14.7531C7.81754 14.6316 7.87172 14.515 7.96831 14.4287C8.0649 14.3423 8.19609 14.2932 8.33334 14.2921H16.6666C16.8039 14.2932 16.9351 14.3423 17.0317 14.4287C17.1283 14.515 17.1825 14.6316 17.1825 14.7531C17.1825 14.8746 17.1283 14.9912 17.0317 15.0775C16.9351 15.1639 16.8039 15.2129 16.6666 15.2141Z" fill="white"/>
</svg>
