<svg width="25" height="23" viewBox="0 0 25 23" fill="none" xmlns="http://www.w3.org/2000/svg">
<path d="M16.8646 1.91669H8.13541C4.34374 1.91669 2.08333 3.99627 2.08333 7.4846V15.5154C2.08333 19.0038 4.34374 21.0834 8.13541 21.0834H16.8646C20.6562 21.0834 22.9167 19.0038 22.9167 15.5154V7.4846C22.9167 3.99627 20.6562 1.91669 16.8646 1.91669V1.91669ZM10.3885 14.2792L8.04479 16.4354C7.97259 16.5025 7.88658 16.5557 7.7918 16.5919C7.69701 16.6281 7.59533 16.6466 7.4927 16.6463C7.38992 16.6476 7.28793 16.6296 7.19299 16.5933C7.09805 16.5571 7.01217 16.5033 6.94062 16.4354L6.15937 15.7167C6.08501 15.651 6.02585 15.5721 5.98544 15.4848C5.94503 15.3975 5.9242 15.3036 5.9242 15.2088C5.9242 15.1139 5.94503 15.02 5.98544 14.9327C6.02585 14.8455 6.08501 14.7666 6.15937 14.7009C6.30639 14.5672 6.50476 14.4922 6.71145 14.4922C6.91815 14.4922 7.11652 14.5672 7.26354 14.7009L7.4927 14.9117L9.28437 13.2634C9.35589 13.1927 9.44214 13.1361 9.53798 13.0968C9.63381 13.0575 9.73726 13.0364 9.84216 13.0347C9.94706 13.033 10.0513 13.0508 10.1485 13.0869C10.2458 13.1231 10.3342 13.1769 10.4084 13.2451C10.4826 13.3134 10.541 13.3947 10.5803 13.4842C10.6196 13.5737 10.6389 13.6695 10.6371 13.766C10.6352 13.8625 10.6123 13.9577 10.5696 14.0459C10.5269 14.134 10.4653 14.2134 10.3885 14.2792V14.2792ZM10.3885 7.57085L8.04479 9.7271C7.97259 9.79421 7.88658 9.84741 7.7918 9.88361C7.69701 9.91981 7.59533 9.93828 7.4927 9.93794C7.38992 9.93927 7.28793 9.92125 7.19299 9.88499C7.09805 9.84874 7.01217 9.79501 6.94062 9.7271L6.15937 9.00835C6.08501 8.94263 6.02585 8.86376 5.98544 8.77648C5.94503 8.6892 5.9242 8.59531 5.9242 8.50044C5.9242 8.40557 5.94503 8.31168 5.98544 8.2244C6.02585 8.13712 6.08501 8.05825 6.15937 7.99252C6.30639 7.85885 6.50476 7.78389 6.71145 7.78389C6.91815 7.78389 7.11652 7.85885 7.26354 7.99252L7.4927 8.20336L9.28437 6.55502C9.35589 6.4844 9.44214 6.42777 9.53798 6.38848C9.63381 6.3492 9.73726 6.32807 9.84216 6.32637C9.94706 6.32467 10.0513 6.34242 10.1485 6.37857C10.2458 6.41472 10.3342 6.46852 10.4084 6.53678C10.4826 6.60503 10.541 6.68633 10.5803 6.77582C10.6196 6.86532 10.6389 6.96118 10.6371 7.05769C10.6352 7.1542 10.6123 7.24937 10.5696 7.33754C10.5269 7.4257 10.4653 7.50505 10.3885 7.57085ZM18.2937 15.9275H12.825C12.6178 15.9275 12.4191 15.8518 12.2726 15.717C12.1261 15.5822 12.0437 15.3994 12.0437 15.2088C12.0437 15.0181 12.1261 14.8353 12.2726 14.7005C12.4191 14.5657 12.6178 14.49 12.825 14.49H18.2937C18.5009 14.49 18.6997 14.5657 18.8462 14.7005C18.9927 14.8353 19.075 15.0181 19.075 15.2088C19.075 15.3994 18.9927 15.5822 18.8462 15.717C18.6997 15.8518 18.5009 15.9275 18.2937 15.9275ZM18.2937 9.21919H12.825C12.6178 9.21919 12.4191 9.14346 12.2726 9.00867C12.1261 8.87388 12.0437 8.69106 12.0437 8.50044C12.0437 8.30981 12.1261 8.127 12.2726 7.99221C12.4191 7.85741 12.6178 7.78169 12.825 7.78169H18.2937C18.5009 7.78169 18.6997 7.85741 18.8462 7.99221C18.9927 8.127 19.075 8.30981 19.075 8.50044C19.075 8.69106 18.9927 8.87388 18.8462 9.00867C18.6997 9.14346 18.5009 9.21919 18.2937 9.21919Z" fill="white"/>
</svg>
