<svg width="246" height="251" viewBox="0 0 246 251" fill="none" xmlns="http://www.w3.org/2000/svg">
<path d="M232.668 98.756L158.665 173.741C152.381 180.115 156.903 190.894 165.83 190.894H188.119C196.107 190.894 203.625 192.392 210.614 195.388C217.603 198.384 223.74 202.526 229.026 207.812C234.312 213.099 238.453 219.326 241.448 226.463C244.444 233.601 245.941 241.178 245.941 249.167C245.941 257.186 244.444 264.676 241.448 271.666C238.453 278.686 234.312 284.824 229.026 290.082C223.74 295.369 217.603 299.51 210.614 302.506C203.625 305.502 196.107 307 188.119 307H94.7056C74.4136 307 55.0612 303.211 36.6487 295.633C18.2361 288.055 1.87916 276.982 -12.4222 262.414C-26.9878 248.14 -38.0588 231.78 -45.6353 213.334C-53.2117 194.918 -57 175.562 -57 155.267C-57 135 -53.2117 115.703 -45.6353 97.405C-38.0588 79.1359 -26.9878 62.6878 -12.4222 48.1196C1.8498 33.845 18.5592 22.6838 37.7059 14.6948C46.8388 10.994 58.3503 7.82179 72.2111 5.26647C86.0719 2.68178 100.696 1.06637 116.143 0.332079C131.56 -0.372837 147.007 0.0383708 162.424 1.62443C177.841 3.21049 191.761 6.35322 204.212 11.0527C216.634 15.7521 226.706 22.2726 234.43 30.5554C242.153 38.8382 246 49.265 246 61.836C245.971 75.905 241.536 88.1823 232.668 98.756Z" fill="white" fill-opacity="0.3"/>
</svg>
