<svg width="20" height="18" viewBox="0 0 20 18" fill="none" xmlns="http://www.w3.org/2000/svg">
<path d="M17.4119 0.176483H15.6472V1.94119C15.6472 2.29413 15.3531 2.52942 15.059 2.52942C14.7649 2.52942 14.4707 2.29413 14.4707 1.94119V0.176483H5.05897V1.94119C5.05897 2.29413 4.76485 2.52942 4.47073 2.52942C4.17661 2.52942 3.8825 2.29413 3.8825 1.94119V0.176483H2.11779C1.23544 0.176483 0.588379 0.941189 0.588379 1.94119V4.05884H19.4119V1.94119C19.4119 0.941189 18.3531 0.176483 17.4119 0.176483ZM0.588379 5.29413V16.0588C0.588379 17.1177 1.23544 17.8235 2.17661 17.8235H17.4707C18.4119 17.8235 19.4707 17.0588 19.4707 16.0588V5.29413H0.588379ZM5.82367 15.1765H4.41191C4.17661 15.1765 3.94132 15 3.94132 14.7059V13.2353C3.94132 13 4.11779 12.7647 4.41191 12.7647H5.8825C6.11779 12.7647 6.35309 12.9412 6.35309 13.2353V14.7059C6.29426 15 6.11779 15.1765 5.82367 15.1765ZM5.82367 9.88236H4.41191C4.17661 9.88236 3.94132 9.70589 3.94132 9.41178V7.94119C3.94132 7.70589 4.11779 7.4706 4.41191 7.4706H5.8825C6.11779 7.4706 6.35309 7.64707 6.35309 7.94119V9.41178C6.29426 9.70589 6.11779 9.88236 5.82367 9.88236ZM10.5296 15.1765H9.05897C8.82367 15.1765 8.58838 15 8.58838 14.7059V13.2353C8.58838 13 8.76485 12.7647 9.05897 12.7647H10.5296C10.7648 12.7647 11.0001 12.9412 11.0001 13.2353V14.7059C11.0001 15 10.8237 15.1765 10.5296 15.1765ZM10.5296 9.88236H9.05897C8.82367 9.88236 8.58838 9.70589 8.58838 9.41178V7.94119C8.58838 7.70589 8.76485 7.4706 9.05897 7.4706H10.5296C10.7648 7.4706 11.0001 7.64707 11.0001 7.94119V9.41178C11.0001 9.70589 10.8237 9.88236 10.5296 9.88236ZM15.2354 15.1765H13.7648C13.5296 15.1765 13.2943 15 13.2943 14.7059V13.2353C13.2943 13 13.4707 12.7647 13.7648 12.7647H15.2354C15.4707 12.7647 15.706 12.9412 15.706 13.2353V14.7059C15.706 15 15.5296 15.1765 15.2354 15.1765ZM15.2354 9.88236H13.7648C13.5296 9.88236 13.2943 9.70589 13.2943 9.41178V7.94119C13.2943 7.70589 13.4707 7.4706 13.7648 7.4706H15.2354C15.4707 7.4706 15.706 7.64707 15.706 7.94119V9.41178C15.706 9.70589 15.5296 9.88236 15.2354 9.88236Z" fill="#40D4AF"/>
</svg>
