<svg width="225" height="104" viewBox="0 0 225 104" fill="none" xmlns="http://www.w3.org/2000/svg">
<path d="M24.3262 0.694794C27.515 0.694794 30.528 1.31723 33.3605 2.55308C36.1931 3.79345 38.6738 5.47583 40.8027 7.60024C42.9271 9.72465 44.6095 12.2189 45.8499 15.074C47.0902 17.9291 47.7082 20.9556 47.7082 24.1444C47.7082 27.3784 47.0767 30.4229 45.8138 33.278C44.5509 36.1331 42.855 38.6274 40.7306 40.7518C38.6062 42.8762 36.1254 44.5631 33.2884 45.8035C30.4513 47.0438 27.4429 47.6618 24.254 47.6618H9.70792C8.46755 47.6618 7.30387 47.4272 6.22137 46.9626C5.13436 46.4981 4.18266 45.8576 3.36627 45.0367C2.54538 44.2158 1.9049 43.2641 1.44033 42.1816C0.975752 41.0991 0.741211 39.9354 0.741211 38.6951V9.6615C0.741211 8.42114 0.975752 7.25745 1.44033 6.17495C1.9049 5.09245 2.54538 4.13624 3.36627 3.31986C4.18717 2.49896 5.13887 1.85848 6.22137 1.39391C7.30387 0.929337 8.46755 0.694794 9.70792 0.694794H24.3262Z" fill="white"/>
<path d="M166.147 25.2405C165.24 25.4525 164.609 26.2643 164.609 27.1935V35.2626C164.609 36.9946 164.284 38.6094 163.643 40.0978C162.998 41.5862 162.11 42.8988 160.978 44.0309C159.846 45.163 158.52 46.0561 157.009 46.701C155.498 47.346 153.874 47.6663 152.137 47.6663C150.405 47.6663 148.791 47.3415 147.302 46.701C145.814 46.0561 144.501 45.1675 143.369 44.0309C142.237 42.8988 141.344 41.5862 140.703 40.0978C140.059 38.6094 139.738 36.9946 139.738 35.2626V27.1935C139.738 26.2643 139.102 25.4525 138.2 25.2405C137.212 25.0105 136.27 24.6632 135.372 24.2076C134.015 23.5175 132.837 22.6199 131.836 21.5059C130.835 20.3963 130.045 19.1289 129.468 17.7036C128.891 16.2828 128.602 14.7673 128.602 13.1661C128.602 11.4296 128.922 9.81035 129.567 8.29936C130.212 6.78837 131.101 5.4623 132.237 4.33019C133.37 3.19807 134.682 2.30501 136.171 1.66002C137.659 1.01503 139.274 0.694794 141.006 0.694794H163.283C165.019 0.694794 166.638 1.01954 168.154 1.66002C169.665 2.30501 170.991 3.19356 172.123 4.33019C173.255 5.4623 174.144 6.78837 174.793 8.29936C175.438 9.81035 175.758 11.4341 175.758 13.1661C175.758 14.7673 175.47 16.2783 174.892 17.7036C174.315 19.1289 173.526 20.3963 172.524 21.5059C171.523 22.6154 170.346 23.5175 168.988 24.2076C168.077 24.6632 167.135 25.0105 166.147 25.2405Z" fill="white"/>
<path d="M122.044 15.7957L110.714 27.2702C109.753 28.2444 110.443 29.8952 111.81 29.8952H115.22C116.442 29.8952 117.592 30.1253 118.661 30.5853C119.73 31.0454 120.673 31.6768 121.48 32.4887C122.288 33.2961 122.923 34.2478 123.384 35.3393C123.844 36.4308 124.074 37.59 124.074 38.8168C124.074 40.0392 123.844 41.1893 123.384 42.2583C122.923 43.3318 122.292 44.2699 121.48 45.0773C120.673 45.8892 119.73 46.5206 118.661 46.9807C117.588 47.4408 116.442 47.6708 115.22 47.6708H100.922C97.8185 47.6708 94.8551 47.0934 92.0361 45.9343C89.2171 44.7751 86.7138 43.0837 84.5263 40.851C82.2981 38.6635 80.6022 36.1602 79.4431 33.3412C78.2839 30.5222 77.7065 27.5588 77.7065 24.4557C77.7065 21.3525 78.2839 18.4027 79.4431 15.6017C80.6022 12.8053 82.2981 10.2885 84.5263 8.06031C86.7138 5.87275 89.2712 4.16782 92.1985 2.94549C93.5967 2.37718 95.3558 1.89456 97.4757 1.50216C99.5956 1.10975 101.837 0.857167 104.196 0.748917C106.555 0.640667 108.919 0.703814 111.278 0.947377C113.637 1.18643 115.77 1.66904 117.673 2.39071C119.577 3.11238 121.115 4.10467 122.297 5.37209C123.478 6.63952 124.069 8.23621 124.069 10.1622C124.078 12.3001 123.402 14.1809 122.044 15.7957Z" fill="white"/>
<path d="M52.1147 11.3259C52.1147 9.86448 52.3899 8.49331 52.9447 7.20785C53.4994 5.92238 54.2482 4.79477 55.2044 3.82052C56.1561 2.84627 57.2747 2.08401 58.5601 1.52923C59.8456 0.974451 61.2168 0.69931 62.6781 0.69931C64.1395 0.69931 65.5107 0.974451 66.7962 1.52923C68.0816 2.08401 69.2092 2.84627 70.1835 3.82052C71.1577 4.79477 71.92 5.92689 72.4748 7.20785C73.0295 8.49331 73.3047 9.86448 73.3047 11.3259V37.1029C73.3047 38.5643 73.0295 39.9399 72.4748 41.2209C71.92 42.5064 71.1577 43.625 70.1835 44.5767C69.2092 45.5284 68.0771 46.2816 66.7962 46.8364C65.5107 47.3911 64.1395 47.6663 62.6781 47.6663C61.2168 47.6663 59.8411 47.3911 58.5601 46.8364C57.2747 46.2816 56.1561 45.5284 55.2044 44.5767C54.2527 43.625 53.4994 42.5064 52.9447 41.2209C52.3899 39.9354 52.1147 38.5643 52.1147 37.1029V11.3259Z" fill="white"/>
<path d="M216.041 75.906C215.311 76.1045 215.175 77.0832 215.816 77.4892L218.057 78.9054C220.484 80.466 222.198 82.5679 223.195 85.211C224.061 87.5519 224.377 89.6988 224.137 91.6473C223.898 93.5958 223.235 95.3098 222.153 96.7847C221.07 98.2596 219.641 99.4955 217.863 100.492C216.086 101.489 214.115 102.184 211.946 102.572C209.993 102.919 208.022 103.176 206.028 103.352C204.035 103.523 202.041 103.613 200.047 103.613C198.618 103.613 196.958 103.537 195.072 103.388C193.187 103.235 191.333 102.932 189.511 102.477C187.689 102.021 186.011 101.349 184.473 100.461C182.935 99.5722 181.776 98.3904 180.995 96.9155C180.431 95.833 180.152 94.6423 180.152 93.3387C180.152 92.0397 180.391 90.8039 180.869 89.6312C181.347 88.4585 182.006 87.4527 182.854 86.6092C183.697 85.7658 184.676 85.0937 185.781 84.5931C186.2 84.4036 186.633 84.2503 187.08 84.133C187.319 84.0698 187.558 84.0202 187.797 83.9751C187.973 83.9436 188.185 83.9481 188.347 83.8714C188.501 83.7947 188.613 83.6504 188.663 83.488C188.713 83.3256 188.708 83.1497 188.668 82.9828C188.519 82.3604 187.919 82.0582 187.427 81.738C187.107 81.5305 186.787 81.314 186.462 81.1155C184.035 79.6406 182.321 77.5388 181.325 74.81C180.459 72.5548 180.143 70.4664 180.382 68.536C180.621 66.6055 181.261 64.8961 182.299 63.3986C183.341 61.9011 184.725 60.6563 186.462 59.6595C188.194 58.6627 190.147 57.9455 192.312 57.5125C194.175 57.1652 196.06 56.9036 197.968 56.7322C199.876 56.5608 201.802 56.4706 203.755 56.4706C205.14 56.4706 206.723 56.5473 208.5 56.6961C210.277 56.8495 212.045 57.1517 213.8 57.6072C215.554 58.0628 217.169 58.7123 218.644 59.5602C220.119 60.4037 221.246 61.5448 222.027 62.9746C222.631 64.1879 222.938 65.4463 222.938 66.7453C222.938 68.0443 222.699 69.2622 222.221 70.3852C221.742 71.5129 221.093 72.5097 220.268 73.3757C219.442 74.2417 218.481 74.9272 217.376 75.4234C216.939 75.6218 216.497 75.7797 216.041 75.906Z" fill="white"/>
<path d="M49.9044 56.4706C53.0933 56.4706 56.1062 57.093 58.9388 58.3289C61.7713 59.5693 64.2521 61.2517 66.381 63.3761C68.5054 65.5005 70.1878 67.9947 71.4281 70.8498C72.6685 73.7049 73.2864 76.7314 73.2864 79.9203C73.2864 83.1542 72.655 86.1988 71.392 89.0584C70.1291 91.9135 68.4332 94.4077 66.3088 96.5321C64.1844 98.6565 61.7037 100.343 58.8666 101.579C56.0296 102.82 53.0211 103.438 49.8323 103.438H35.2817C34.0413 103.438 32.8776 103.203 31.7951 102.738C30.7081 102.274 29.7564 101.633 28.94 100.813C28.1191 99.9916 27.4786 99.0399 27.0141 97.9574C26.5495 96.8749 26.3149 95.7112 26.3149 94.4709V65.4373C26.3149 64.197 26.5495 63.0333 27.0141 61.9508C27.4786 60.8683 28.1191 59.9121 28.94 59.0957C29.7609 58.2748 30.7126 57.6343 31.7951 57.1697C32.8776 56.7051 34.0413 56.4706 35.2817 56.4706H49.9044Z" fill="white"/>
<path d="M122.166 71.5805L110.8 83.0956C109.835 84.0743 110.529 85.7297 111.9 85.7297H115.324C116.551 85.7297 117.705 85.9597 118.779 86.4198C119.852 86.8798 120.795 87.5158 121.607 88.3277C122.419 89.1395 123.055 90.0958 123.515 91.1918C123.975 92.2878 124.205 93.4515 124.205 94.6783C124.205 95.9097 123.975 97.0598 123.515 98.1333C123.055 99.2113 122.419 100.154 121.607 100.961C120.795 101.773 119.852 102.409 118.779 102.869C117.705 103.329 116.551 103.559 115.324 103.559H100.976C97.8594 103.559 94.887 102.978 92.059 101.814C89.231 100.65 86.7187 98.9497 84.5221 96.7125C82.2849 94.5205 80.5845 92.0082 79.4208 89.1756C78.2571 86.3476 77.6753 83.3752 77.6753 80.2585C77.6753 77.1463 78.2571 74.183 79.4208 71.373C80.5845 68.5675 82.2849 66.0417 84.5221 63.8045C86.7142 61.6125 89.2806 59.8985 92.2214 58.6717C93.6241 58.1034 95.3922 57.6162 97.5211 57.2238C99.65 56.8269 101.896 56.5788 104.269 56.4661C106.637 56.3578 109.009 56.421 111.377 56.6645C113.745 56.9081 115.883 57.3907 117.795 58.1124C119.703 58.834 121.25 59.8354 122.437 61.1073C123.623 62.3792 124.214 63.9804 124.214 65.9109C124.209 68.0714 123.528 69.9567 122.166 71.5805Z" fill="white"/>
<path d="M140.983 103.609C139.382 103.609 137.817 103.307 136.283 102.707C134.75 102.107 133.383 101.205 132.183 100.005C130.984 98.8054 130.082 97.4387 129.482 95.9052C128.882 94.3716 128.58 92.8065 128.58 91.2053C128.58 89.6041 128.882 88.039 129.482 86.5055C130.082 84.9719 130.984 83.6053 132.183 82.4055L154.451 60.1376C155.606 58.9829 156.95 58.0808 158.484 57.4358C160.017 56.7908 161.627 56.4706 163.319 56.4706C165.051 56.4706 166.661 56.7954 168.154 57.4358C169.642 58.0808 170.955 58.9694 172.087 60.1015C173.219 61.2336 174.108 62.5461 174.753 64.0346C175.398 65.523 175.718 67.1332 175.718 68.8697V91.2053C175.718 92.9373 175.393 94.5521 174.753 96.0405C174.108 97.5289 173.219 98.8415 172.087 99.9736C170.955 101.106 169.642 101.999 168.154 102.639C166.666 103.284 165.055 103.604 163.319 103.604H152.151H140.983V103.609Z" fill="white"/>
<path d="M0.736328 67.1828C0.736328 65.7215 1.01146 64.3503 1.56624 63.0648C2.12103 61.7794 2.87427 60.6518 3.82596 59.6775C4.77766 58.7033 5.89625 57.941 7.18171 57.3862C8.46718 56.8314 9.83835 56.5563 11.2997 56.5563C12.7611 56.5563 14.1323 56.8314 15.4177 57.3862C16.7032 57.941 17.8308 58.7033 18.8051 59.6775C19.7793 60.6518 20.5416 61.7839 21.0963 63.0648C21.6511 64.3503 21.9263 65.7215 21.9263 67.1828V92.9599C21.9263 94.4212 21.6511 95.7969 21.0963 97.0779C20.5416 98.3634 19.7793 99.4819 18.8051 100.434C17.8308 101.385 16.6987 102.139 15.4177 102.693C14.1323 103.248 12.7611 103.523 11.2997 103.523C9.83835 103.523 8.46267 103.248 7.18171 102.693C5.89625 102.139 4.77766 101.385 3.82596 100.434C2.87427 99.4819 2.12103 98.3634 1.56624 97.0779C1.01146 95.7924 0.736328 94.4212 0.736328 92.9599V67.1828Z" fill="white"/>
</svg>
