<svg width="244" height="217" viewBox="0 0 244 217" fill="none" xmlns="http://www.w3.org/2000/svg">
<path d="M71.0458 217C61.8745 217 52.9098 215.301 44.126 211.929C35.3421 208.556 27.5142 203.485 20.6421 196.74C13.77 189.995 8.603 182.312 5.16697 173.691C1.73093 165.07 0 156.271 0 147.27C0 138.268 1.73093 129.47 5.16697 120.848C8.603 112.227 13.77 104.544 20.6421 97.7994L148.189 -27.3852C154.802 -33.8765 162.501 -38.9478 171.285 -42.5738C180.069 -46.1997 189.292 -48 198.98 -48C208.901 -48 218.124 -46.1744 226.675 -42.5738C235.201 -38.9478 242.718 -33.9526 249.203 -27.5881C255.687 -21.2236 260.777 -13.8449 264.471 -5.47731C268.166 2.89032 270 11.9426 270 21.7048V147.27C270 157.007 268.14 166.084 264.471 174.452C260.777 182.82 255.687 190.198 249.203 196.563C242.718 202.927 235.201 207.948 226.675 211.548C218.149 215.174 208.926 216.975 198.98 216.975H135.013H71.0458V217Z" fill="white" fill-opacity="0.3"/>
</svg>
